<svg width="50" height="52" viewBox="0 0 50 52" fill="none" xmlns="http://www.w3.org/2000/svg">
<path id="Vector" d="M49.8556 25.5497C43.0226 25.4648 37.5051 19.7879 37.5051 12.7796C30.6525 12.7796 25.1027 7.13765 25.0187 0.150344C22.3566 -0.263141 19.6349 0.180307 17.2336 1.43075L10.4826 4.94837C8.05234 6.21503 6.07672 8.23626 4.83905 10.7222L1.41131 17.6016C0.169962 20.0939 -0.268282 22.924 0.159361 25.6866L1.33905 33.3041C1.76627 36.0639 3.03655 38.6147 4.96796 40.591L10.3166 46.0602C12.2419 48.0299 14.7275 49.3256 17.4172 49.7616L24.9084 50.9751C27.5949 51.4105 30.3478 50.9641 32.7726 49.7007L39.5236 46.1841C41.9537 44.9171 43.9292 42.896 45.1672 40.4102L48.5949 33.5308C49.8215 31.0699 50.256 28.2793 49.8556 25.5497ZM17.1877 36.7538C15.4621 36.7538 14.0627 35.3226 14.0627 33.5578C14.0627 31.793 15.4621 30.3617 17.1877 30.3617C18.9133 30.3617 20.3127 31.793 20.3127 33.5578C20.3127 35.3226 18.9133 36.7538 17.1877 36.7538ZM20.3127 20.7737C18.5871 20.7737 17.1877 19.3425 17.1877 17.5777C17.1877 15.8129 18.5871 14.3816 20.3127 14.3816C22.0383 14.3816 23.4377 15.8129 23.4377 17.5777C23.4377 19.3425 22.0383 20.7737 20.3127 20.7737ZM35.9377 33.5578C34.2121 33.5578 32.8127 32.1265 32.8127 30.3617C32.8127 28.5969 34.2121 27.1657 35.9377 27.1657C37.6633 27.1657 39.0627 28.5969 39.0627 30.3617C39.0627 32.1265 37.6633 33.5578 35.9377 33.5578Z" fill="white"/>
</svg>
