<svg width="24" height="25" viewBox="0 0 24 25" fill="none" xmlns="http://www.w3.org/2000/svg">
<g id="icons8-&#208;&#180;&#208;&#184;&#208;&#191;&#208;&#187;&#208;&#190;&#208;&#188;-1-96 1">
<g id="Group">
<path id="Vector" d="M10.9 2.99805C10.375 3.54805 9.8 3.94805 9.65 3.89805C9.5 3.84805 8.9 3.74805 8.325 3.67305C7.74604 3.59034 7.2103 3.99445 7.13077 4.57386L7.1 4.79805C6.95 5.99805 6.85 6.14805 5.725 6.84805C5.05 7.24805 4.5 7.62305 4.5 7.67305C4.5 7.72305 4.75 8.27305 5.05 8.89805C5.39704 9.6079 5.39704 10.4382 5.05 11.148C4.75 11.773 4.5 12.323 4.5 12.373C4.5 12.423 5.05 12.798 5.725 13.198C6.85 13.898 6.95 14.048 7.1 15.223L7.11651 15.3457C7.20368 15.9932 7.80375 16.4443 8.45 16.348C9.31098 16.2487 10.1066 16.3029 10.7385 16.8961C10.7995 16.9534 10.8618 17.0125 10.925 17.073C11.5228 17.6569 12.4772 17.6569 13.075 17.073C13.1382 17.0125 13.2005 16.9534 13.2615 16.8961C13.8934 16.3029 14.689 16.2487 15.55 16.348C16.1967 16.4444 16.7976 15.9939 16.8865 15.3461L16.9 15.248C17.05 14.048 17.15 13.923 18.275 13.223C18.95 12.823 19.5 12.448 19.5 12.373C19.5 12.323 19.25 11.773 18.95 11.148C18.603 10.4382 18.603 9.6079 18.95 8.89805C19.25 8.27305 19.5 7.72305 19.5 7.67305C19.5 7.59805 18.95 7.22305 18.275 6.82305C17.15 6.12305 17.05 5.99805 16.9 4.79805L16.8692 4.57386C16.7897 3.99445 16.254 3.59034 15.675 3.67305C15.1 3.74805 14.5 3.84805 14.35 3.89805C14.2 3.94805 13.625 3.54805 13.1 2.99805C12.575 2.47305 12.075 2.02305 12 2.02305C11.925 2.02305 11.425 2.47305 10.9 2.99805Z" fill="url(#paint0_linear_202_443)"/>
<path id="Vector_2" d="M2.77501 17.1234L2.02156 17.8872C1.52883 18.3867 1.73326 19.23 2.40001 19.4484C3.85001 19.9234 3.87501 19.9734 4.37501 21.3484C4.65001 22.0984 4.92501 22.7734 5.00001 22.8234C5.07501 22.8734 6.12501 21.8484 7.35001 20.5984L8.60904 19.2974C8.97993 18.9142 8.70834 18.2734 8.17501 18.2734C6.50001 18.2734 5.55001 17.6234 5.27501 16.2984C5.20001 15.8234 5.00001 15.3984 4.87501 15.3484C4.72501 15.2984 3.80001 16.0984 2.77501 17.1234Z" fill="url(#paint1_linear_202_443)"/>
<path id="Vector_3" d="M19.6022 15.5543C19.1955 15.2263 18.75 15.6757 18.75 16.1982C18.75 16.5482 18.425 17.1482 18.025 17.5482C17.375 18.1732 17.1 18.2732 15.9 18.2732C15.125 18.2732 14.5 18.3732 14.5 18.4982C14.5 18.5982 15.5 19.6732 16.75 20.8232L17.9059 21.9272C18.4044 22.4032 19.2285 22.201 19.45 21.5482C19.95 20.0482 19.8 20.1732 22.725 19.1232C22.975 19.0482 22.525 18.4232 21.25 17.1482C20.4119 16.299 19.9185 15.8094 19.6022 15.5543Z" fill="url(#paint2_linear_202_443)"/>
</g>
</g>
<defs>
<linearGradient id="paint0_linear_202_443" x1="12" y1="18.123" x2="12" y2="2.02305" gradientUnits="userSpaceOnUse">
<stop stop-color="#FCF45F"/>
<stop offset="1" stop-color="#FEAD25"/>
</linearGradient>
<linearGradient id="paint1_linear_202_443" x1="5.27501" y1="22.8252" x2="5.27501" y2="15.3462" gradientUnits="userSpaceOnUse">
<stop stop-color="#FCF45F"/>
<stop offset="1" stop-color="#FEAD25"/>
</linearGradient>
<linearGradient id="paint2_linear_202_443" x1="18.6456" y1="22.9482" x2="18.6456" y2="15.32" gradientUnits="userSpaceOnUse">
<stop stop-color="#FCF45F"/>
<stop offset="1" stop-color="#FEAD25"/>
</linearGradient>
</defs>
</svg>
