<svg width="28" height="28" viewBox="0 0 28 28" fill="none" xmlns="http://www.w3.org/2000/svg">
<g clip-path="url(#clip0_222_879)">
<path d="M27.3334 14.0008C27.3334 21.3642 21.3634 27.3342 14 27.3342C6.63669 27.3342 0.666687 21.3642 0.666687 14.0008C0.666687 6.63748 6.63669 0.66748 14 0.66748C21.3634 0.66748 27.3334 6.63748 27.3334 14.0008Z" fill="url(#paint0_linear_222_879)"/>
<path d="M12 8.00016C12 7.63197 12.2985 7.3335 12.6667 7.3335H15.3333C15.7015 7.3335 16 7.63197 16 8.00016V20.0002C16 20.3684 15.7015 20.6668 15.3333 20.6668H12.6667C12.2985 20.6668 12 20.3684 12 20.0002V8.00016Z" fill="white"/>
<path d="M7.33325 12.6667C7.33325 12.2985 7.63173 12 7.99992 12H19.9999C20.3681 12 20.6666 12.2985 20.6666 12.6667V15.3333C20.6666 15.7015 20.3681 16 19.9999 16H7.99992C7.63173 16 7.33325 15.7015 7.33325 15.3333V12.6667Z" fill="white"/>
</g>
<defs>
<linearGradient id="paint0_linear_222_879" x1="14" y1="0.66748" x2="14" y2="27.3342" gradientUnits="userSpaceOnUse">
<stop stop-color="#59D069"/>
<stop offset="1" stop-color="#23902F"/>
</linearGradient>
<clipPath id="clip0_222_879">
<rect width="28" height="28" fill="white"/>
</clipPath>
</defs>
</svg>
