<svg width="15" height="15" viewBox="0 0 15 15" fill="none" xmlns="http://www.w3.org/2000/svg">
<path d="M5.66672 1.41667C5.66672 1.04848 5.96519 0.75 6.33338 0.75H9.00005C9.36824 0.75 9.66672 1.04848 9.66672 1.41667V13.4167C9.66672 13.7849 9.36824 14.0833 9.00005 14.0833H6.33338C5.96519 14.0833 5.66672 13.7849 5.66672 13.4167V1.41667Z" fill="#1A191E"/>
<path d="M1 6.08317C1 5.71498 1.29848 5.4165 1.66667 5.4165H13.6667C14.0349 5.4165 14.3333 5.71498 14.3333 6.08317V8.74984C14.3333 9.11803 14.0349 9.4165 13.6667 9.4165H1.66667C1.29848 9.4165 1 9.11803 1 8.74984V6.08317Z" fill="#1A191E"/>
</svg>
