<svg width="20" height="20" viewBox="0 0 20 20" fill="none" xmlns="http://www.w3.org/2000/svg">
<path d="M18.9285 6.31972L13.5334 5.53489L11.1251 0.64718C11.0107 0.450304 10.8466 0.286914 10.6492 0.173344C10.4519 0.0597727 10.2281 0 10.0004 0C9.77271 0 9.54896 0.0597727 9.35158 0.173344C9.1542 0.286914 8.99009 0.450304 8.87561 0.64718L6.46741 5.53614L1.07231 6.31972C0.841279 6.35286 0.624144 6.45003 0.445497 6.60022C0.266851 6.75041 0.133834 6.94763 0.0615121 7.16955C-0.0108094 7.39148 -0.019545 7.62917 0.0362948 7.85578C0.0921343 8.08239 0.210318 8.28887 0.377459 8.45174L4.28037 12.2572L3.35932 17.631C3.31994 17.8609 3.34565 18.0972 3.43353 18.3131C3.52141 18.5291 3.66797 18.7162 3.85663 18.8533C4.04529 18.9903 4.26852 19.0718 4.50109 19.0886C4.73366 19.1054 4.96629 19.0568 5.17268 18.9483L10.0004 16.4101L14.8257 18.9458C15.032 19.0543 15.2646 19.1029 15.4972 19.0861C15.7298 19.0693 15.953 18.9878 16.1417 18.8508C16.3303 18.7137 16.4769 18.5266 16.5648 18.3106C16.6527 18.0947 16.6784 17.8584 16.639 17.6285L15.7179 12.2547L19.6234 8.45174C19.79 8.28894 19.908 8.08283 19.9637 7.85659C20.0194 7.63035 20.0109 7.39295 19.9388 7.17137C19.8669 6.94975 19.7343 6.75269 19.5562 6.60242C19.3781 6.45215 19.1616 6.35466 18.931 6.32097L18.9285 6.31972Z" fill="white" fill-opacity="0.4"/>
<path fill-rule="evenodd" clip-rule="evenodd" d="M10 0C9.77244 7.23859e-05 9.54885 0.0598415 9.35159 0.173344C9.1542 0.286914 8.99009 0.450304 8.87561 0.64718L6.46741 5.53614L1.07231 6.31972C0.841279 6.35286 0.624144 6.45003 0.445497 6.60022C0.266851 6.75041 0.133834 6.94763 0.0615121 7.16955C-0.0108094 7.39148 -0.019545 7.62917 0.0362948 7.85578C0.0921344 8.08238 0.210318 8.28887 0.377459 8.45174L4.28037 12.2572L3.35932 17.631C3.31994 17.8609 3.34565 18.0972 3.43353 18.3131C3.52141 18.5291 3.66797 18.7162 3.85663 18.8533C4.04529 18.9903 4.26852 19.0718 4.50109 19.0886C4.73367 19.1054 4.96629 19.0568 5.17268 18.9483L10 16.4103V0ZM14.9431 19C15.1184 19.0701 15.3078 19.0998 15.4972 19.0861C15.6262 19.0768 15.7523 19.0476 15.8713 19H14.9431Z" fill="url(#paint0_linear_203_968)"/>
<defs>
<linearGradient id="paint0_linear_203_968" x1="9.99997" y1="0" x2="9.99997" y2="19.0918" gradientUnits="userSpaceOnUse">
<stop stop-color="#FCF45F"/>
<stop offset="1" stop-color="#FEAD25"/>
</linearGradient>
</defs>
</svg>
