<svg width="21" height="20" viewBox="0 0 21 20" fill="none" xmlns="http://www.w3.org/2000/svg">
<path d="M19.4285 6.31972L14.0334 5.53489L11.6251 0.64718C11.5107 0.450304 11.3466 0.286914 11.1492 0.173344C10.9519 0.0597727 10.7281 0 10.5004 0C10.2727 0 10.049 0.0597727 9.85159 0.173344C9.6542 0.286914 9.49009 0.450304 9.37561 0.64718L6.96741 5.53614L1.57231 6.31972C1.34128 6.35286 1.12414 6.45003 0.945497 6.60022C0.766851 6.75041 0.633834 6.94763 0.561512 7.16955C0.489191 7.39148 0.480455 7.62917 0.536295 7.85578C0.592134 8.08239 0.710318 8.28887 0.877459 8.45174L4.78037 12.2572L3.85932 17.631C3.81994 17.8609 3.84565 18.0972 3.93353 18.3131C4.02141 18.5291 4.16797 18.7162 4.35663 18.8533C4.54529 18.9903 4.76852 19.0718 5.00109 19.0886C5.23367 19.1054 5.46629 19.0568 5.67268 18.9483L10.5004 16.4101L15.3257 18.9458C15.532 19.0543 15.7646 19.1029 15.9972 19.0861C16.2298 19.0693 16.453 18.9878 16.6417 18.8508C16.8303 18.7137 16.9769 18.5266 17.0648 18.3106C17.1527 18.0947 17.1784 17.8584 17.139 17.6285L16.2179 12.2547L20.1234 8.45174C20.2901 8.28894 20.408 8.08283 20.4637 7.85659C20.5194 7.63035 20.5109 7.39295 20.4388 7.17137C20.3669 6.94975 20.2343 6.75269 20.0562 6.60242C19.8781 6.45215 19.6616 6.35466 19.431 6.32097L19.4285 6.31972Z" fill="#DEDEDE"/>
</svg>
