<svg width="23" height="22" viewBox="0 0 23 22" fill="none" xmlns="http://www.w3.org/2000/svg">
<g id="android">
<path id="Vector" d="M21.15 15.3101H2.14001V19.1401H21.15V15.3101Z" fill="#AFAFAF"/>
<path id="Vector_2" fill-rule="evenodd" clip-rule="evenodd" d="M21.14 13.6999V12.6999C21.1126 12.4143 21.0692 12.1306 21.01 11.8499C20.7296 10.5928 20.1708 9.41467 19.3747 8.40222C18.5786 7.38978 17.5655 6.56884 16.41 5.99988L17.86 3.31988C17.8817 3.28048 17.8954 3.23721 17.9003 3.19252C17.9053 3.14783 17.9014 3.1026 17.8888 3.05942C17.8763 3.01624 17.8554 2.97596 17.8273 2.94086C17.7991 2.90577 17.7644 2.87655 17.725 2.85488C17.6856 2.83321 17.6423 2.81952 17.5976 2.81457C17.553 2.80963 17.5077 2.81354 17.4645 2.82608C17.4214 2.83861 17.3811 2.85953 17.346 2.88764C17.3109 2.91574 17.2817 2.95048 17.26 2.98988L15.79 5.74988C14.478 5.19495 13.0675 4.91068 11.643 4.91412C10.2185 4.91755 8.8093 5.20863 7.50001 5.76988L6.02001 2.99988C5.99834 2.96048 5.96913 2.92574 5.93403 2.89764C5.89893 2.86953 5.85865 2.84861 5.81547 2.83608C5.77229 2.82354 5.72706 2.81963 5.68237 2.82457C5.63768 2.82952 5.59441 2.84321 5.55501 2.86488C5.51561 2.88655 5.48087 2.91577 5.45276 2.95086C5.42466 2.98596 5.40374 3.02624 5.3912 3.06942C5.37867 3.1126 5.37476 3.15783 5.3797 3.20252C5.38464 3.24721 5.39834 3.29048 5.42001 3.32988L6.88001 6.02988C5.78492 6.57187 4.81691 7.33947 4.03961 8.28223C3.26231 9.22498 2.69332 10.3216 2.37001 11.4999C2.21566 12.1146 2.1384 12.7461 2.14001 13.3799C2.14001 13.4799 2.14001 13.5699 2.14001 13.6699L21.14 13.6999ZM15.97 7.74988C16.1484 7.7479 16.3234 7.79899 16.4727 7.89667C16.622 7.99435 16.7389 8.13421 16.8086 8.29848C16.8783 8.46275 16.8975 8.64402 16.8639 8.81925C16.8303 8.99449 16.7454 9.15579 16.62 9.28266C16.4945 9.40953 16.3342 9.49624 16.1593 9.53179C15.9845 9.56733 15.803 9.5501 15.6379 9.48229C15.4729 9.41447 15.3318 9.29913 15.2324 9.15092C15.1331 9.00271 15.08 8.82831 15.08 8.64988C15.08 8.41291 15.1734 8.18549 15.3401 8.01699C15.5067 7.8485 15.7331 7.75251 15.97 7.74988ZM7.08001 7.74988C7.25842 7.7479 7.4334 7.79899 7.58272 7.89667C7.73203 7.99435 7.84894 8.13421 7.9186 8.29848C7.98825 8.46275 8.00751 8.64402 7.97392 8.81925C7.94033 8.99449 7.85541 9.15579 7.72995 9.28266C7.60449 9.40953 7.44415 9.49624 7.2693 9.53179C7.09445 9.56733 6.91298 9.5501 6.74794 9.48229C6.58291 9.41447 6.44175 9.29913 6.34241 9.15092C6.24307 9.00271 6.19002 8.82831 6.19001 8.64988C6.18999 8.41291 6.28344 8.18549 6.45007 8.01699C6.61669 7.8485 6.84305 7.75251 7.08001 7.74988Z" fill="#AFAFAF"/>
</g>
</svg>
