<svg width="23" height="22" viewBox="0 0 23 22" fill="none" xmlns="http://www.w3.org/2000/svg">
<g id="apple">
<path id="Vector" fill-rule="evenodd" clip-rule="evenodd" d="M18.94 15.07C19.3583 15.4935 19.8539 15.833 20.4 16.07C20.28 16.42 20.16 16.75 20.03 17.07C19.7266 17.7963 19.3443 18.4871 18.89 19.13C18.4754 19.7789 17.9853 20.3764 17.43 20.91C16.9339 21.4203 16.2611 21.7209 15.55 21.75C14.948 21.7258 14.3567 21.5831 13.81 21.33C13.2247 21.0646 12.5924 20.9184 11.95 20.9C11.2844 20.9134 10.6283 21.0596 10.02 21.33C9.49268 21.5614 8.93272 21.7098 8.35999 21.77C7.99661 21.7661 7.63788 21.6877 7.30594 21.5398C6.974 21.3919 6.67589 21.1776 6.42999 20.91C5.84417 20.3379 5.33037 19.6965 4.89999 19C4.20968 17.9983 3.6643 16.9042 3.27999 15.75C2.84223 14.5061 2.61249 13.1986 2.59999 11.88C2.56165 10.5945 2.87269 9.32267 3.49999 8.19998C3.95521 7.38907 4.61467 6.71137 5.41287 6.23421C6.21106 5.75705 7.12021 5.49703 8.04999 5.47998C8.73872 5.52049 9.41531 5.67949 10.05 5.94998C10.5612 6.17386 11.0989 6.3318 11.65 6.41998C12.2602 6.29193 12.8564 6.10436 13.43 5.85998C14.1946 5.5503 15.0155 5.40383 15.84 5.42998C16.6259 5.45195 17.3961 5.6557 18.0901 6.02526C18.7841 6.39481 19.3831 6.92012 19.84 7.55998C19.113 7.96232 18.5104 8.55644 18.0978 9.27762C17.6852 9.99881 17.4784 10.8194 17.5 11.65C17.4811 12.2899 17.5999 12.9264 17.8483 13.5165C18.0968 14.1065 18.4691 14.6363 18.94 15.07Z" fill="#AFAFAF"/>
<path id="Vector_2" fill-rule="evenodd" clip-rule="evenodd" d="M14.71 3.70002C15.4382 2.86802 15.8491 1.80549 15.87 0.70002C15.8831 0.556987 15.8831 0.413052 15.87 0.27002C15.268 0.314396 14.682 0.484741 14.15 0.77002C13.5783 1.04512 13.0681 1.43288 12.65 1.91002C11.9112 2.69725 11.4907 3.7306 11.47 4.81002C11.4628 4.94659 11.4628 5.08345 11.47 5.22002C12.0951 5.26619 12.7216 5.15059 13.2891 4.88437C13.8566 4.61814 14.3459 4.21026 14.71 3.70002Z" fill="#AFAFAF"/>
</g>
</svg>
