<svg width="21" height="18" viewBox="0 0 21 18" fill="none" xmlns="http://www.w3.org/2000/svg">
<g id="macos" clip-path="url(#clip0_61_689)">
<g id="&#229;&#155;&#190;&#229;&#177;&#130; 2">
<g id="&#229;&#155;&#190;&#229;&#177;&#130; 1">
<path id="Vector" d="M10.5 14.46C7.71001 14.46 5.58001 13.75 4.15001 12.31C4.10404 12.264 4.06758 12.2094 4.04271 12.1494C4.01783 12.0893 4.00503 12.025 4.00503 11.96C4.00503 11.8287 4.05718 11.7028 4.15001 11.61C4.24283 11.5171 4.36873 11.465 4.50001 11.465C4.56501 11.465 4.62937 11.4778 4.68943 11.5027C4.74948 11.5275 4.80404 11.564 4.85001 11.61C6.08334 12.8433 7.96667 13.46 10.5 13.46H11.62C11.5183 12.4634 11.4782 11.4615 11.5 10.46H10.12C9.00001 10.46 8.83001 9.26996 9.22001 7.11996C9.72116 4.69012 10.3894 2.29777 11.22 -0.0400387H1.50001C1.36525 -0.0401466 1.23186 -0.0130171 1.10785 0.0397204C0.983845 0.0924578 0.871775 0.169715 0.778374 0.266852C0.684972 0.363989 0.612168 0.479002 0.564332 0.604983C0.516496 0.730963 0.494617 0.865312 0.500007 0.999961V17C0.500007 17.2652 0.605364 17.5195 0.7929 17.7071C0.980437 17.8946 1.23479 18 1.50001 18H12.33C12.0612 16.8154 11.8575 15.6169 11.72 14.41C11.3147 14.4515 10.9073 14.4682 10.5 14.46ZM5.50001 5.45996C5.50001 5.32735 5.55269 5.20018 5.64645 5.10641C5.74022 5.01264 5.8674 4.95996 6.00001 4.95996C6.13262 4.95996 6.25979 5.01264 6.35356 5.10641C6.44733 5.20018 6.50001 5.32735 6.50001 5.45996V7.45996C6.50001 7.59257 6.44733 7.71975 6.35356 7.81351C6.25979 7.90728 6.13262 7.95996 6.00001 7.95996C5.8674 7.95996 5.74022 7.90728 5.64645 7.81351C5.55269 7.71975 5.50001 7.59257 5.50001 7.45996V5.45996Z" fill="#AFAFAF"/>
<path id="Vector_2" d="M19.5 0H12.27C11.4051 2.38286 10.7035 4.82183 10.17 7.3C9.88999 8.82 9.98999 9.46 10.09 9.46H12.59V10C12.59 11.15 12.59 12.25 12.71 13.31C13.9989 13.1197 15.199 12.5406 16.15 11.65C16.2428 11.5572 16.3687 11.505 16.5 11.505C16.6313 11.505 16.7572 11.5572 16.85 11.65C16.9428 11.7428 16.995 11.8687 16.995 12C16.995 12.1313 16.9428 12.2572 16.85 12.35C15.7423 13.4294 14.3208 14.1296 12.79 14.35C12.91 15.5772 13.1037 16.7961 13.37 18H19.5C19.7652 18 20.0196 17.8946 20.2071 17.7071C20.3946 17.5196 20.5 17.2652 20.5 17V1C20.5 0.734784 20.3946 0.48043 20.2071 0.292893C20.0196 0.105357 19.7652 0 19.5 0ZM15.5 7.5C15.5 7.63261 15.4473 7.75979 15.3535 7.85355C15.2598 7.94732 15.1326 8 15 8C14.8674 8 14.7402 7.94732 14.6464 7.85355C14.5527 7.75979 14.5 7.63261 14.5 7.5V5.5C14.5 5.36739 14.5527 5.24021 14.6464 5.14645C14.7402 5.05268 14.8674 5 15 5C15.1326 5 15.2598 5.05268 15.3535 5.14645C15.4473 5.24021 15.5 5.36739 15.5 5.5V7.5Z" fill="#AFAFAF"/>
</g>
</g>
</g>
<defs>
<clipPath id="clip0_61_689">
<rect width="20" height="18" fill="white" transform="translate(0.5)"/>
</clipPath>
</defs>
</svg>
