<svg width="12" height="13" viewBox="0 0 12 13" fill="none" xmlns="http://www.w3.org/2000/svg">
<g id="icon-remove" clip-path="url(#clip0_202_279)">
<path id="Vector" d="M8.03181 6.5236L11.579 2.97673C12.1402 2.41548 12.1402 1.50562 11.579 0.944653C11.0183 0.383683 10.1079 0.383683 9.54718 0.944653L6 4.4921L2.45283 0.944653C1.89214 0.383683 0.981708 0.383683 0.421022 0.944653C-0.140239 1.50591 -0.140239 2.41576 0.421022 2.97673L3.96791 6.5236L0.421022 10.0705C-0.140239 10.6317 -0.140239 11.5416 0.421022 12.1026C0.701221 12.3833 1.06936 12.5233 1.43692 12.5233C1.8042 12.5233 2.17263 12.3833 2.45283 12.1026L6 8.55568L9.54718 12.1028C9.82767 12.3836 10.1955 12.5236 10.5631 12.5236C10.9306 12.5236 11.2988 12.3836 11.579 12.1028C12.1402 11.5416 12.1402 10.6317 11.579 10.0708L8.03181 6.5236Z" fill="#F83030"/>
</g>
<defs>
<clipPath id="clip0_202_279">
<rect width="12" height="11.9999" fill="white" transform="translate(0 0.523438)"/>
</clipPath>
</defs>
</svg>
