<svg width="20" height="20" viewBox="0 0 20 20" fill="none" xmlns="http://www.w3.org/2000/svg">
<g id="bitcoin">
<g id="Group">
<g id="Bitcoin">
<g id="Layer-1">
<g id="Group_2">
<path id="Vector" d="M19.0095 12.3662C17.7641 17.3611 12.7056 20.4 7.71086 19.1552C2.71809 17.9098 -0.321676 12.8511 0.924435 7.85693C2.16864 2.86204 7.22727 -0.177451 12.2205 1.06753C17.2154 2.31266 20.2541 7.372 19.0095 12.3662Z" fill="#F7931A"/>
</g>
<g id="Group_3">
<path id="Vector_2" d="M12.0564 8.7663C11.768 9.92171 9.98769 9.33468 9.41056 9.19076L9.91981 7.14853C10.4969 7.29245 12.3568 7.56106 12.0564 8.7663ZM11.74 12.0615C11.424 13.3315 9.28529 12.6454 8.59163 12.4729L9.15361 10.2212C9.84698 10.3943 12.0704 10.7372 11.74 12.0615ZM14.0771 8.78465C14.2627 7.54416 13.3182 6.8773 12.0264 6.43244L12.4456 4.75204L11.4228 4.49713L11.0149 6.13324C10.746 6.06624 10.4698 6.00302 10.1957 5.94038L10.6062 4.29349L9.5842 4.03857L9.16497 5.71839C8.9424 5.6677 8.7239 5.61759 8.51181 5.56486L8.51298 5.55961L7.10235 5.20739L6.83025 6.29989C6.83025 6.29989 7.58917 6.47381 7.57285 6.48459C7.98741 6.58801 8.06229 6.86216 8.04976 7.07949L7.57227 8.99383C7.60111 9.00111 7.63811 9.01189 7.6789 9.02791C7.64452 9.01946 7.6081 9.01014 7.57081 9.00111L6.90192 11.6828C6.85123 11.8087 6.72246 11.9972 6.43317 11.9258C6.44307 11.9406 5.68969 11.7402 5.68969 11.7402L5.18161 12.9114L6.51299 13.2435C6.76033 13.3055 7.00301 13.3702 7.24219 13.4314L6.8186 15.131L7.84029 15.3859L8.25952 13.7041C8.53861 13.7798 8.80926 13.8497 9.07466 13.9159L8.65689 15.5893L9.67975 15.8442L10.1031 14.1481C11.847 14.4781 13.1588 14.345 13.7109 12.7677C14.1558 11.4975 13.6888 10.7648 12.7711 10.2868C13.4394 10.1323 13.9428 9.69273 14.0771 8.78465Z" fill="white"/>
</g>
</g>
</g>
</g>
</g>
</svg>
