<svg width="28" height="18" viewBox="0 0 28 18" fill="none" xmlns="http://www.w3.org/2000/svg">
<g id="mastercard" clip-path="url(#clip0_202_487)">
<g id="Group">
<g id="Mastercard">
<g id="Group_2">
<g id="Group_3">
<path id="Vector" fill-rule="evenodd" clip-rule="evenodd" d="M19.2641 16.8563L19.6703 16.8456L20.0714 16.8163L20.4645 16.766L20.855 16.6969L21.2347 16.6093L21.6092 16.503L21.9757 16.3783L22.3343 16.2375L22.6849 16.078L23.025 15.9055L23.3542 15.7142L23.6757 15.5097L23.9837 15.2892L24.2812 15.0555L24.568 14.8085L24.8417 14.5456L25.1045 14.272L25.3516 13.9851L25.5853 13.6877L25.8057 13.3796L26.0103 13.0582L26.2014 12.7289L26.3741 12.3888L26.5335 12.0382L26.6742 11.6798L26.7991 11.3131L26.9053 10.9386L26.9929 10.5589L27.0621 10.1684L27.1124 9.77532L27.1417 9.37424L27.1524 8.96796L27.1417 8.5642L27.1124 8.16579L27.0621 7.77273L26.9929 7.38768L26.9053 7.00783L26.7991 6.636L26.6742 6.26951L26.5335 5.91357L26.3741 5.56565L26.2014 5.2256L26.0103 4.89892L25.8057 4.57757L25.5853 4.26945L25.3516 3.97468L25.1045 3.68779L24.8417 3.41426L24.568 3.15395L24.2812 2.90701L23.9837 2.67328L23.6757 2.45276L23.3542 2.24829L23.025 2.0597L22.6849 1.887L22.3343 1.72767L21.9757 1.58689L21.6092 1.46201L21.2347 1.35584L20.855 1.26822L20.4645 1.19917L20.0714 1.14869L19.6703 1.11943L19.2641 1.10889L18.8603 1.11943L18.4592 1.14869L18.0662 1.19917L17.6784 1.26822L17.2986 1.35584L16.9241 1.46201L16.5601 1.58689L16.2017 1.72767L15.8537 1.887L15.5164 2.0597L15.187 2.24829L14.8683 2.45276L14.5602 2.67328L14.2628 2.90701L13.9785 3.15395L13.705 3.41426L13.4447 3.68779L13.1976 3.97468L12.9639 4.26945L12.7462 4.57757L12.5416 4.89892L12.3531 5.2256L12.1778 5.56565L12.0211 5.91357L11.8803 6.26951L11.7581 6.636L11.6519 7.00783L11.5643 7.38768L11.4953 7.77273L11.4448 8.16579L11.4155 8.5642L11.4048 8.96796L11.4155 9.37424L11.4448 9.77532L11.4953 10.1684L11.5643 10.5589L11.6519 10.9386L11.7581 11.3131L11.8803 11.6798L12.0211 12.0382L12.1778 12.3888L12.3531 12.7289L12.5416 13.0582L12.7462 13.3796L12.9639 13.6877L13.1976 13.9851L13.4447 14.272L13.705 14.5456L13.9785 14.8085L14.2628 15.0555L14.5602 15.2892L14.8683 15.5097L15.187 15.7142L15.5164 15.9055L15.8537 16.078L16.2017 16.2375L16.5601 16.3783L16.9241 16.503L17.2986 16.6093L17.6784 16.6969L18.0662 16.766L18.4592 16.8163L18.8603 16.8456L19.2641 16.8563Z" fill="#FCB330"/>
</g>
<g id="Group_4">
<path id="Vector_2" fill-rule="evenodd" clip-rule="evenodd" d="M8.7303 16.8563L9.13405 16.8456L9.53499 16.8163L9.9282 16.766L10.3159 16.6969L10.6958 16.6093L11.0701 16.503L11.4341 16.3783L11.7927 16.2375L12.1406 16.078L12.4779 15.9055L12.8072 15.7142L13.1259 15.5097L13.434 15.2892L13.7316 15.0555L14.0157 14.8085L14.2893 14.5456L14.5496 14.272L14.7966 13.9851L15.0303 13.6877L15.248 13.3796L15.4526 13.0582L15.6412 12.7289L15.8165 12.3888L15.9731 12.0382L16.114 11.6798L16.2361 11.3131L16.3424 10.9386L16.43 10.5589L16.4991 10.1684L16.5496 9.77532L16.5787 9.37424L16.5894 8.96796L16.5787 8.5642L16.5496 8.16579L16.4991 7.77273L16.43 7.38768L16.3424 7.00783L16.2361 6.636L16.114 6.26951L15.9731 5.91357L15.8165 5.56565L15.6412 5.2256L15.4526 4.89892L15.248 4.57757L15.0303 4.26945L14.7966 3.97468L14.5496 3.68779L14.2893 3.41426L14.0157 3.15395L13.7316 2.90701L13.434 2.67328L13.1259 2.45276L12.8072 2.24829L12.4779 2.0597L12.1406 1.887L11.7927 1.72767L11.4341 1.58689L11.0701 1.46201L10.6958 1.35584L10.3159 1.26822L9.9282 1.19917L9.53499 1.14869L9.13405 1.11943L8.7303 1.10889L8.32387 1.11943L7.92279 1.14869L7.52973 1.19917L7.13933 1.26822L6.75948 1.35584L6.38498 1.46201L6.0185 1.58689L5.65988 1.72767L5.30929 1.887L4.96938 2.0597L4.64002 2.24829L4.31868 2.45276L4.01056 2.67328L3.71312 2.90701L3.42623 3.15395L3.1527 3.41426L2.88972 3.68779L2.64277 3.97468L2.40904 4.26945L2.18853 4.57757L1.98405 4.89892L1.79279 5.2256L1.6201 5.56565L1.46076 5.91357L1.31999 6.26951L1.19525 6.636L1.08893 7.00783L1.00132 7.38768L0.932266 7.77273L0.881779 8.16579L0.852527 8.5642L0.84198 8.96796L0.852527 9.37424L0.881779 9.77532L0.932266 10.1684L1.00132 10.5589L1.08893 10.9386L1.19525 11.3131L1.31999 11.6798L1.46076 12.0382L1.6201 12.3888L1.79279 12.7289L1.98405 13.0582L2.18853 13.3796L2.40904 13.6877L2.64277 13.9851L2.88972 14.272L3.1527 14.5456L3.42623 14.8085L3.71312 15.0555L4.01056 15.2892L4.31868 15.5097L4.64002 15.7142L4.96938 15.9055L5.30929 16.078L5.65988 16.2375L6.0185 16.3783L6.38498 16.503L6.75948 16.6093L7.13933 16.6969L7.52973 16.766L7.92279 16.8163L8.32387 16.8456L8.7303 16.8563Z" fill="#ED1B2D"/>
</g>
<g id="Group_5">
<path id="Vector_3" fill-rule="evenodd" clip-rule="evenodd" d="M13.0755 4.12869H17.2587V3.70117H13.4366L13.0755 4.12869Z" fill="#FCB330"/>
</g>
<g id="Group_6">
<path id="Vector_4" fill-rule="evenodd" clip-rule="evenodd" d="M12.4486 5.07952H17.2587V4.65186H12.701L12.4486 5.07952Z" fill="#FCB330"/>
</g>
<g id="Group_7">
<path id="Vector_5" fill-rule="evenodd" clip-rule="evenodd" d="M11.9811 6.02776H17.2588V5.6001H12.1672L11.9811 6.02776Z" fill="#FCB330"/>
</g>
<g id="Group_8">
<path id="Vector_6" fill-rule="evenodd" clip-rule="evenodd" d="M11.6598 6.97879H17.2587V6.55127H11.7927L11.6598 6.97879Z" fill="#FCB330"/>
</g>
<g id="Group_9">
<path id="Vector_7" fill-rule="evenodd" clip-rule="evenodd" d="M11.8456 11.5735H17.2719V11.146H11.7129L11.8456 11.5735Z" fill="#FCB330"/>
</g>
<g id="Group_10">
<path id="Vector_8" fill-rule="evenodd" clip-rule="evenodd" d="M12.2468 12.5243H17.272V12.0967H12.0477L12.2468 12.5243Z" fill="#FCB330"/>
</g>
<g id="Group_11">
<path id="Vector_9" fill-rule="evenodd" clip-rule="evenodd" d="M12.8099 13.4726H17.272V13.0449H12.5415L12.8099 13.4726Z" fill="#FCB330"/>
</g>
<g id="Group_12">
<path id="Vector_10" fill-rule="evenodd" clip-rule="evenodd" d="M13.5854 14.4234H17.2719V13.9932H13.2109L13.5854 14.4234Z" fill="#FCB330"/>
</g>
<g id="Group_13">
<path id="Vector_11" fill-rule="evenodd" clip-rule="evenodd" d="M11.4712 7.92717H17.2588V7.49951H11.5536L11.4712 7.92717Z" fill="#FCB330"/>
</g>
<g id="Group_14">
<path id="Vector_12" fill-rule="evenodd" clip-rule="evenodd" d="M14.9984 10.6254H17.2056V10.1978H15.0781L14.9984 10.6254Z" fill="#FCB330"/>
</g>
<g id="Group_15">
<path id="Vector_13" fill-rule="evenodd" clip-rule="evenodd" d="M15.1737 9.6774H17.2056V9.24707H15.2533L15.1737 9.6774Z" fill="#FCB330"/>
</g>
<g id="Group_16">
<path id="Vector_14" fill-rule="evenodd" clip-rule="evenodd" d="M11.3252 9.24707H11.8989V9.6774H11.3518L11.3252 9.24707Z" fill="#FCB330"/>
</g>
<g id="Group_17">
<path id="Vector_15" fill-rule="evenodd" clip-rule="evenodd" d="M10.2547 8.72932L10.2175 8.72665L10.1804 8.72131L10.1458 8.71611L10.1114 8.71076L10.0794 8.70542L10.045 8.70007L10.0104 8.69487L9.97326 8.68953L9.93599 8.68418L9.89352 8.68151L9.84571 8.67884L9.79522 8.67631H9.73939L9.67836 8.67884L9.60931 8.68418L9.53238 8.68953L9.47922 8.69754L9.42873 8.70542L9.38359 8.72131L9.34365 8.73734L9.30652 8.7559L9.27207 8.77714L9.24549 8.80372L9.22158 8.82763L9.20569 8.85688L9.19233 8.88613L9.18699 8.91791V8.94984L9.195 8.98429L9.20569 9.01889L9.22693 9.05334L9.25337 9.08794L9.30652 9.13842L9.37023 9.17822L9.44462 9.21268L9.52436 9.24193L9.60931 9.26851L9.69692 9.29776L9.78467 9.32968L9.86961 9.36414L9.94935 9.40928L10.0236 9.46511L10.0901 9.53149L10.1458 9.61376L10.1883 9.71473L10.2149 9.83427L10.2256 9.97771L10.2149 10.1451L10.1963 10.2698L10.1644 10.3788L10.1219 10.4796L10.0687 10.5672L10.0077 10.6443L9.93866 10.7107L9.86427 10.7692L9.782 10.8197L9.69692 10.8595L9.60931 10.8941L9.51902 10.9205L9.42606 10.9417L9.33578 10.9578L9.24816 10.9657L9.16041 10.971L9.07814 10.9737H8.96395L8.85763 10.971H8.76467L8.67706 10.9683L8.59732 10.9657L8.52574 10.9604L8.46189 10.9551L8.40086 10.9471L8.34503 10.9417L8.29468 10.9312L8.24419 10.9232L8.19905 10.91L8.15377 10.8993L8.1113 10.8834L8.06882 10.8675L8.02368 10.8515L8.14322 10.2645L8.16713 10.2698L8.19638 10.2778L8.2335 10.2884L8.27865 10.2991L8.32646 10.3097L8.37962 10.3203L8.43798 10.3335L8.50183 10.3442L8.56821 10.3547L8.63726 10.3654L8.70898 10.3735L8.78337 10.3815L8.8603 10.384L8.93737 10.3867H9.01443L9.09136 10.384L9.16842 10.3681L9.22946 10.3469L9.27727 10.3176L9.31454 10.2805L9.34098 10.2432L9.36236 10.2008L9.37558 10.1583L9.38626 10.1185L9.39147 10.0414L9.3677 9.97504L9.32242 9.92188L9.25604 9.87674L9.17644 9.83694L9.08348 9.79714L8.97984 9.75988L8.87633 9.7174L8.77001 9.66959L8.66904 9.61376L8.57608 9.54471L8.49114 9.46244L8.42476 9.36147L8.37695 9.24193L8.35304 9.09848L8.35571 8.9286L8.36893 8.82495L8.38764 8.72665L8.41408 8.63637L8.446 8.55143L8.48847 8.47169L8.53628 8.40264L8.59212 8.33626L8.65849 8.2779L8.73556 8.22741L8.8205 8.18494L8.91613 8.145L9.02231 8.11589L9.14185 8.09198L9.27207 8.07328L9.41537 8.06273L9.57218 8.06006H9.67034L9.76077 8.06273L9.84303 8.0654L9.91743 8.06807L9.98381 8.07328L10.045 8.07862L10.098 8.08397L10.1458 8.08931L10.191 8.09465L10.2282 8.10253L10.2627 8.10787L10.2946 8.11322L10.3212 8.11842L10.3451 8.12109L10.369 8.12644L10.3902 8.12911L10.2547 8.72932Z" fill="white"/>
</g>
<g id="Group_18">
<path id="Vector_16" fill-rule="evenodd" clip-rule="evenodd" d="M10.2547 8.72932L10.2175 8.72665L10.1804 8.72131L10.1458 8.71611L10.1114 8.71076L10.0794 8.70542L10.045 8.70007L10.0104 8.69487L9.97326 8.68953L9.93599 8.68418L9.89352 8.68151L9.84571 8.67884L9.79522 8.67631H9.73939L9.67836 8.67884L9.60931 8.68418L9.53238 8.68953L9.47922 8.69754L9.42873 8.70542L9.38359 8.72131L9.34365 8.73734L9.30652 8.7559L9.27207 8.77714L9.24549 8.80372L9.22158 8.82763L9.20569 8.85688L9.19233 8.88613L9.18699 8.91791V8.94984L9.195 8.98429L9.20569 9.01889L9.22693 9.05334L9.25337 9.08794L9.30652 9.13842L9.37023 9.17822L9.44462 9.21268L9.52436 9.24193L9.60931 9.26851L9.69692 9.29776L9.78467 9.32968L9.86961 9.36414L9.94935 9.40928L10.0236 9.46511L10.0901 9.53149L10.1458 9.61376L10.1883 9.71473L10.2149 9.83427L10.2256 9.97771L10.2149 10.1451L10.1963 10.2698L10.1644 10.3788L10.1219 10.4796L10.0687 10.5672L10.0077 10.6443L9.93866 10.7107L9.86427 10.7692L9.782 10.8197L9.69692 10.8595L9.60931 10.8941L9.51902 10.9205L9.42606 10.9417L9.33578 10.9578L9.24816 10.9657L9.16041 10.971L9.07814 10.9737H8.96395L8.85763 10.971H8.76467L8.67706 10.9683L8.59732 10.9657L8.52574 10.9604L8.46189 10.9551L8.40086 10.9471L8.34503 10.9417L8.29468 10.9312L8.24419 10.9232L8.19905 10.91L8.15377 10.8993L8.1113 10.8834L8.06882 10.8675L8.02368 10.8515L8.14322 10.2645L8.16713 10.2698L8.19638 10.2778L8.2335 10.2884L8.27865 10.2991L8.32646 10.3097L8.37962 10.3203L8.43798 10.3335L8.50183 10.3442L8.56821 10.3547L8.63726 10.3654L8.70898 10.3735L8.78337 10.3815L8.8603 10.384L8.93737 10.3867H9.01443L9.09136 10.384L9.16842 10.3681L9.22946 10.3469L9.27727 10.3176L9.31454 10.2805L9.34098 10.2432L9.36236 10.2008L9.37558 10.1583L9.38626 10.1185L9.39147 10.0414L9.3677 9.97504L9.32242 9.92188L9.25604 9.87674L9.17644 9.83694L9.08348 9.79714L8.97984 9.75988L8.87633 9.7174L8.77001 9.66959L8.66904 9.61376L8.57608 9.54471L8.49114 9.46244L8.42476 9.36147L8.37695 9.24193L8.35304 9.09848L8.35571 8.9286L8.36893 8.82495L8.38764 8.72665L8.41408 8.63637L8.446 8.55143L8.48847 8.47169L8.53628 8.40264L8.59212 8.33626L8.65849 8.2779L8.73556 8.22741L8.8205 8.18494L8.91613 8.145L9.02231 8.11589L9.14185 8.09198L9.27207 8.07328L9.41537 8.06273L9.57218 8.06006H9.67034L9.76077 8.06273L9.84303 8.0654L9.91743 8.06807L9.98381 8.07328L10.045 8.07862L10.098 8.08397L10.1458 8.08931L10.191 8.09465L10.2282 8.10253L10.2627 8.10787L10.2946 8.11322L10.3212 8.11842L10.3451 8.12109L10.369 8.12644L10.3902 8.12911L10.2547 8.72932Z" stroke="white" stroke-width="0.0885981" stroke-miterlimit="2"/>
</g>
<g id="Group_19">
<path id="Vector_17" fill-rule="evenodd" clip-rule="evenodd" d="M10.8842 7.47266H11.62L11.5111 8.11548H11.9547L11.859 8.7157L11.3916 8.70234L11.1366 10.1845L11.1339 10.2376L11.1472 10.2828L11.1737 10.3172L11.2083 10.3465L11.2561 10.365L11.3092 10.3811L11.3677 10.3916L11.4314 10.397L11.4899 10.3943L11.5429 10.3889L11.5907 10.3811L11.6332 10.3704L11.6678 10.3597L11.6917 10.3518L11.7076 10.3465L11.7129 10.3438L11.62 10.8378L11.6014 10.8511L11.5828 10.8617L11.5643 10.8723L11.5456 10.883L11.527 10.891L11.5058 10.8989L11.4819 10.9069L11.458 10.9149L11.4314 10.9228L11.4048 10.9281L11.373 10.9335L11.3411 10.9387L11.3065 10.944L11.2667 10.9494L11.2242 10.9547L11.1791 10.96H10.9771L10.871 10.952L10.778 10.9413L10.6931 10.9254L10.6213 10.9069L10.5602 10.883L10.5098 10.8564L10.4645 10.8245L10.4301 10.79L10.4035 10.7528L10.3849 10.7078L10.3717 10.6625L10.3637 10.6121L10.361 10.5563V10.4978L10.369 10.4368L10.3769 10.3704L10.8842 7.47266Z" fill="white"/>
</g>
<g id="Group_20">
<path id="Vector_18" fill-rule="evenodd" clip-rule="evenodd" d="M10.8842 7.47266H11.62L11.5111 8.11548H11.9547L11.859 8.7157L11.3916 8.70234L11.1366 10.1845L11.1339 10.2376L11.1472 10.2828L11.1737 10.3172L11.2083 10.3465L11.2561 10.365L11.3092 10.3811L11.3677 10.3916L11.4314 10.397L11.4899 10.3943L11.5429 10.3889L11.5907 10.3811L11.6332 10.3704L11.6678 10.3597L11.6917 10.3518L11.7076 10.3465L11.7129 10.3438L11.62 10.8378L11.6014 10.8511L11.5828 10.8617L11.5643 10.8723L11.5456 10.883L11.527 10.891L11.5058 10.8989L11.4819 10.9069L11.458 10.9149L11.4314 10.9228L11.4048 10.9281L11.373 10.9335L11.3411 10.9387L11.3065 10.944L11.2667 10.9494L11.2242 10.9547L11.1791 10.96H10.9771L10.871 10.952L10.778 10.9413L10.6931 10.9254L10.6213 10.9069L10.5602 10.883L10.5098 10.8564L10.4645 10.8245L10.4301 10.79L10.4035 10.7528L10.3849 10.7078L10.3717 10.6625L10.3637 10.6121L10.361 10.5563V10.4978L10.369 10.4368L10.3769 10.3704L10.8842 7.47266Z" stroke="white" stroke-width="0.0885981" stroke-miterlimit="2"/>
</g>
<g id="Group_21">
<path id="Vector_19" fill-rule="evenodd" clip-rule="evenodd" d="M12.5416 9.7174L12.5337 9.76255L12.531 9.81036L12.5364 9.86085L12.5469 9.91134L12.5656 9.96168L12.5868 10.0095L12.616 10.06L12.6479 10.1051L12.685 10.1503L12.7249 10.1901L12.7674 10.23L12.8152 10.2618L12.863 10.291L12.9162 10.3149L12.9692 10.3335L13.0224 10.3442L13.0914 10.3547L13.1578 10.3628L13.2269 10.3708L13.2959 10.3761L13.365 10.3788H13.4367L13.5057 10.3761L13.5775 10.3708L13.6492 10.3601L13.7209 10.3469L13.7953 10.331L13.867 10.3071L13.9413 10.2778L14.0183 10.2459L14.0927 10.2034L14.1698 10.1583L14.0635 10.8117L14.021 10.8329L13.9785 10.8541L13.9361 10.8702L13.8963 10.8861L13.8563 10.8993L13.8139 10.9126L13.7714 10.9232L13.7262 10.9312L13.6784 10.9391L13.6253 10.9444L13.5696 10.9498L13.5084 10.9551L13.4394 10.9578H13.3676L13.2854 10.9604H13.1976L13.0675 10.9578L12.9348 10.9444L12.8019 10.9259L12.6691 10.8941L12.539 10.8541L12.4141 10.8036L12.2946 10.7373L12.1831 10.6602L12.0794 10.5699L11.9892 10.4611L11.9122 10.3389L11.8484 10.1981L11.8032 10.0414L11.774 9.86338L11.7661 9.66692L11.7795 9.44908L11.79 9.36414L11.8059 9.26584L11.8271 9.16233L11.8564 9.05081L11.8962 8.93648L11.944 8.82228L12.0052 8.70542L12.0794 8.5939L12.1645 8.48772L12.268 8.38675L12.3849 8.29646L12.5178 8.21672L12.6718 8.15034L12.8445 8.10253L13.0356 8.07075L13.2508 8.06006L13.3544 8.06273L13.4633 8.07328L13.5721 8.09198L13.6811 8.11842L13.7873 8.15836L13.8909 8.20618L13.9865 8.26988L14.0742 8.34428L14.1538 8.43456L14.2203 8.54074L14.2733 8.66295L14.3106 8.80372L14.3318 8.96306L14.3345 9.14377L14.3159 9.34557L14.276 9.56862L14.2627 9.73062H12.3265L12.4486 9.20747H13.612L13.6173 9.1411L13.6146 9.07725L13.6094 9.01889L13.5987 8.96573L13.5801 8.91524L13.5616 8.8701L13.535 8.8303L13.5084 8.79303L13.4766 8.76125L13.442 8.73467L13.4022 8.71076L13.3623 8.68953L13.3198 8.67364L13.2773 8.66295L13.2322 8.65507L13.1844 8.64973L13.1339 8.6524L13.0861 8.66028L13.0409 8.67096L12.9958 8.68685L12.9507 8.70809L12.9109 8.732L12.8709 8.76125L12.8365 8.79303L12.8019 8.8303L12.7701 8.8701L12.7408 8.91257L12.7169 8.95771L12.693 9.00553L12.6745 9.05869L12.6586 9.11184L12.6479 9.16753L12.5416 9.7174Z" fill="white"/>
</g>
<g id="Group_22">
<path id="Vector_20" fill-rule="evenodd" clip-rule="evenodd" d="M12.5416 9.7174L12.5337 9.76255L12.531 9.81036L12.5364 9.86085L12.5469 9.91134L12.5656 9.96168L12.5868 10.0095L12.616 10.06L12.6479 10.1051L12.685 10.1503L12.7249 10.1901L12.7674 10.23L12.8152 10.2618L12.863 10.291L12.9162 10.3149L12.9692 10.3335L13.0224 10.3442L13.0914 10.3547L13.1578 10.3628L13.2269 10.3708L13.2959 10.3761L13.365 10.3788H13.4367L13.5057 10.3761L13.5775 10.3708L13.6492 10.3601L13.7209 10.3469L13.7953 10.331L13.867 10.3071L13.9413 10.2778L14.0183 10.2459L14.0927 10.2034L14.1698 10.1583L14.0635 10.8117L14.021 10.8329L13.9785 10.8541L13.9361 10.8702L13.8963 10.8861L13.8563 10.8993L13.8139 10.9126L13.7714 10.9232L13.7262 10.9312L13.6784 10.9391L13.6253 10.9444L13.5696 10.9498L13.5084 10.9551L13.4394 10.9578H13.3676L13.2854 10.9605H13.1976L13.0675 10.9578L12.9348 10.9444L12.8019 10.9259L12.6691 10.8941L12.539 10.8541L12.4141 10.8036L12.2946 10.7373L12.1831 10.6602L12.0794 10.5699L11.9892 10.4611L11.9122 10.3389L11.8484 10.1981L11.8032 10.0414L11.774 9.86338L11.7661 9.66692L11.7795 9.44908L11.79 9.36414L11.8059 9.26584L11.8271 9.16233L11.8564 9.05081L11.8962 8.93648L11.944 8.82228L12.0052 8.70542L12.0794 8.5939L12.1645 8.48772L12.268 8.38675L12.3849 8.29646L12.5178 8.21672L12.6718 8.15034L12.8445 8.10253L13.0356 8.07075L13.2508 8.06006L13.3544 8.06273L13.4633 8.07328L13.5721 8.09198L13.6811 8.11842L13.7873 8.15836L13.8909 8.20618L13.9865 8.26988L14.0742 8.34428L14.1538 8.43456L14.2203 8.54074L14.2733 8.66295L14.3106 8.80372L14.3318 8.96306L14.3345 9.14377L14.3159 9.34557L14.276 9.56862L14.2627 9.73062H12.3265L12.4486 9.20747H13.612L13.6173 9.1411L13.6146 9.07725L13.6094 9.01889L13.5987 8.96573L13.5801 8.91524L13.5616 8.8701L13.535 8.8303L13.5084 8.79303L13.4766 8.76125L13.442 8.73467L13.4022 8.71076L13.3623 8.68953L13.3198 8.67364L13.2773 8.66295L13.2322 8.65507L13.1844 8.64973L13.1339 8.6524L13.0861 8.66028L13.0409 8.67096L12.9958 8.68685L12.9507 8.70809L12.9109 8.732L12.8709 8.76125L12.8365 8.79303L12.8019 8.8303L12.7701 8.8701L12.7408 8.91257L12.7169 8.95771L12.693 9.00553L12.6745 9.05869L12.6586 9.11184L12.6479 9.16753L12.5416 9.7174Z" stroke="white" stroke-width="0.0885981" stroke-miterlimit="2"/>
</g>
<g id="Group_23">
<path id="Vector_21" fill-rule="evenodd" clip-rule="evenodd" d="M18.8761 8.27522L18.8417 8.25665L18.8071 8.24062L18.7699 8.22206L18.73 8.20349L18.6902 8.18746L18.6451 8.17157L18.5999 8.15568L18.5521 8.13965L18.5016 8.12643L18.4511 8.11588L18.3954 8.10519L18.3396 8.09718L18.2786 8.09197L18.2174 8.08663H18.1537H18.0873H18.0209L17.9519 8.09197L17.8802 8.09985L17.8058 8.11321L17.7314 8.13444L17.657 8.1637L17.5827 8.20082L17.5083 8.24864L17.4366 8.307L17.3676 8.37605L17.3012 8.46113L17.2373 8.55943L17.179 8.6763L17.1231 8.80905L17.0727 8.9577L17.0302 9.12773L17.0143 9.22336L17.0036 9.31631L16.9984 9.40927L17.0011 9.49956L17.009 9.58984L17.0275 9.67493L17.0514 9.75452L17.0807 9.83426L17.1205 9.90598L17.1683 9.97503L17.2241 10.0361L17.2878 10.0919L17.3596 10.1397L17.442 10.1795L17.5322 10.2141L17.6331 10.238L17.6677 10.2459L17.7075 10.2539L17.7553 10.2593L17.8084 10.2645L17.8668 10.2698H17.9944L18.0607 10.2645L18.1298 10.2566L18.1988 10.2432L18.2652 10.2247L18.3317 10.2034L18.3981 10.1742L18.4592 10.1397L18.515 10.0972L18.568 10.0494L18.4485 10.7585L18.4326 10.7719L18.4167 10.7877L18.3954 10.8063L18.3715 10.8223L18.3423 10.8436L18.305 10.8621L18.2625 10.8807L18.2147 10.8966L18.1537 10.9153L18.0846 10.9285L18.005 10.9391L17.9121 10.9498L17.8084 10.9551L17.6889 10.9578L17.5535 10.9551L17.4047 10.9471L17.2825 10.9339L17.1603 10.9073L17.0382 10.8675L16.916 10.8143L16.7991 10.7506L16.6876 10.6709L16.5813 10.5779L16.4831 10.4716L16.3954 10.3522L16.321 10.2193L16.2573 10.0707L16.2095 9.90866L16.1777 9.73062L16.167 9.54203L16.1723 9.33488L16.2016 9.11451L16.2228 9.00552L16.2467 8.89934L16.2733 8.79569L16.2997 8.69753L16.329 8.60458L16.3636 8.51162L16.398 8.42386L16.4353 8.34159L16.4751 8.25918L16.5149 8.18226L16.5601 8.10786L16.6079 8.03881L16.6557 7.97244L16.7088 7.90859L16.762 7.85023L16.8177 7.7944L16.8789 7.74138L16.9399 7.69089L17.0036 7.64575L17.07 7.60328L17.1417 7.56334L17.2134 7.52888L17.2878 7.49696L17.3649 7.46771L17.4472 7.44113L17.5296 7.41989L17.6145 7.40133L17.7048 7.38544L17.7951 7.37208L17.8907 7.36153L17.9863 7.35619L18.0873 7.35352L18.1723 7.35619L18.2547 7.36153L18.3343 7.36941L18.414 7.3801L18.4884 7.39078L18.5601 7.40667L18.6292 7.41989L18.6929 7.43593L18.7539 7.45182L18.8071 7.46771L18.8576 7.4836L18.9 7.49963L18.9372 7.51285L18.9691 7.52354L18.993 7.53409L19.0089 7.53943L18.8761 8.27522Z" fill="white"/>
</g>
<g id="Group_24">
<path id="Vector_22" fill-rule="evenodd" clip-rule="evenodd" d="M18.8761 8.27522L18.8417 8.25665L18.8071 8.24062L18.7699 8.22206L18.73 8.20349L18.6902 8.18746L18.6451 8.17157L18.5999 8.15568L18.5521 8.13965L18.5016 8.12643L18.4511 8.11588L18.3954 8.10519L18.3396 8.09718L18.2786 8.09197L18.2174 8.08663H18.1537H18.0873H18.0209L17.9519 8.09197L17.8802 8.09985L17.8058 8.11321L17.7314 8.13444L17.657 8.1637L17.5827 8.20082L17.5083 8.24864L17.4366 8.307L17.3676 8.37605L17.3012 8.46113L17.2373 8.55943L17.179 8.6763L17.1231 8.80905L17.0727 8.9577L17.0302 9.12773L17.0143 9.22336L17.0036 9.31631L16.9984 9.40927L17.0011 9.49956L17.009 9.58984L17.0275 9.67493L17.0514 9.75452L17.0807 9.83426L17.1205 9.90598L17.1683 9.97503L17.2241 10.0361L17.2878 10.0919L17.3596 10.1397L17.442 10.1795L17.5322 10.2141L17.6331 10.238L17.6677 10.2459L17.7075 10.2539L17.7553 10.2593L17.8084 10.2645L17.8668 10.2698H17.9944L18.0607 10.2645L18.1298 10.2566L18.1988 10.2432L18.2652 10.2247L18.3317 10.2034L18.3981 10.1742L18.4592 10.1397L18.515 10.0972L18.568 10.0494L18.4485 10.7585L18.4326 10.7719L18.4167 10.7877L18.3954 10.8063L18.3715 10.8223L18.3423 10.8436L18.305 10.8621L18.2625 10.8807L18.2147 10.8966L18.1537 10.9153L18.0846 10.9285L18.005 10.9391L17.9121 10.9498L17.8084 10.9551L17.6889 10.9578L17.5535 10.9551L17.4047 10.9471L17.2825 10.9339L17.1603 10.9073L17.0382 10.8675L16.916 10.8143L16.7991 10.7506L16.6876 10.6709L16.5813 10.5779L16.4831 10.4716L16.3954 10.3522L16.321 10.2193L16.2573 10.0707L16.2095 9.90866L16.1777 9.73062L16.167 9.54203L16.1723 9.33488L16.2016 9.11451L16.2228 9.00552L16.2467 8.89934L16.2733 8.79569L16.2997 8.69753L16.329 8.60458L16.3636 8.51162L16.398 8.42386L16.4353 8.34159L16.4751 8.25918L16.5149 8.18226L16.5601 8.10786L16.6079 8.03881L16.6557 7.97244L16.7088 7.90859L16.762 7.85023L16.8177 7.7944L16.8789 7.74138L16.9399 7.69089L17.0036 7.64575L17.07 7.60328L17.1417 7.56334L17.2134 7.52888L17.2878 7.49696L17.3649 7.46771L17.4472 7.44113L17.5296 7.41989L17.6145 7.40133L17.7048 7.38544L17.7951 7.37208L17.8907 7.36153L17.9863 7.35619L18.0873 7.35352L18.1723 7.35619L18.2547 7.36153L18.3343 7.36941L18.414 7.3801L18.4884 7.39078L18.5601 7.40667L18.6292 7.41989L18.6929 7.43593L18.7539 7.45182L18.8071 7.46771L18.8576 7.4836L18.9 7.49963L18.9372 7.51285L18.9691 7.52354L18.993 7.53409L19.0089 7.53943L18.8761 8.27522Z" stroke="white" stroke-width="0.0885981" stroke-miterlimit="2"/>
</g>
<g id="Group_25">
<path id="Vector_23" fill-rule="evenodd" clip-rule="evenodd" d="M25.4153 10.9604H24.6796L24.7326 10.6655V10.6389L24.6902 10.692L24.645 10.7398L24.5999 10.7823L24.5521 10.8196L24.5042 10.854L24.4564 10.8833L24.4086 10.9072L24.3581 10.9311L24.3076 10.9497L24.2573 10.963L24.2068 10.9762L24.1537 10.9843L24.1005 10.9921L24.05 10.9975L23.997 11.0002H23.9438L23.8057 10.9895L23.6783 10.9604L23.5613 10.9152L23.4551 10.854L23.3595 10.7771L23.2746 10.6867L23.2002 10.5884L23.1365 10.4769L23.0833 10.3573L23.0408 10.2326L23.0116 10.1024L22.9903 9.96693L22.9823 9.8315L22.985 9.6934L22.9982 9.55798L23.0223 9.42241L23.0621 9.26574L23.1099 9.11695L23.1656 8.98153L23.232 8.85411L23.3011 8.73458L23.3807 8.62826L23.4632 8.53277L23.5508 8.44502L23.6437 8.36809L23.742 8.30157L23.843 8.24321L23.9438 8.19807L24.05 8.16094L24.1563 8.13703L24.2625 8.121L24.3715 8.1158L24.4484 8.11833L24.5228 8.12634L24.5919 8.13956L24.6557 8.15827L24.7167 8.1795L24.7699 8.20341L24.8229 8.23266L24.8707 8.26177L24.9133 8.2937L24.9531 8.32829L24.9876 8.36275L25.0195 8.39734L25.0461 8.4318L25.07 8.46625L25.0912 8.49817L25.1071 8.5301L25.2931 7.48633H26.0155L25.4153 10.9604Z" fill="white"/>
</g>
<g id="Group_26">
<path id="Vector_24" fill-rule="evenodd" clip-rule="evenodd" d="M25.4153 10.9604H24.6796L24.7326 10.6655V10.6389L24.6902 10.692L24.645 10.7398L24.5999 10.7823L24.5521 10.8196L24.5042 10.854L24.4564 10.8833L24.4086 10.9072L24.3581 10.9311L24.3076 10.9497L24.2573 10.963L24.2068 10.9762L24.1537 10.9843L24.1005 10.9921L24.05 10.9975L23.997 11.0002H23.9438L23.8057 10.9895L23.6783 10.9604L23.5613 10.9152L23.4551 10.854L23.3595 10.7771L23.2746 10.6867L23.2002 10.5884L23.1365 10.4769L23.0833 10.3573L23.0408 10.2326L23.0116 10.1024L22.9903 9.96693L22.9823 9.8315L22.985 9.6934L22.9982 9.55798L23.0223 9.42241L23.0621 9.26574L23.1099 9.11695L23.1656 8.98153L23.232 8.85411L23.3011 8.73458L23.3807 8.62826L23.4632 8.53277L23.5508 8.44502L23.6437 8.36809L23.742 8.30157L23.843 8.24321L23.9438 8.19807L24.05 8.16094L24.1563 8.13703L24.2625 8.121L24.3715 8.1158L24.4484 8.11833L24.5228 8.12634L24.5919 8.13956L24.6557 8.15827L24.7167 8.1795L24.7699 8.20341L24.8229 8.23266L24.8707 8.26177L24.9133 8.2937L24.9531 8.32829L24.9876 8.36275L25.0195 8.39734L25.0461 8.4318L25.07 8.46625L25.0912 8.49817L25.1071 8.5301L25.2931 7.48633H26.0155L25.4153 10.9604Z" stroke="white" stroke-width="0.0885981" stroke-miterlimit="2"/>
</g>
<g id="Group_27">
<path id="Vector_25" fill-rule="evenodd" clip-rule="evenodd" d="M24.2121 10.3176L24.2865 10.3122L24.3554 10.2963L24.4193 10.2778L24.4803 10.2485L24.5361 10.2167L24.5893 10.1768L24.6396 10.1317L24.6848 10.0838L24.7246 10.0307L24.7618 9.97232L24.7963 9.91129L24.8256 9.84744L24.8521 9.78107L24.8734 9.71202L24.8919 9.64029L24.9053 9.56857L24.9185 9.49418L24.9265 9.41725V9.34553L24.9239 9.27113L24.916 9.20208L24.9053 9.13571L24.8867 9.072L24.8655 9.01083L24.8389 8.95767L24.807 8.90732L24.7725 8.86471L24.7326 8.82758L24.6875 8.79566L24.6396 8.77442L24.5893 8.7612L24.5335 8.75586L24.4617 8.7612L24.3954 8.77175L24.3342 8.79299L24.2732 8.81971L24.22 8.85416L24.167 8.89663L24.1217 8.94177L24.0766 8.99226L24.0368 9.05076L23.9996 9.1118L23.965 9.1755L23.9358 9.24455L23.9092 9.31628L23.888 9.388L23.8667 9.46507L23.8508 9.54199L23.8376 9.65886L23.843 9.78641L23.8615 9.91649L23.896 10.0414L23.9491 10.1502L24.0182 10.238L24.1058 10.2963L24.2121 10.3176Z" fill="#FCB330"/>
</g>
<g id="Group_28">
<path id="Vector_26" fill-rule="evenodd" clip-rule="evenodd" d="M7.9015 10.3705L7.79533 10.9602H7.12592L7.14462 10.8512L7.15784 10.7529L7.16853 10.6787L7.17908 10.6387L7.14195 10.6812L7.09948 10.7238L7.04899 10.7636L6.9933 10.8009L6.92946 10.838L6.86308 10.8699L6.79403 10.9017L6.72231 10.9283L6.64524 10.9522L6.56831 10.9708L6.49125 10.9866L6.41151 10.9973L6.33444 11.0027L6.25752 11.0054L6.18312 10.9973L6.1114 10.9866L6.01844 10.9629L5.9335 10.9363L5.85911 10.9017L5.79273 10.8619L5.73423 10.8194L5.68107 10.7716L5.6386 10.7211L5.60147 10.668L5.56955 10.6123L5.54297 10.5538L5.52173 10.4954L5.50584 10.4369L5.49515 10.3759L5.48728 10.3147L5.48193 10.2563V10.1978L5.48995 10.0943L5.50584 9.99604L5.53242 9.90308L5.56688 9.81279L5.60935 9.72785L5.6573 9.65079L5.71299 9.57639L5.77684 9.51001L5.84322 9.44884L5.91761 9.39315L5.99454 9.34266L6.07428 9.30019L6.15922 9.26292L6.24697 9.23381L6.33712 9.20976L6.43007 9.19387H6.43542L6.44864 9.1912L6.46734 9.18853L6.49659 9.186L6.52838 9.18066L6.56564 9.17798L6.60544 9.17264L6.65058 9.16729L6.69573 9.16209L6.74087 9.15675L6.78868 9.15408L6.83116 9.14873L6.87363 9.14606L6.91357 9.14353L6.95069 9.14086H7.04098L7.10483 9.14353L7.16319 9.14606H7.22169L7.26936 9.14873L7.30663 9.1514L7.33321 9.15408H7.34109L7.34643 9.13551L7.36232 9.0877L7.37568 9.03187L7.38103 8.98138L7.37034 8.92302L7.34643 8.86986L7.31465 8.82204L7.27204 8.78225L7.22169 8.74779L7.16586 8.72388L7.10201 8.70785L7.03296 8.70251L6.95871 8.69983L6.87897 8.6973H6.7967L6.71162 8.69983L6.624 8.70518L6.53906 8.71319L6.45398 8.72107L6.37171 8.73176L6.29197 8.74245L6.21491 8.75567L6.146 8.76903L6.08229 8.78225L6.02379 8.79814L5.97597 8.81417L5.93871 8.83273L5.9096 8.84862L6.09818 8.20847L6.15654 8.1847L6.21491 8.16346L6.27875 8.14476L6.34246 8.13154L6.40617 8.11818L6.47536 8.10763L6.54427 8.09695L6.61599 8.09174L6.69038 8.0864L6.76745 8.08373L6.84705 8.08105H7.10201L7.19497 8.08373L7.28793 8.0864L7.36232 8.09174L7.44206 8.10496L7.52433 8.12352L7.60941 8.14743L7.69168 8.17936L7.77142 8.21648L7.85102 8.26163L7.92541 8.31211L7.99179 8.37062L8.05029 8.43432L8.10345 8.50604L8.14325 8.58564L8.16983 8.67072L8.18572 8.76101V8.86198L8.16983 8.96816L7.9015 10.3705Z" fill="white"/>
</g>
<g id="Group_29">
<path id="Vector_27" fill-rule="evenodd" clip-rule="evenodd" d="M7.9015 10.3705L7.79533 10.9602H7.12592L7.14462 10.8512L7.15784 10.7529L7.16853 10.6787L7.17908 10.6387L7.14195 10.6812L7.09948 10.7238L7.04899 10.7636L6.9933 10.8009L6.92946 10.838L6.86308 10.8699L6.79403 10.9017L6.72231 10.9283L6.64524 10.9522L6.56831 10.9708L6.49125 10.9866L6.41151 10.9973L6.33444 11.0027L6.25752 11.0054L6.18312 10.9973L6.1114 10.9866L6.01844 10.9629L5.9335 10.9363L5.85911 10.9017L5.79273 10.8619L5.73423 10.8194L5.68107 10.7716L5.6386 10.7211L5.60147 10.668L5.56955 10.6123L5.54297 10.5538L5.52173 10.4954L5.50584 10.4369L5.49515 10.3759L5.48728 10.3147L5.48193 10.2563V10.1978L5.48995 10.0943L5.50584 9.99604L5.53242 9.90308L5.56688 9.81279L5.60935 9.72785L5.6573 9.65079L5.71299 9.57639L5.77684 9.51001L5.84322 9.44884L5.91761 9.39315L5.99454 9.34266L6.07428 9.30019L6.15922 9.26292L6.24697 9.23381L6.33712 9.20976L6.43007 9.19387H6.43542L6.44864 9.1912L6.46734 9.18853L6.49659 9.186L6.52838 9.18066L6.56564 9.17798L6.60544 9.17264L6.65058 9.16729L6.69573 9.16209L6.74087 9.15675L6.78868 9.15408L6.83116 9.14873L6.87363 9.14606L6.91357 9.14353L6.95069 9.14086H7.04098L7.10482 9.14353L7.16319 9.14606H7.22169L7.26936 9.14873L7.30663 9.1514L7.33321 9.15408H7.34109L7.34643 9.13551L7.36232 9.0877L7.37568 9.03187L7.38103 8.98138L7.37034 8.92302L7.34643 8.86986L7.31465 8.82204L7.27204 8.78225L7.22169 8.74779L7.16586 8.72388L7.10201 8.70785L7.03296 8.70251L6.95871 8.69983L6.87897 8.6973H6.7967L6.71162 8.69983L6.624 8.70518L6.53906 8.71319L6.45398 8.72107L6.37171 8.73176L6.29197 8.74245L6.21491 8.75567L6.146 8.76903L6.08229 8.78225L6.02379 8.79814L5.97597 8.81417L5.93871 8.83273L5.9096 8.84862L6.09818 8.20847L6.15654 8.1847L6.21491 8.16346L6.27875 8.14476L6.34246 8.13154L6.40617 8.11818L6.47536 8.10763L6.54427 8.09695L6.61599 8.09174L6.69038 8.0864L6.76745 8.08373L6.84705 8.08105H7.10201L7.19497 8.08373L7.28793 8.0864L7.36232 8.09174L7.44206 8.10496L7.52433 8.12352L7.60941 8.14743L7.69168 8.17936L7.77142 8.21648L7.85102 8.26163L7.92541 8.31211L7.99179 8.37062L8.05029 8.43432L8.10345 8.50604L8.14325 8.58564L8.16983 8.67072L8.18572 8.76101V8.86198L8.16983 8.96816L7.9015 10.3705Z" stroke="white" stroke-width="0.0885981" stroke-miterlimit="2"/>
</g>
<g id="Group_30">
<path id="Vector_28" fill-rule="evenodd" clip-rule="evenodd" d="M7.2615 9.67721L7.25883 9.66385L7.24814 9.65063L7.23225 9.64261L7.20567 9.63727L7.17642 9.63207L7.14196 9.62939H7.10202H7.06222L7.01975 9.63207L6.97461 9.63727L6.93214 9.64261L6.88967 9.64796L6.84973 9.6533L6.8126 9.66118L6.78068 9.66919L6.75157 9.67721L6.73286 9.68241L6.71163 9.69043L6.68238 9.70098L6.65327 9.71434L6.61867 9.73023L6.58421 9.74893L6.54695 9.7675L6.51249 9.78873L6.47537 9.81531L6.44077 9.84175L6.40885 9.87367L6.3796 9.9056L6.35316 9.94005L6.33445 9.97732L6.31856 10.0198L6.31069 10.0623L6.30801 10.1525L6.32123 10.2243L6.34781 10.2774L6.38227 10.3172L6.42221 10.3438L6.46735 10.3597L6.50982 10.3677L6.55229 10.3704L6.63203 10.3677L6.70361 10.3597L6.7728 10.3491L6.83384 10.3331L6.887 10.3146L6.93748 10.2906L6.98262 10.2667L7.02242 10.2376L7.05702 10.211L7.0888 10.1791L7.11538 10.1499L7.13662 10.1181L7.15518 10.0862L7.17121 10.0544L7.18443 10.0251L7.19245 9.99588L7.21368 9.91882L7.23225 9.8312L7.24814 9.74626L7.2615 9.67721Z" fill="#ED1B2D"/>
</g>
<g id="Group_31">
<path id="Vector_29" fill-rule="evenodd" clip-rule="evenodd" d="M2.3134 10.96H1.59097L2.19386 7.47266H3.45013L3.56966 9.54163L4.4382 7.47266H5.7503L5.13405 10.96H4.41162L4.8684 8.35442H4.83929L3.75825 10.96H2.94287L2.93752 10.8511L2.91896 10.5616L2.89505 10.1499L2.86847 9.6772L2.84189 9.20172L2.81799 8.78475L2.79942 8.48197L2.79408 8.35442H2.78606H2.77017H2.75428L2.3134 10.96Z" fill="white"/>
</g>
<g id="Group_32">
<path id="Vector_30" fill-rule="evenodd" clip-rule="evenodd" d="M2.3134 10.96H1.59097L2.19386 7.47266H3.45013L3.56966 9.54163L4.4382 7.47266H5.7503L5.13405 10.96H4.41162L4.8684 8.35442H4.83929L3.75825 10.96H2.94287L2.93752 10.8511L2.91896 10.5616L2.89505 10.1499L2.86847 9.6772L2.84189 9.20172L2.81799 8.78475L2.79942 8.48197L2.79408 8.35442H2.78606H2.77017H2.75428L2.3134 10.96Z" stroke="white" stroke-width="0.0885981" stroke-miterlimit="2"/>
</g>
<g id="Group_33">
<path id="Vector_31" fill-rule="evenodd" clip-rule="evenodd" d="M21.0834 10.3705L20.9746 10.9602H20.3078L20.3132 10.8512L20.3158 10.7556V10.6839L20.321 10.6521L20.2866 10.6919L20.2467 10.7317L20.199 10.769L20.1458 10.8061L20.09 10.8407L20.0263 10.8725L19.9599 10.9044L19.8935 10.931L19.8218 10.9522L19.7474 10.9734L19.673 10.9866L19.5986 10.9973L19.5216 11.0027L19.4473 11.0054L19.3756 10.9973L19.3039 10.9866L19.2082 10.9629L19.1231 10.9363L19.0489 10.9017L18.9798 10.8619L18.9213 10.8194L18.8709 10.7716L18.8284 10.7211L18.7913 10.668L18.7593 10.6123L18.7354 10.5538L18.7142 10.4954L18.701 10.4369L18.6903 10.3759L18.6823 10.3147L18.6771 10.2563V10.1978L18.6823 10.0943L18.6983 9.99604L18.7222 9.90308L18.7567 9.81279L18.7965 9.72785L18.8469 9.65079L18.9028 9.57639L18.9638 9.51001L19.0329 9.44884L19.1046 9.39315L19.1816 9.34266L19.2641 9.30019L19.3463 9.26292L19.4339 9.23381L19.5216 9.20976L19.612 9.19387H19.6172L19.6305 9.1912L19.6491 9.18853L19.6757 9.186L19.7101 9.18066L19.7474 9.17798L19.7872 9.17264L19.8297 9.16729L19.875 9.16209L19.9226 9.15675L19.9679 9.15408L20.0129 9.14873L20.0555 9.14606L20.0927 9.14353L20.1298 9.14086H20.2229L20.2866 9.14353L20.3476 9.14606H20.4061L20.4565 9.14873L20.4991 9.1514L20.523 9.15408H20.5335L20.5389 9.13551L20.5469 9.0877L20.5548 9.03187L20.5601 8.98138L20.5496 8.92302L20.5283 8.86986L20.4937 8.82204L20.4539 8.78225L20.4061 8.74779L20.3503 8.72388L20.2918 8.70785L20.2281 8.70251L20.1537 8.69983L20.0741 8.6973H19.9917L19.9067 8.69983L19.8191 8.70518L19.7341 8.71319L19.6491 8.72107L19.5668 8.73176L19.4871 8.74245L19.41 8.75567L19.341 8.76903L19.2773 8.78225L19.2188 8.79814L19.1711 8.81417L19.1338 8.83273L19.1046 8.84862L19.2905 8.20847L19.349 8.1847L19.41 8.16346L19.4712 8.14476L19.5349 8.13154L19.6013 8.11818L19.6677 8.10763L19.7367 8.09695L19.8084 8.09174L19.8828 8.0864L19.9599 8.08373L20.0368 8.08105H20.2866L20.3769 8.08373L20.4672 8.0864L20.5416 8.09174L20.6212 8.10496L20.7036 8.12352L20.7885 8.14743L20.8709 8.17936L20.9532 8.21648L21.0329 8.26163L21.1072 8.31211L21.1737 8.37062L21.2347 8.43432L21.2879 8.50604L21.3277 8.58564L21.3569 8.67072L21.3755 8.76101V8.86198L21.3623 8.96816L21.0834 10.3705Z" fill="white"/>
</g>
<g id="Group_34">
<path id="Vector_32" fill-rule="evenodd" clip-rule="evenodd" d="M20.9903 10.9632L21.0991 10.3735L21.0672 10.3682L20.9583 10.9578L20.9744 10.9418V10.9791L20.9876 10.9764L20.9903 10.9632Z" fill="white"/>
</g>
<g id="Group_35">
<path id="Vector_33" fill-rule="evenodd" clip-rule="evenodd" d="M20.3078 10.9787H20.9745V10.9414H20.3078L20.3237 10.9601H20.2917L20.2892 10.9787H20.3078Z" fill="white"/>
</g>
<g id="Group_36">
<path id="Vector_34" fill-rule="evenodd" clip-rule="evenodd" d="M20.3344 10.6628L20.3105 10.6416L20.2998 10.6841L20.2971 10.7558V10.8514L20.2918 10.9604H20.3237L20.329 10.8514L20.3344 10.7558L20.3317 10.6841V10.6628L20.3078 10.6416L20.3344 10.6628Z" fill="white"/>
</g>
<g id="Group_37">
<path id="Vector_35" fill-rule="evenodd" clip-rule="evenodd" d="M19.3012 11.0029L19.3756 11.0134L19.4473 11.0214L19.5215 11.0188L19.5986 11.0134L19.6757 11.0029L19.7501 10.9895L19.8245 10.9683L19.8987 10.9471L19.9651 10.9205L20.0341 10.8887L20.098 10.8568L20.1537 10.8196L20.2095 10.7824L20.2573 10.7452L20.2998 10.7028L20.3344 10.6628L20.3078 10.6416L20.2732 10.6814L20.2361 10.7187L20.1883 10.7558L20.1378 10.7931L20.0821 10.8248L20.0183 10.8568L19.9546 10.8887L19.8882 10.9153L19.8191 10.9365L19.7447 10.9577L19.6703 10.971L19.5986 10.9817L19.5215 10.9869L19.4473 10.9895L19.3756 10.9817L19.3065 10.971L19.3012 11.0029Z" fill="white"/>
</g>
<g id="Group_38">
<path id="Vector_36" fill-rule="evenodd" clip-rule="evenodd" d="M18.6584 10.1978L18.6609 10.2563L18.6663 10.3146L18.6743 10.3785L18.6849 10.4395L18.6982 10.4979L18.7195 10.559L18.7434 10.6201L18.7778 10.6759L18.8151 10.7316L18.8576 10.7821L18.9107 10.8326L18.9717 10.875L19.0408 10.9175L19.1179 10.9521L19.2055 10.9787L19.3011 11.0026L19.3064 10.9707L19.2108 10.9468L19.1284 10.9202L19.0567 10.8857L18.9876 10.8485L18.9319 10.806L18.8841 10.7608L18.8417 10.7104L18.8044 10.6599L18.7751 10.6042L18.7514 10.5483L18.73 10.4927L18.7168 10.4342L18.7061 10.3731L18.6982 10.3146L18.6929 10.2563L18.6955 10.1978H18.6584Z" fill="white"/>
</g>
<g id="Group_39">
<path id="Vector_37" fill-rule="evenodd" clip-rule="evenodd" d="M19.6119 9.17773L19.5189 9.19363L19.4285 9.21753L19.3409 9.24679L19.256 9.28391L19.1736 9.32652L19.094 9.37954L19.0222 9.43537L18.9532 9.49908L18.8895 9.56546L18.8336 9.63985L18.7805 9.71959L18.7407 9.8072L18.7061 9.89749L18.6822 9.99312L18.6663 10.0941L18.6584 10.1976H18.6955L18.6982 10.0941L18.7141 9.99846L18.738 9.90818L18.7726 9.81789L18.8124 9.73548L18.8602 9.66109L18.9159 9.58669L18.9744 9.52031L19.0435 9.46195L19.1152 9.40612L19.1896 9.35831L19.2719 9.31584L19.3516 9.27871L19.4392 9.24946L19.5241 9.22555L19.6119 9.20952V9.17773Z" fill="white"/>
</g>
<g id="Group_40">
<path id="Vector_38" fill-rule="evenodd" clip-rule="evenodd" d="M20.159 9.12207H20.1297L20.0926 9.12741L20.0555 9.13009L20.0129 9.13276L19.9679 9.1381L19.9226 9.14077L19.8749 9.14598L19.8296 9.15132L19.7872 9.15666L19.7474 9.16201L19.7101 9.16468L19.6756 9.16988L19.6491 9.17256L19.6278 9.17523L19.6171 9.1779H19.6119V9.20968H19.6171L19.6332 9.20715L19.6491 9.20448L19.6756 9.20181L19.7101 9.19646L19.7474 9.19379L19.7872 9.18845L19.8296 9.18324L19.8749 9.1779L19.9226 9.17256L19.9679 9.16988L20.0129 9.16468L20.0555 9.16201L20.0926 9.15934H20.159V9.12207Z" fill="white"/>
</g>
<g id="Group_41">
<path id="Vector_39" fill-rule="evenodd" clip-rule="evenodd" d="M20.5176 9.15132L20.5335 9.1381H20.523L20.4991 9.13543L20.4565 9.13276L20.4061 9.12741H20.3476H20.2866L20.2229 9.12207H20.159V9.15934H20.2866L20.3476 9.16468H20.4565L20.4991 9.16721L20.523 9.16988H20.5335L20.5469 9.17256L20.5496 9.15666L20.5176 9.15132Z" fill="white"/>
</g>
<g id="Group_42">
<path id="Vector_40" fill-rule="evenodd" clip-rule="evenodd" d="M20.5442 8.98096H20.5415L20.5389 9.03144L20.5309 9.0846L20.523 9.13242L20.5176 9.15098L20.5496 9.15632L20.5548 9.13776L20.5628 9.08995L20.5708 9.03144L20.5787 8.98096H20.576H20.5442Z" fill="white"/>
</g>
<g id="Group_43">
<path id="Vector_41" fill-rule="evenodd" clip-rule="evenodd" d="M20.2281 8.71868V8.72121L20.2892 8.72402L20.3449 8.73991L20.3981 8.76382L20.4432 8.7956L20.4804 8.83287L20.5123 8.87801L20.5335 8.92583L20.5442 8.98152H20.576L20.5654 8.92048L20.5442 8.86212L20.5069 8.81164L20.4645 8.76916L20.4141 8.7319L20.3556 8.70799L20.2946 8.6921L20.2281 8.68408V8.71868Z" fill="white"/>
</g>
<g id="Group_44">
<path id="Vector_42" fill-rule="evenodd" clip-rule="evenodd" d="M19.0886 8.84606L19.1152 8.86209L19.1418 8.84873L19.1762 8.83017L19.2214 8.81428L19.2799 8.79825L19.3436 8.78503L19.4126 8.77167L19.4897 8.75845L19.5668 8.7479L19.649 8.73721L19.734 8.7292L19.8191 8.72118L19.9067 8.71598H20.1536L20.228 8.71865V8.68673L20.1536 8.68405L20.074 8.67871H19.9916L19.9067 8.68405L19.8191 8.6894L19.734 8.69741L19.649 8.70529L19.5668 8.71598L19.4844 8.72653L19.4073 8.73989L19.3382 8.75311L19.2745 8.76646L19.2162 8.78236L19.1657 8.79825L19.1257 8.81695L19.094 8.83552L19.1205 8.85141L19.0886 8.84606Z" fill="white"/>
</g>
<g id="Group_45">
<path id="Vector_43" fill-rule="evenodd" clip-rule="evenodd" d="M19.2745 8.20574L19.0886 8.84576L19.1205 8.8511L19.3065 8.21095L19.2958 8.22431L19.2852 8.19238L19.2772 8.19505L19.2745 8.20574Z" fill="white"/>
</g>
<g id="Group_46">
<path id="Vector_44" fill-rule="evenodd" clip-rule="evenodd" d="M20.4671 8.07052L20.3769 8.06517L20.2866 8.0625H20.2016H20.1192H20.0368L19.9599 8.06784L19.8828 8.07052L19.8084 8.07572L19.7367 8.08106L19.665 8.09175L19.5986 8.1023L19.5322 8.11566L19.4685 8.12888L19.4048 8.14744L19.3436 8.16868L19.2853 8.19258L19.2958 8.22451L19.3543 8.2006L19.4154 8.17937L19.4739 8.1608L19.5376 8.14744L19.604 8.13422L19.6703 8.12353L19.7367 8.11299L19.8084 8.10764L19.8828 8.1023L19.9599 8.09963H20.2866L20.3769 8.1023H20.4671V8.07052Z" fill="white"/>
</g>
<g id="Group_47">
<path id="Vector_45" fill-rule="evenodd" clip-rule="evenodd" d="M21.3782 8.97064L21.3914 8.86179V8.76082L21.3728 8.66786L21.3436 8.58024L21.3013 8.49783L21.248 8.42344L21.1842 8.35706L21.1179 8.2987L21.0409 8.24821L20.9612 8.2004L20.8763 8.16327L20.7939 8.13135L20.7062 8.10744L20.6238 8.08888L20.5416 8.07552L20.4672 8.07031V8.1021L20.5416 8.10744L20.6185 8.12066L20.7009 8.13922L20.7832 8.16327L20.8656 8.19505L20.9452 8.23232L21.0249 8.27479L21.0966 8.32528L21.163 8.38364L21.2215 8.44467L21.2745 8.51372L21.3118 8.59079L21.3409 8.6732L21.3596 8.76082V8.86179L21.3463 8.96529L21.3782 8.97064Z" fill="white"/>
</g>
<g id="Group_48">
<path id="Vector_46" fill-rule="evenodd" clip-rule="evenodd" d="M21.0993 10.3731L21.3781 8.97068L21.3462 8.96533L21.0674 10.3677L21.0993 10.3731Z" fill="white"/>
</g>
<g id="Group_49">
<path id="Vector_47" fill-rule="evenodd" clip-rule="evenodd" d="M20.4406 9.67744L20.4352 9.66141L20.4247 9.64819L20.4061 9.64017L20.3795 9.6323L20.3503 9.62962L20.3158 9.62695H20.2759L20.2361 9.62962L20.1936 9.63497L20.1511 9.64017L20.1085 9.64552L20.0687 9.65086L20.0289 9.65874L19.9943 9.66408L19.9599 9.6721L19.9333 9.67744L19.9147 9.67997L19.8935 9.68799L19.8669 9.696L19.8377 9.70655L19.8032 9.72258L19.7713 9.73847L19.734 9.75704L19.6996 9.78095L19.665 9.80485L19.6305 9.8341L19.6013 9.86321L19.572 9.89781L19.5481 9.93494L19.5295 9.97488L19.5136 10.0173L19.5056 10.0625L19.503 10.1528L19.5163 10.2245L19.5376 10.2777L19.5695 10.3175L19.6093 10.344L19.6544 10.3599L19.6996 10.3679L19.7447 10.3706L19.8244 10.3679L19.8987 10.3599L19.9679 10.3467L20.0289 10.3281L20.0874 10.3069L20.1378 10.283L20.1856 10.2564L20.2281 10.2245L20.2653 10.1952L20.2971 10.1608L20.3264 10.1289L20.3503 10.0944L20.3688 10.0625L20.3822 10.0306L20.3927 9.99878L20.4008 9.96953L20.4114 9.89514L20.4247 9.81821L20.4352 9.74382L20.4406 9.67744Z" fill="#FCB330"/>
</g>
<g id="Group_50">
<path id="Vector_48" fill-rule="evenodd" clip-rule="evenodd" d="M21.2825 10.9602H22.0315L22.2999 9.44887L22.3104 9.39051L22.3263 9.332L22.3423 9.27364L22.3636 9.21514L22.3901 9.15677L22.4219 9.10094L22.4565 9.04779L22.499 8.99744L22.5468 8.9523L22.6 8.90983L22.661 8.86989L22.7301 8.8381L22.8071 8.81152L22.8921 8.79029L22.985 8.77426L23.0887 8.76905H23.155L23.2746 8.08643L23.2002 8.09177L23.1285 8.09965L23.0621 8.11301L22.9982 8.13157L22.9399 8.1528L22.884 8.17938L22.831 8.20849L22.7805 8.24042L22.7327 8.27769L22.6876 8.31481L22.6451 8.35728L22.6026 8.39989L22.5627 8.4449L22.5229 8.49538L22.4831 8.5432L22.4458 8.59636L22.5256 8.11568H21.7792L21.2825 10.9602Z" fill="white"/>
</g>
<g id="Group_51">
<path id="Vector_49" fill-rule="evenodd" clip-rule="evenodd" d="M21.2825 10.9602H22.0315L22.2999 9.44887L22.3104 9.39051L22.3263 9.332L22.3423 9.27364L22.3636 9.21514L22.3901 9.15677L22.4219 9.10094L22.4565 9.04779L22.499 8.99744L22.5468 8.9523L22.6 8.90983L22.661 8.86989L22.7301 8.8381L22.8071 8.81152L22.8921 8.79029L22.985 8.77426L23.0887 8.76905H23.155L23.2746 8.08643L23.2002 8.09177L23.1285 8.09965L23.0621 8.11301L22.9982 8.13157L22.9399 8.1528L22.884 8.17938L22.831 8.20849L22.7805 8.24042L22.7327 8.27769L22.6876 8.31481L22.6451 8.35728L22.6026 8.39989L22.5627 8.4449L22.5229 8.49538L22.4831 8.5432L22.4458 8.59636L22.5256 8.11568H21.7792L21.2825 10.9602Z" stroke="white" stroke-width="0.0885981" stroke-miterlimit="2"/>
</g>
<g id="Group_52">
<path id="Vector_50" fill-rule="evenodd" clip-rule="evenodd" d="M14.2494 10.9602H15.0117L15.2667 9.44887L15.2772 9.39051L15.2906 9.33467L15.3038 9.27898L15.3224 9.22583L15.3436 9.17267L15.3702 9.12218L15.4021 9.07436L15.4392 9.02922L15.4819 8.98942L15.5297 8.94962L15.588 8.9177L15.6517 8.88845L15.7261 8.86454L15.8085 8.84331L15.8988 8.83009L16.0023 8.82207H16.0104L16.021 8.82474L16.0343 8.82742H16.0475L16.0608 8.83009L16.0714 8.83276L16.0794 8.83543H16.0821L16.0847 8.82474L16.0926 8.79282L16.1033 8.74515L16.1165 8.68664L16.1352 8.61759L16.1538 8.5432L16.1777 8.4688L16.2016 8.39455L16.2228 8.34406L16.2494 8.29358L16.276 8.24309L16.3024 8.19795L16.3264 8.15815L16.3451 8.12623L16.3583 8.10766L16.3636 8.09965H16.3609L16.3503 8.09697L16.337 8.09444L16.3185 8.09177H16.2998L16.2785 8.0891L16.26 8.08643H16.2414L16.159 8.09177L16.0847 8.09965L16.0157 8.11301L15.9518 8.1289L15.8908 8.15013L15.835 8.17671L15.7846 8.20329L15.7368 8.23507L15.6917 8.26967L15.6491 8.30947L15.6093 8.34941L15.5695 8.39455L15.5297 8.43969L15.4924 8.49018L15.4526 8.5432L15.4127 8.59636L15.5083 8.11568H14.7461L14.2494 10.9602Z" fill="white"/>
</g>
<g id="Group_53">
<path id="Vector_51" fill-rule="evenodd" clip-rule="evenodd" d="M14.2494 10.9602H15.0117L15.2667 9.44887L15.2772 9.39051L15.2906 9.33467L15.3038 9.27898L15.3224 9.22583L15.3436 9.17267L15.3702 9.12218L15.4021 9.07436L15.4392 9.02922L15.4819 8.98942L15.5297 8.94962L15.588 8.9177L15.6517 8.88845L15.7261 8.86454L15.8085 8.84331L15.8988 8.83009L16.0023 8.82207H16.0104L16.021 8.82474L16.0343 8.82742H16.0475L16.0608 8.83009L16.0714 8.83276L16.0794 8.83543H16.0821L16.0847 8.82474L16.0926 8.79282L16.1033 8.74515L16.1165 8.68664L16.1352 8.61759L16.1538 8.5432L16.1777 8.4688L16.2016 8.39455L16.2228 8.34406L16.2494 8.29358L16.276 8.24309L16.3024 8.19795L16.3264 8.15815L16.3451 8.12623L16.3583 8.10766L16.3636 8.09965H16.3609L16.3503 8.09697L16.337 8.09444L16.3185 8.09177H16.2998L16.2785 8.0891L16.26 8.08643H16.2414L16.159 8.09177L16.0847 8.09965L16.0157 8.11301L15.9518 8.1289L15.8908 8.15013L15.835 8.17671L15.7846 8.20329L15.7368 8.23507L15.6917 8.26967L15.6491 8.30947L15.6093 8.34941L15.5695 8.39455L15.5297 8.43969L15.4924 8.49018L15.4526 8.5432L15.4127 8.59636L15.5083 8.11568H14.7461L14.2494 10.9602Z" stroke="white" stroke-width="0.0885981" stroke-miterlimit="2"/>
</g>
<g id="Group_54">
<path id="Vector_52" fill-rule="evenodd" clip-rule="evenodd" d="M25.9093 13.8128L25.9173 13.7544H25.9942V13.7571L25.989 13.8128H25.9093Z" fill="#FCB330"/>
</g>
</g>
</g>
</g>
</g>
<defs>
<clipPath id="clip0_202_487">
<rect width="26.6626" height="16.272" fill="white" transform="translate(0.668701 0.887207)"/>
</clipPath>
</defs>
</svg>
