<?xml version="1.0" encoding="UTF-8" standalone="no"?>
<!DOCTYPE svg PUBLIC "-//W3C//DTD SVG 1.1//EN" "http://www.w3.org/Graphics/SVG/1.1/DTD/svg11.dtd">
<svg xmlns="http://www.w3.org/2000/svg" version="1.1" viewBox="0.00 0.00 2368.00 765.00">
<g stroke-width="2.00" fill="none" stroke-linecap="butt">
<path stroke="#887b66" vector-effect="non-scaling-stroke" d="
  M 486.50 434.71
  Q 485.96 434.10 485.71 433.29
  C 443.88 298.68 343.56 189.63 223.29 119.25"
/>
<path stroke="#8da6d1" vector-effect="non-scaling-stroke" d="
  M 1968.31 494.25
  L 2123.79 494.25
  Q 2124.36 494.25 2124.24 493.70
  C 2104.80 403.93 2083.26 314.32 2071.14 223.29
  A 0.31 0.31 0.0 0 0 2070.55 223.21
  C 2032.56 312.05 2002.05 403.57 1968.10 493.95
  A 0.22 0.22 0.0 0 0 1968.31 494.25"
/>
</g>
<path fill="#1b4da2" d="
  M 1493.18 540.18
  C 1493.30 537.94 1493.13 534.63 1492.47 532.42
  C 1481.95 496.74 1448.14 478.77 1416.78 462.50
  C 1364.44 435.36 1310.20 409.05 1271.40 363.43
  C 1235.59 321.31 1221.77 270.12 1232.09 215.07
  C 1241.87 162.84 1273.90 113.10 1315.07 81.07
  Q 1339.56 62.02 1372.84 46.67
  C 1480.14 -2.84 1605.09 2.69 1715.24 39.08
  A 0.27 0.27 0.0 0 1 1715.42 39.36
  C 1709.49 92.88 1700.84 146.14 1691.47 199.08
  A 0.59 0.59 0.0 0 1 1690.63 199.51
  C 1626.26 168.32 1551.46 154.80 1480.93 171.01
  Q 1469.30 173.68 1462.03 177.31
  C 1430.82 192.91 1410.31 230.89 1441.53 259.48
  C 1475.00 290.12 1516.25 309.00 1556.08 329.66
  C 1583.17 343.72 1609.47 359.92 1629.70 380.30
  C 1637.28 387.94 1648.92 400.28 1655.94 409.65
  C 1696.15 463.22 1697.82 536.93 1674.50 597.55
  C 1646.65 669.96 1584.26 717.60 1512.52 742.06
  Q 1473.87 755.23 1436.93 759.41
  Q 1407.91 762.69 1370.19 763.41
  C 1295.64 764.84 1220.89 754.06 1151.59 726.05
  A 0.74 0.73 -74.4 0 1 1151.14 725.24
  L 1178.17 563.24
  A 0.80 0.80 0.0 0 1 1179.32 562.66
  C 1253.99 601.45 1340.95 621.39 1424.68 605.96
  Q 1436.02 603.87 1443.88 600.59
  C 1469.09 590.07 1491.67 569.18 1493.18 540.18
  Z"
/>
<path fill="#f4a929" d="
  M 486.50 434.71
  Q 485.96 434.10 485.71 433.29
  C 443.88 298.68 343.56 189.63 223.29 119.25
  C 158.79 81.26 87.63 57.64 16.61 34.77
  Q 15.67 34.46 16.55 34.03
  C 40.75 21.98 68.14 22.96 95.44 23.67
  Q 151.72 25.13 197.69 24.67
  C 258.32 24.06 296.88 24.08 349.00 25.72
  C 377.65 26.62 401.99 44.81 412.92 71.11
  Q 415.63 77.63 418.19 90.36
  C 441.31 205.08 463.97 319.88 486.50 434.71
  Z"
/>
<path fill="#1b4da2" d="
  M 963.27 24.40
  L 1151.01 24.41
  Q 1151.54 24.41 1151.45 24.93
  C 1112.75 267.76 1072.31 510.32 1034.57 753.31
  A 0.82 0.82 0.0 0 1 1033.76 754.00
  L 846.81 754.00
  A 0.27 0.27 0.0 0 1 846.54 753.69
  C 882.92 510.37 924.52 267.89 962.73 24.86
  Q 962.81 24.40 963.27 24.40
  Z"
/>
<path fill="#1b4da2" d="
  M 223.29 119.25
  C 343.56 189.63 443.88 298.68 485.71 433.29
  Q 485.96 434.10 486.50 434.71
  Q 495.57 477.61 502.81 521.12
  A 0.34 0.34 0.0 0 0 503.47 521.18
  L 687.00 24.95
  Q 687.19 24.42 687.75 24.43
  Q 787.34 25.57 886.92 24.37
  Q 887.83 24.36 887.48 25.20
  C 786.46 267.82 690.96 512.66 587.93 754.45
  A 0.68 0.68 0.0 0 1 587.29 754.86
  C 522.31 753.10 457.47 754.04 392.49 753.71
  Q 391.99 753.70 391.87 753.23
  C 333.92 540.81 279.72 330.81 223.28 119.74
  Q 223.22 119.50 223.29 119.25
  Z"
/>
<path fill="#1b4da2" d="
  M 1913.10 644.75
  L 1873.36 754.04
  A 0.70 0.70 0.0 0 1 1872.70 754.50
  L 1676.27 754.50
  Q 1675.42 754.50 1675.75 753.72
  C 1768.11 532.24 1860.98 310.98 1953.29 89.48
  C 1964.21 63.26 1984.18 37.03 2012.40 29.06
  Q 2018.87 27.24 2029.77 26.62
  C 2086.14 23.43 2142.57 25.43 2199.06 25.22
  A 0.81 0.80 -5.7 0 1 2199.85 25.86
  C 2251.06 268.44 2301.64 511.11 2352.31 754.01
  A 0.18 0.18 0.0 0 1 2352.14 754.23
  L 2178.88 754.58
  A 1.24 1.24 0.0 0 1 2177.67 753.60
  L 2154.56 644.89
  A 0.43 0.43 0.0 0 0 2154.14 644.55
  L 1913.62 644.39
  Q 1913.24 644.39 1913.10 644.75
  Z
  M 1968.31 494.25
  L 2123.79 494.25
  Q 2124.36 494.25 2124.24 493.70
  C 2104.80 403.93 2083.26 314.32 2071.14 223.29
  A 0.31 0.31 0.0 0 0 2070.55 223.21
  C 2032.56 312.05 2002.05 403.57 1968.10 493.95
  A 0.22 0.22 0.0 0 0 1968.31 494.25
  Z"
/>
<path fill="#ffffff" d="
  M 2123.79 494.25
  L 1968.31 494.25
  A 0.22 0.22 0.0 0 1 1968.10 493.95
  C 2002.05 403.57 2032.56 312.05 2070.55 223.21
  A 0.31 0.31 0.0 0 1 2071.14 223.29
  C 2083.26 314.32 2104.80 403.93 2124.24 493.70
  Q 2124.36 494.25 2123.79 494.25
  Z"
/>
</svg>
