<svg width="32" height="32" viewBox="0 0 32 32" fill="none" xmlns="http://www.w3.org/2000/svg">
<g id="&#208;&#158;&#208;&#180;&#208;&#189;&#208;&#190;&#208;&#186;&#208;&#187;&#208;&#176;&#209;&#129;&#209;&#129;&#208;&#189;&#208;&#184;&#208;&#186;&#208;&#184;">
<g id="Combined Shape">
<path fill-rule="evenodd" clip-rule="evenodd" d="M8.97192 10.2087C8.97505 7.69427 10.661 5.42927 13.2433 4.47015C15.8256 3.51103 18.7955 4.04674 20.7678 5.82741C22.7401 7.60808 23.3261 10.2829 22.2526 12.6042C21.179 14.9255 18.6574 16.436 15.8639 16.431C12.0521 16.4248 8.96712 13.6395 8.97192 10.2087ZM15.8827 12.7804C17.0375 12.7761 18.0757 12.1461 18.513 11.1841C18.9503 10.2221 18.7006 9.1177 17.8803 8.3861C17.06 7.6545 15.8308 7.43981 14.766 7.8422C13.7013 8.24458 13.0108 9.18475 13.0166 10.2241C13.0309 11.6397 14.31 12.7804 15.8827 12.7804Z" fill="white" fill-opacity="0.7"/>
<path d="M11.0959 20.8051C11.8185 21.0609 12.5646 21.259 13.3257 21.397C13.2928 21.4661 13.2405 21.5263 13.174 21.5717L10.9916 23.6265L10.9171 23.6961C10.4043 24.175 9.89443 24.6512 9.39154 25.1353C8.98611 25.5127 8.79907 26.0385 8.88557 26.5576C8.97208 27.0767 9.32227 27.53 9.83285 27.7837C10.5812 28.167 11.515 28.0331 12.136 27.4404C13.3102 26.318 14.4819 25.1933 15.651 24.0663C15.7485 23.9706 15.8036 23.9593 15.9107 24.0576C16.1261 24.2526 16.3455 24.4429 16.5647 24.6329C16.6688 24.7232 16.7729 24.8134 16.8764 24.9041C17.1846 25.1741 17.4916 25.4451 17.7986 25.7162C18.4921 26.3285 19.1857 26.9409 19.8931 27.5403C20.3386 27.9195 20.963 28.0769 21.5625 27.9612C22.162 27.8455 22.6597 27.4716 22.8935 26.9615C23.1986 26.3148 23.0393 25.5977 22.4531 25.0762C21.1263 23.8918 19.8001 22.7066 18.4746 21.5205C18.4637 21.5106 18.4513 21.5016 18.4387 21.4924C18.4001 21.4642 18.3595 21.4345 18.3529 21.3762C18.7807 21.2901 19.2027 21.1963 19.617 21.0754C20.742 20.746 21.8081 20.308 22.7631 19.6717C23.4789 19.1992 23.7286 18.3396 23.3613 17.6122C22.994 16.8848 22.1103 16.4889 21.2441 16.6635C20.9432 16.7195 20.6988 16.8636 20.451 17.0095C20.4181 17.029 20.385 17.0484 20.3518 17.0677C19.0685 17.81 17.6509 18.1724 16.1348 18.2176C14.2353 18.275 12.472 17.8812 10.8922 16.8947C10.4976 16.6479 10.0062 16.5612 9.53736 16.6557C8.73972 16.8009 8.22598 17.232 8.0512 17.9542C7.87641 18.6765 8.15356 19.271 8.81504 19.7056C9.52115 20.1567 10.2875 20.5261 11.0959 20.8051Z" fill="white" fill-opacity="0.7"/>
</g>
</g>
</svg>
