<svg width="32" height="32" viewBox="0 0 32 32" fill="none" xmlns="http://www.w3.org/2000/svg">
<g id="Telegram">
<path id="Path-3" fill-rule="evenodd" clip-rule="evenodd" d="M4.43794 14.5398C11.3646 11.522 15.9835 9.53246 18.2945 8.57121C24.8931 5.82665 26.2642 5.3499 27.1578 5.33415C27.3544 5.33069 27.7939 5.3794 28.0786 5.6104C28.3189 5.80545 28.3851 6.06893 28.4167 6.25386C28.4484 6.43879 28.4878 6.86006 28.4565 7.18923C28.0989 10.9463 26.5517 20.0638 25.7645 24.2718C25.4314 26.0524 24.7756 26.6494 24.1407 26.7078C22.7609 26.8348 21.7131 25.7959 20.3767 24.9199C18.2855 23.5491 17.1041 22.6957 15.0742 21.358C12.7283 19.8121 14.249 18.9625 15.5859 17.5739C15.9358 17.2105 22.0153 11.6807 22.133 11.1791C22.1477 11.1163 22.1613 10.8825 22.0224 10.759C21.8835 10.6355 21.6784 10.6777 21.5305 10.7113C21.3207 10.7589 17.98 12.967 11.5082 17.3357C10.5599 17.9868 9.70099 18.3041 8.93143 18.2875C8.08306 18.2691 6.45114 17.8078 5.23797 17.4134C3.74997 16.9298 2.56733 16.674 2.67031 15.8526C2.72395 15.4247 3.31316 14.9871 4.43794 14.5398Z" fill="white" fill-opacity="0.7"/>
</g>
</svg>
