<svg width="32" height="32" viewBox="0 0 32 32" fill="none" xmlns="http://www.w3.org/2000/svg">
<g id="Twitter">
<path id="Vector" d="M30.1553 7.98494C29.1443 8.43291 28.0583 8.7356 26.9165 8.87242C28.0946 8.16751 28.976 7.05807 29.3962 5.75111C28.2893 6.40853 27.078 6.87129 25.8148 7.11925C24.9653 6.21224 23.8401 5.61106 22.6139 5.40904C21.3878 5.20703 20.1292 5.41548 19.0337 6.00204C17.9381 6.5886 17.0668 7.52045 16.5552 8.65291C16.0435 9.78537 15.92 11.0551 16.2038 12.2649C13.9612 12.1523 11.7672 11.5694 9.7644 10.554C7.76158 9.53864 5.99464 8.11347 4.57825 6.37101C4.09395 7.20643 3.81548 8.17502 3.81548 9.20658C3.81494 10.1352 4.04363 11.0496 4.48125 11.8687C4.91887 12.6877 5.55189 13.3861 6.32415 13.9019C5.42853 13.8734 4.55267 13.6314 3.76947 13.196V13.2686C3.76938 14.5711 4.21991 15.8335 5.04461 16.8415C5.86931 17.8496 7.01739 18.5414 8.29404 18.7993C7.4632 19.0242 6.59214 19.0573 5.74662 18.8962C6.10682 20.0169 6.80844 20.9969 7.75328 21.699C8.69811 22.4011 9.83885 22.7902 11.0158 22.8117C9.01786 24.3802 6.55042 25.2309 4.01041 25.2272C3.56048 25.2273 3.11092 25.201 2.66406 25.1485C5.24232 26.8062 8.2436 27.686 11.3088 27.6826C21.6849 27.6826 27.3573 19.0887 27.3573 11.6353C27.3573 11.3932 27.3512 11.1486 27.3403 10.9065C28.4436 10.1086 29.396 9.12049 30.1529 7.98857L30.1553 7.98494Z" fill="white" fill-opacity="0.7"/>
</g>
</svg>
