<svg width="24" height="18" viewBox="0 0 24 18" fill="none" xmlns="http://www.w3.org/2000/svg">
<g id="pt.256452c6 1">
<g clip-path="url(#clip0_135_3900)">
<path id="Vector" d="M9.6001 0H24.0001V18H9.6001V0Z" fill="#FF0000"/>
<path id="Vector_2" d="M0 0H9.6V18H0V0Z" fill="#006600"/>
<g id="Group">
<g id="Vector_3">
<path fill-rule="evenodd" clip-rule="evenodd" d="M12.7295 11.4816C11.5211 11.4452 5.97988 7.98639 5.94189 7.43559L6.24789 6.92529C6.79753 7.72393 12.4623 11.0877 13.0187 10.9685L12.7295 11.4814" fill="#FFFF00"/>
<path d="M12.7295 11.4816C11.5211 11.4452 5.97988 7.98639 5.94189 7.43559L6.24789 6.92529C6.79753 7.72393 12.4623 11.0877 13.0187 10.9685L12.7295 11.4814" stroke="black" stroke-width="0.611" stroke-linecap="round" stroke-linejoin="round"/>
</g>
<path id="Vector_4" fill-rule="evenodd" clip-rule="evenodd" d="M6.18341 6.85597C6.07504 7.14772 7.62941 8.1087 9.49954 9.24611C11.3697 10.3835 12.9822 11.0863 13.1016 10.9855C13.1089 10.9725 13.1605 10.8839 13.1557 10.8846C13.1333 10.9183 13.0788 10.929 12.9937 10.9045C12.4885 10.7587 11.1707 10.1539 9.53876 9.16425C7.90684 8.17455 6.48701 7.26247 6.26632 6.87499C6.25095 6.84814 6.24007 6.79912 6.24225 6.76099H6.23689L6.1899 6.84311L6.18341 6.85597ZM12.7578 11.4976C12.7373 11.5347 12.6991 11.536 12.6265 11.528C12.1746 11.478 10.803 10.811 9.18007 9.83947C7.29165 8.70907 5.73206 7.6791 5.90126 7.40985L5.94731 7.32847L5.95639 7.33132C5.80421 7.78751 9.03427 9.63446 9.22444 9.75221C11.0934 10.9101 12.669 11.5863 12.8085 11.4105L12.7578 11.4978V11.4977L12.7578 11.4976Z" fill="#FFFF00" stroke="black" stroke-width="0.611" stroke-linecap="round" stroke-linejoin="round"/>
<g id="Vector_5">
<path fill-rule="evenodd" clip-rule="evenodd" d="M9.60671 7.76919C10.8162 7.75959 12.3088 7.60382 13.1677 7.26155L12.9826 6.96088C12.4749 7.24187 10.9742 7.42663 9.59654 7.45427C7.96706 7.43927 6.81689 7.28754 6.24067 6.90088L6.06592 7.22105C7.12529 7.66933 8.21084 7.76454 9.60674 7.76915" fill="#FFFF00"/>
<path d="M9.60671 7.76919C10.8162 7.75959 12.3088 7.60382 13.1677 7.26155L12.9826 6.96088C12.4749 7.24187 10.9742 7.42663 9.59654 7.45427C7.96706 7.43927 6.81689 7.28754 6.24067 6.90088L6.06592 7.22105C7.12529 7.66933 8.21084 7.76454 9.60674 7.76915" stroke="black" stroke-width="0.611" stroke-linecap="round" stroke-linejoin="round"/>
</g>
<g id="Vector_6">
<path fill-rule="evenodd" clip-rule="evenodd" d="M13.2174 7.26841C13.1878 7.31566 12.6276 7.50886 11.8025 7.65143C11.243 7.73671 10.5131 7.80968 9.60234 7.81051C8.73699 7.81133 8.03011 7.74976 7.49495 7.67719C6.6287 7.54137 6.1817 7.35244 6.0164 7.28562C6.03215 7.25419 6.04235 7.23214 6.05757 7.20274C6.53337 7.39223 6.98255 7.50649 7.50875 7.58742C8.04039 7.65942 8.73875 7.72193 9.59975 7.72114C10.5063 7.72021 11.2281 7.64176 11.7844 7.55899C12.6306 7.42249 13.0929 7.24684 13.1578 7.16524L13.2175 7.26844H13.2174L13.2174 7.26841ZM13.055 6.96353C12.9632 7.03714 12.5063 7.19922 11.7022 7.32766C11.1656 7.40453 10.4833 7.47338 9.6116 7.47421C8.78345 7.47503 8.10684 7.41923 7.59222 7.34427C6.77566 7.23762 6.34104 7.04524 6.18436 6.98914C6.19996 6.96214 6.21586 6.93544 6.23214 6.90859C6.35401 6.96994 6.77345 7.14019 7.60119 7.25746C8.10999 7.32961 8.78761 7.38338 9.61167 7.38252C10.4793 7.38166 11.1538 7.31149 11.6869 7.23499C12.4952 7.12381 12.93 6.91711 12.996 6.86536L13.055 6.96338V6.96349L13.055 6.96353ZM5.63499 9.22639C6.37891 9.62652 8.03124 9.82816 9.59476 9.84203C11.0184 9.84428 12.873 9.62198 13.5666 9.25441L13.5475 8.85398C13.3305 9.19306 11.343 9.51833 9.57931 9.50498C7.81557 9.49171 6.1778 9.21931 5.63184 8.86666L5.63499 9.22628" fill="#FFFF00"/>
<path d="M5.63499 9.22639C6.37891 9.62652 8.03124 9.82816 9.59476 9.84203C11.0184 9.84428 12.873 9.62198 13.5666 9.25441L13.5475 8.85398C13.3305 9.19306 11.343 9.51833 9.57931 9.50498C7.81557 9.49171 6.1778 9.21931 5.63184 8.86666L5.63499 9.22628M13.2174 7.26841C13.1878 7.31566 12.6276 7.50886 11.8025 7.65143C11.243 7.73671 10.5131 7.80968 9.60234 7.81051C8.73699 7.81133 8.03011 7.74976 7.49495 7.67719C6.6287 7.54137 6.1817 7.35244 6.0164 7.28562C6.03215 7.25419 6.04235 7.23214 6.05757 7.20274C6.53337 7.39223 6.98255 7.50649 7.50875 7.58742C8.04039 7.65942 8.73875 7.72193 9.59975 7.72114C10.5063 7.72021 11.2281 7.64176 11.7844 7.55899C12.6306 7.42249 13.0929 7.24684 13.1578 7.16524L13.2175 7.26844H13.2174L13.2174 7.26841ZM13.055 6.96353C12.9632 7.03714 12.5063 7.19922 11.7022 7.32766C11.1656 7.40453 10.4833 7.47338 9.6116 7.47421C8.78345 7.47503 8.10684 7.41923 7.59222 7.34427C6.77566 7.23762 6.34104 7.04524 6.18436 6.98914C6.19996 6.96214 6.21586 6.93544 6.23214 6.90859C6.35401 6.96994 6.77345 7.14019 7.60119 7.25746C8.10999 7.32961 8.78761 7.38338 9.61167 7.38252C10.4793 7.38166 11.1538 7.31149 11.6869 7.23499C12.4952 7.12381 12.93 6.91711 12.996 6.86536L13.055 6.96338V6.96349L13.055 6.96353Z" stroke="black" stroke-width="0.611" stroke-linecap="round" stroke-linejoin="round"/>
</g>
<g id="Vector_7">
<path fill-rule="evenodd" clip-rule="evenodd" d="M13.6046 9.16872V9.26427C13.5004 9.38892 12.8468 9.57728 12.0271 9.70996C11.4033 9.80558 10.59 9.87773 9.57663 9.87773C8.6139 9.87773 7.84612 9.80911 7.25073 9.71768C6.30948 9.58058 5.70753 9.34058 5.58667 9.26896L5.58723 9.15758C5.95023 9.3989 6.93367 9.57541 7.26386 9.62948C7.85542 9.72023 8.61862 9.78841 9.57656 9.78841C10.5852 9.78841 11.3939 9.71678 12.0138 9.62176C12.6018 9.53678 13.4396 9.31587 13.6045 9.16876L13.6046 9.16872ZM13.605 8.82908V8.9246C13.5008 9.0491 12.8472 9.23753 12.0276 9.37017C11.4037 9.4658 10.5905 9.53795 9.57708 9.53795C8.61431 9.53795 7.84657 9.4694 7.25115 9.3779C6.30997 9.24091 5.70802 9.00091 5.58712 8.92925L5.58764 8.81787C5.95064 9.05915 6.93408 9.23573 7.26434 9.2897C7.85587 9.38056 8.61907 9.4487 9.57697 9.4487C10.5856 9.4487 11.3944 9.37707 12.0142 9.28197C12.6022 9.19703 13.44 8.97612 13.6049 8.82897V8.82908H13.605ZM9.59141 11.4127C7.88054 11.4026 6.41456 10.9464 6.10503 10.871L6.33078 11.2244C6.87753 11.4544 8.30771 11.7972 9.60783 11.7592C10.908 11.7213 12.0442 11.6206 12.8449 11.2308L13.0764 10.8646C12.5307 11.1216 10.6736 11.4101 9.59133 11.4128" fill="#FFFF00"/>
<path d="M9.59141 11.4127C7.88054 11.4026 6.41456 10.9464 6.10503 10.871L6.33078 11.2244C6.87753 11.4544 8.30771 11.7972 9.60783 11.7592C10.908 11.7213 12.0442 11.6206 12.8449 11.2308L13.0764 10.8646C12.5307 11.1216 10.6736 11.4101 9.59133 11.4128M13.6046 9.16872V9.26427C13.5004 9.38892 12.8468 9.57728 12.0271 9.70996C11.4033 9.80558 10.59 9.87773 9.57663 9.87773C8.6139 9.87773 7.84612 9.80911 7.25073 9.71768C6.30948 9.58058 5.70753 9.34058 5.58667 9.26896L5.58723 9.15758C5.95023 9.3989 6.93367 9.57541 7.26386 9.62948C7.85542 9.72023 8.61862 9.78841 9.57656 9.78841C10.5852 9.78841 11.3939 9.71678 12.0138 9.62176C12.6018 9.53678 13.4396 9.31587 13.6045 9.16876L13.6046 9.16872ZM13.605 8.82908V8.9246C13.5008 9.0491 12.8472 9.23753 12.0276 9.37017C11.4037 9.4658 10.5905 9.53795 9.57708 9.53795C8.61431 9.53795 7.84657 9.4694 7.25115 9.3779C6.30997 9.24091 5.70802 9.00091 5.58712 8.92925L5.58764 8.81787C5.95064 9.05915 6.93408 9.23573 7.26434 9.2897C7.85587 9.38056 8.61907 9.4487 9.57697 9.4487C10.5856 9.4487 11.3944 9.37707 12.0142 9.28197C12.6022 9.19703 13.44 8.97612 13.6049 8.82897V8.82908H13.605Z" stroke="black" stroke-width="0.611" stroke-linecap="round" stroke-linejoin="round"/>
</g>
<path id="Vector_8" fill-rule="evenodd" clip-rule="evenodd" d="M12.9318 11.1487C12.8981 11.2004 12.8635 11.2515 12.828 11.3019C12.4503 11.4351 11.8552 11.5749 11.6041 11.6157C11.0911 11.7214 10.2975 11.7995 9.59317 11.7998C8.07757 11.7776 6.83692 11.4809 6.25331 11.2278L6.20617 11.1468L6.21386 11.1347L6.29374 11.1657C7.33166 11.537 8.49739 11.6852 9.60161 11.7118C10.3032 11.7143 11.0055 11.6314 11.5734 11.5298C12.4442 11.3553 12.7963 11.2238 12.9043 11.1642L12.9319 11.1488L12.9318 11.1487ZM13.1325 10.8177C13.1334 10.8188 13.1343 10.8198 13.1352 10.8209C13.1093 10.8645 13.0831 10.908 13.0567 10.9514C12.8552 11.0234 12.3085 11.1833 11.5103 11.2949C10.9843 11.3666 10.6574 11.4359 9.61114 11.4563C7.65056 11.4064 6.38119 11.023 6.07961 10.9284L6.03491 10.8427C7.17116 11.1393 8.33179 11.3465 9.61129 11.3676C10.5685 11.3472 10.9757 11.2767 11.4973 11.2056C12.4282 11.0609 12.8972 10.9076 13.0379 10.8634C13.036 10.8606 13.0339 10.858 13.0318 10.8554L13.1327 10.8177L13.1326 10.8178L13.1325 10.8177Z" fill="#FFFF00" stroke="black" stroke-width="0.587" stroke-linecap="round" stroke-linejoin="round"/>
<g id="Vector_9">
<path fill-rule="evenodd" clip-rule="evenodd" d="M13.1531 8.91033C13.1587 10.0358 12.5827 11.0458 12.1188 11.4913C11.4625 12.1217 10.5923 12.5272 9.57602 12.5458C8.44127 12.5667 7.37125 11.827 7.08422 11.5019C6.52311 10.8665 6.06629 10.0596 6.05162 8.97217C6.12111 7.74378 6.60332 6.88814 7.30232 6.30142C8.00132 5.71465 8.93207 5.42887 9.7072 5.4493C10.6015 5.47293 11.6461 5.91168 12.368 6.78258C12.8409 7.35333 13.0457 7.97257 13.1531 8.91033H13.1531ZM9.58566 5.05672C11.7651 5.05672 13.5575 6.83024 13.5575 9.00483C13.5575 11.1793 11.7651 12.9529 9.58566 12.9529C7.40627 12.9529 5.62866 11.1794 5.62866 9.00479C5.62866 6.83017 7.40627 5.05664 9.58566 5.05664" fill="#FFFF00"/>
<path d="M9.58566 5.05672C11.7651 5.05672 13.5575 6.83024 13.5575 9.00483C13.5575 11.1793 11.7651 12.9529 9.58566 12.9529C7.40627 12.9529 5.62866 11.1794 5.62866 9.00479C5.62866 6.83017 7.40627 5.05664 9.58566 5.05664M13.1531 8.91033C13.1587 10.0358 12.5827 11.0458 12.1188 11.4913C11.4625 12.1217 10.5923 12.5272 9.57602 12.5458C8.44127 12.5667 7.37125 11.827 7.08422 11.5019C6.52311 10.8665 6.06629 10.0596 6.05162 8.97217C6.12111 7.74378 6.60332 6.88814 7.30232 6.30142C8.00132 5.71465 8.93207 5.42887 9.7072 5.4493C10.6015 5.47293 11.6461 5.91168 12.368 6.78258C12.8409 7.35333 13.0457 7.97257 13.1531 8.91033H13.1531Z" stroke="black" stroke-width="0.611" stroke-linecap="round" stroke-linejoin="round"/>
</g>
<path id="Vector_10" fill-rule="evenodd" clip-rule="evenodd" d="M9.59619 5.04313C11.7776 5.04313 13.5566 6.8225 13.5566 9.00403C13.5566 11.1855 11.7775 12.9648 9.59619 12.9648C7.41482 12.9648 5.63574 11.1856 5.63574 9.00403C5.63574 6.82243 7.41485 5.04309 9.59619 5.04309V5.04313ZM5.72293 9.00407C5.72293 11.1344 7.4723 12.8777 9.59619 12.8777C11.7201 12.8777 13.4696 11.1344 13.4696 9.00403C13.4696 6.8735 11.72 5.13028 9.59619 5.13028C7.47234 5.13028 5.72293 6.87365 5.72293 9.00403V9.00407Z" fill="#FFFF00" stroke="black" stroke-width="0.611" stroke-linecap="round" stroke-linejoin="round"/>
<path id="Vector_11" fill-rule="evenodd" clip-rule="evenodd" d="M9.59943 5.37231C11.5887 5.37231 13.2272 7.00514 13.2272 9.00044C13.2272 10.9958 11.5886 12.6286 9.59943 12.6286C7.6102 12.6286 5.97168 10.9958 5.97168 9.00044C5.97168 7.00514 7.61024 5.37231 9.59943 5.37231ZM6.05879 9.00044C6.05879 10.9478 7.65798 12.5414 9.59939 12.5414C11.5408 12.5414 13.14 10.9479 13.14 9.00044C13.14 7.05306 11.5408 5.45946 9.59935 5.45946C7.6579 5.45946 6.05872 7.05303 6.05872 9.00044H6.05879Z" fill="#FFFF00" stroke="black" stroke-width="0.611" stroke-linecap="round" stroke-linejoin="round"/>
<path id="Vector_12" fill-rule="evenodd" clip-rule="evenodd" d="M9.75905 5.02722H9.41968L9.42005 12.9856H9.76063L9.75905 5.02722Z" fill="#FFFF00" stroke="black" stroke-width="0.611" stroke-linecap="round" stroke-linejoin="round"/>
<path id="Vector_13" fill-rule="evenodd" clip-rule="evenodd" d="M9.72508 4.98185H9.81141L9.81216 13.0318H9.72568L9.72508 4.98181V4.98185ZM9.38818 4.98185H9.47526L9.47537 13.0319H9.38826V4.98185H9.38818Z" fill="#FFFF00" stroke="black" stroke-width="0.611" stroke-linecap="round" stroke-linejoin="round"/>
<path id="Vector_14" fill-rule="evenodd" clip-rule="evenodd" d="M13.5594 9.15737V8.86318L13.3198 8.63998L11.9598 8.27998L9.99982 8.07996L7.63979 8.19996L5.95979 8.59997L5.62061 8.85122V9.14544L6.47981 8.75998L8.51981 8.43996H10.4798L11.9198 8.59997L12.9198 8.83997L13.5594 9.15737Z" fill="#FFFF00" stroke="black" stroke-width="0.611" stroke-linecap="round" stroke-linejoin="round"/>
<g id="Vector_15">
<path fill-rule="evenodd" clip-rule="evenodd" d="M9.59791 8.39074C10.5332 8.38901 11.4407 8.47935 12.1605 8.61949C12.9033 8.76799 13.426 8.95372 13.6047 9.16234L13.6045 9.26569C13.3889 9.00607 12.6856 8.81576 12.1438 8.70694C11.4294 8.568 10.528 8.47826 9.59788 8.48006C8.61635 8.48182 7.7024 8.57479 6.99849 8.71219C6.43374 8.8242 5.68048 9.04684 5.58643 9.26644V9.15889C5.63806 9.0069 6.19895 8.77976 6.98578 8.62226C7.69498 8.48389 8.61065 8.3925 9.59791 8.39074ZM9.59829 8.05099C10.5336 8.04934 11.4411 8.13971 12.1609 8.27981C12.9037 8.42839 13.4264 8.61405 13.6051 8.82266L13.6049 8.92594C13.3894 8.66644 12.686 8.47605 12.1442 8.3673C11.4299 8.22829 10.5285 8.13855 9.59829 8.14035C8.61676 8.14211 7.70728 8.23515 7.00329 8.3724C6.45826 8.47575 5.67429 8.7072 5.58684 8.9268V8.81917C5.63848 8.6688 6.21069 8.43352 6.98623 8.28255C7.69535 8.14417 8.61103 8.0529 9.59829 8.05106V8.05099ZM9.57909 6.3183C11.0531 6.31095 12.3387 6.5244 12.9269 6.82567L13.1414 7.19692C12.6302 6.92137 11.2432 6.63487 9.58126 6.67774C8.22714 6.68606 6.78016 6.8268 6.0542 7.21414L6.31033 6.78574C6.9062 6.47674 8.31125 6.31999 9.5792 6.31837" fill="#FFFF00"/>
<path d="M9.57909 6.3183C11.0531 6.31095 12.3387 6.5244 12.9269 6.82567L13.1414 7.19692C12.6302 6.92137 11.2432 6.63487 9.58126 6.67774C8.22714 6.68606 6.78016 6.8268 6.0542 7.21414L6.31033 6.78574C6.9062 6.47674 8.31125 6.31999 9.5792 6.31837M9.59791 8.39074C10.5332 8.38901 11.4407 8.47935 12.1605 8.61949C12.9033 8.76799 13.426 8.95372 13.6047 9.16234L13.6045 9.26569C13.3889 9.00607 12.6856 8.81576 12.1438 8.70694C11.4294 8.568 10.528 8.47826 9.59788 8.48006C8.61635 8.48182 7.7024 8.57479 6.99849 8.71219C6.43374 8.8242 5.68048 9.04684 5.58643 9.26644V9.15889C5.63806 9.0069 6.19895 8.77976 6.98578 8.62226C7.69498 8.48389 8.61065 8.3925 9.59791 8.39074ZM9.59829 8.05099C10.5336 8.04934 11.4411 8.13971 12.1609 8.27981C12.9037 8.42839 13.4264 8.61405 13.6051 8.82266L13.6049 8.92594C13.3894 8.66644 12.686 8.47605 12.1442 8.3673C11.4299 8.22829 10.5285 8.13855 9.59829 8.14035C8.61676 8.14211 7.70728 8.23515 7.00329 8.3724C6.45826 8.47575 5.67429 8.7072 5.58684 8.9268V8.81917C5.63848 8.6688 6.21069 8.43352 6.98623 8.28255C7.69535 8.14417 8.61103 8.0529 9.59829 8.05106V8.05099Z" stroke="black" stroke-width="0.611" stroke-linecap="round" stroke-linejoin="round"/>
</g>
<g id="Vector_16">
<path fill-rule="evenodd" clip-rule="evenodd" d="M9.59868 6.62472C10.4394 6.62255 11.2517 6.66995 11.8977 6.78653C12.4993 6.89851 13.0731 7.06655 13.1551 7.15692L13.2188 7.26935C13.0193 7.13903 12.5228 6.99398 11.8852 6.87308C11.245 6.75271 10.4332 6.71288 9.59722 6.7151C8.64828 6.71183 7.9111 6.76197 7.2784 6.87222C6.60929 6.99747 6.14504 7.17635 6.03052 7.26128L6.09284 7.14248C6.31537 7.02893 6.66847 6.8921 7.26179 6.7853C7.91606 6.66578 8.66111 6.62993 9.59868 6.6248V6.62472ZM9.5983 6.28535C10.4028 6.28328 11.1972 6.3281 11.8164 6.43947C12.3048 6.5345 12.7877 6.68292 12.9646 6.815L13.0576 6.96282C12.8994 6.78702 12.3042 6.62045 11.7786 6.52707C11.1642 6.42113 10.4028 6.37921 9.5983 6.3725C8.75399 6.37486 7.97369 6.42657 7.36818 6.53682C6.79057 6.6467 6.41782 6.7769 6.26006 6.87852L6.34192 6.75507C6.55961 6.64047 6.91124 6.53525 7.35404 6.44918C7.96402 6.33811 8.74912 6.28771 9.59842 6.28531L9.5983 6.28535ZM11.5659 10.6503C10.8372 10.5143 10.1071 10.4946 9.59722 10.5006C7.14089 10.5294 6.34739 11.0049 6.25057 11.1489L6.067 10.8497C6.69239 10.3964 8.02994 10.1422 9.61049 10.1682C10.4312 10.1816 11.1395 10.2362 11.7352 10.3516L11.5658 10.6505" fill="#FFFF00"/>
<path d="M11.5659 10.6503C10.8372 10.5143 10.1071 10.4946 9.59722 10.5006C7.14089 10.5294 6.34739 11.0049 6.25057 11.1489L6.067 10.8497C6.69239 10.3964 8.02994 10.1422 9.61049 10.1682C10.4312 10.1816 11.1395 10.2362 11.7352 10.3516L11.5658 10.6505M9.59868 6.62472C10.4394 6.62255 11.2517 6.66995 11.8977 6.78653C12.4993 6.89851 13.0731 7.06655 13.1551 7.15692L13.2188 7.26935C13.0193 7.13903 12.5228 6.99398 11.8852 6.87308C11.245 6.75271 10.4332 6.71288 9.59722 6.7151C8.64828 6.71183 7.9111 6.76197 7.2784 6.87222C6.60929 6.99747 6.14504 7.17635 6.03052 7.26128L6.09284 7.14248C6.31537 7.02893 6.66847 6.8921 7.26179 6.7853C7.91606 6.66578 8.66111 6.62993 9.59868 6.6248V6.62472ZM9.5983 6.28535C10.4028 6.28328 11.1972 6.3281 11.8164 6.43947C12.3048 6.5345 12.7877 6.68292 12.9646 6.815L13.0576 6.96282C12.8994 6.78702 12.3042 6.62045 11.7786 6.52707C11.1642 6.42113 10.4028 6.37921 9.5983 6.3725C8.75399 6.37486 7.97369 6.42657 7.36818 6.53682C6.79057 6.6467 6.41782 6.7769 6.26006 6.87852L6.34192 6.75507C6.55961 6.64047 6.91124 6.53525 7.35404 6.44918C7.96402 6.33811 8.74912 6.28771 9.59842 6.28531L9.5983 6.28535Z" stroke="black" stroke-width="0.611" stroke-linecap="round" stroke-linejoin="round"/>
</g>
<path id="Vector_17" fill-rule="evenodd" clip-rule="evenodd" d="M9.58299 10.4584C10.2662 10.4686 10.937 10.4968 11.5844 10.6175L11.5374 10.7003C10.9362 10.5894 10.2952 10.5469 9.58531 10.5503C8.67879 10.5432 7.76191 10.6279 6.96369 10.857C6.7118 10.9271 6.29484 11.089 6.25231 11.2229L6.20566 11.146C6.21916 11.0669 6.47116 10.9027 6.94224 10.7703C7.85656 10.5085 8.71179 10.4643 9.58299 10.4583V10.4585V10.4584ZM9.614 10.1145C10.3219 10.1278 11.053 10.1605 11.7636 10.3013L11.7148 10.3875C11.0731 10.2601 10.46 10.2176 9.61816 10.2047C8.70879 10.2063 7.74414 10.2712 6.86705 10.5262C6.58393 10.6087 6.09519 10.787 6.07888 10.9282L6.03223 10.8456C6.04284 10.7173 6.46591 10.5501 6.84654 10.4393C7.73041 10.1823 8.69754 10.1163 9.61404 10.1146L9.614 10.1145Z" fill="#FFFF00" stroke="black" stroke-width="0.587" stroke-linecap="round" stroke-linejoin="round"/>
<path id="Vector_18" fill-rule="evenodd" clip-rule="evenodd" d="M13.1031 10.8953L12.8079 11.3532L11.9598 10.6L9.75981 9.12003L7.27979 7.76002L5.99219 7.31962L6.26661 6.81075L6.3598 6.76001L7.15979 6.96L9.79979 8.32001L11.3198 9.28001L12.5998 10.2L13.1198 10.8L13.1031 10.8953Z" fill="#FFFF00" stroke="black" stroke-width="0.611" stroke-linecap="round" stroke-linejoin="round"/>
<path id="Vector_19" fill-rule="evenodd" clip-rule="evenodd" d="M5.94587 7.33163C6.1717 7.17844 7.83145 7.91775 9.56807 8.96498C11.3001 10.0151 12.9551 11.2019 12.8057 11.4239L12.7566 11.5012L12.7341 11.519C12.7389 11.5155 12.7638 11.4851 12.7316 11.4027C12.6578 11.1599 11.4838 10.2231 9.5359 9.04695C7.6369 7.91457 6.05425 7.23207 5.896 7.42714L5.94587 7.33163ZM13.1635 10.8887C13.3063 10.6066 11.7668 9.44693 9.85825 8.3178C7.90562 7.21118 6.49843 6.5598 6.24137 6.75405L6.1843 6.85793C6.18377 6.86367 6.18636 6.85088 6.19843 6.84158C6.24516 6.80078 6.32263 6.80352 6.35758 6.80295C6.80016 6.80952 8.06421 7.39125 9.83781 8.40803C10.6149 8.86065 13.1206 10.4676 13.1111 10.9196C13.1117 10.9584 13.1143 10.9664 13.0997 10.9856L13.1634 10.8887V10.8886L13.1635 10.8887Z" fill="#FFFF00" stroke="black" stroke-width="0.611" stroke-linecap="round" stroke-linejoin="round"/>
</g>
<g id="Group_2">
<path id="Vector_20" d="M7.22395 9.44042C7.22395 10.0912 7.49047 10.6799 7.92223 11.1101C8.35483 11.5412 8.94271 11.8133 9.59464 11.8133C10.2498 11.8133 10.8445 11.5471 11.2752 11.1177C11.706 10.6883 11.973 10.0956 11.9731 9.4425H11.973V6.27489L7.22339 6.26929L7.22387 9.44042H7.22395Z" fill="#F7F7F7" stroke="black" stroke-width="0.714669"/>
<g id="Vector_21">
<path d="M7.31286 9.44477V9.44657C7.31286 10.0688 7.57046 10.6355 7.98387 11.047C8.39803 11.4591 8.96843 11.7154 9.59243 11.7154C10.2196 11.7154 10.7888 11.461 11.2012 11.0504C11.6136 10.6398 11.8692 10.073 11.8692 9.44861H11.8692V6.37556L7.31554 6.37476L7.31274 9.44477M10.9536 7.29484L10.9538 9.25044L10.9522 9.45737C10.9522 9.51177 10.9489 9.57385 10.9426 9.62669C10.9056 9.93589 10.7634 10.2054 10.5528 10.415C10.3062 10.6604 9.96595 10.8127 9.59087 10.8127C9.21783 10.8127 8.88535 10.6552 8.63775 10.4087C8.38375 10.1559 8.23655 9.80925 8.23655 9.45081L8.23603 7.28992L10.9536 7.29484Z" fill="#FF0000"/>
<path d="M7.31286 9.44477V9.44657C7.31286 10.0688 7.57046 10.6355 7.98387 11.047C8.39803 11.4591 8.96843 11.7154 9.59243 11.7154C10.2196 11.7154 10.7888 11.461 11.2012 11.0504C11.6136 10.6398 11.8692 10.073 11.8692 9.44861H11.8692V6.37556L7.31554 6.37476L7.31274 9.44477M10.9536 7.29484L10.9538 9.25044L10.9522 9.45737C10.9522 9.51177 10.9489 9.57385 10.9426 9.62669C10.9056 9.93589 10.7634 10.2054 10.5528 10.415C10.3062 10.6604 9.96595 10.8127 9.59087 10.8127C9.21783 10.8127 8.88535 10.6552 8.63775 10.4087C8.38375 10.1559 8.23655 9.80925 8.23655 9.45081L8.23603 7.28992L10.9536 7.29484ZM10.9536 7.29484V7.29488" stroke="black" stroke-width="0.540802"/>
</g>
<g id="e">
<g id="d">
<path id="Vector_22" d="M7.60767 7.17721C7.61307 6.95641 7.76975 6.90409 7.77087 6.90333C7.77207 6.90253 7.94015 6.95961 7.93959 7.17925L7.60767 7.17725" fill="#FFFF00"/>
<path id="Vector_23" d="M7.47236 6.90757L7.44508 7.16137L7.61068 7.16177C7.61228 6.95177 7.76968 6.91681 7.77348 6.91761C7.77708 6.91745 7.93308 6.96401 7.9372 7.16177H8.10328L8.07328 6.90601L7.4724 6.90753V6.90761L7.47236 6.90757ZM7.43396 7.16237H8.1118C8.12608 7.16237 8.1378 7.17649 8.1378 7.19373C8.1378 7.21093 8.12608 7.22493 8.1118 7.22493H7.43396C7.41968 7.22493 7.40796 7.21093 7.40796 7.19373C7.40796 7.17653 7.41968 7.16237 7.43396 7.16237Z" fill="#FFFF00" stroke="black" stroke-width="0.533335"/>
<g id="Vector_24">
<path d="M7.68026 7.16117C7.68098 7.02865 7.77074 6.99117 7.77122 6.99125C7.77122 6.99125 7.8649 7.02989 7.86562 7.16117H7.68026ZM7.44826 6.80197H8.09806C8.11174 6.80197 8.12298 6.81469 8.12298 6.83017C8.12298 6.84565 8.11178 6.85833 8.09806 6.85833H7.44826C7.43458 6.85833 7.42334 6.84569 7.42334 6.83013C7.42334 6.81465 7.43454 6.80193 7.44826 6.80193V6.80197ZM7.46186 6.85877H8.08338C8.09646 6.85877 8.10718 6.87145 8.10718 6.88693C8.10718 6.90245 8.09646 6.91509 8.08338 6.91509H7.46186C7.44878 6.91509 7.43806 6.90245 7.43806 6.88693C7.43806 6.87145 7.44878 6.85877 7.46186 6.85877ZM7.66266 6.43517L7.71174 6.43525V6.47005H7.74754V6.43445L7.79782 6.43465V6.47013H7.83366V6.43453H7.88398L7.8839 6.51493C7.8839 6.52761 7.87374 6.53573 7.8619 6.53573H7.6855C7.67366 6.53573 7.6627 6.52629 7.6627 6.51473L7.66254 6.43513L7.66266 6.43517ZM7.84746 6.54277L7.85854 6.80077L7.68642 6.80017L7.69782 6.54209L7.84742 6.54277" fill="#FFFF00"/>
<path d="M7.84746 6.54277L7.85854 6.80077L7.68642 6.80017L7.69782 6.54209L7.84742 6.54277M7.68026 7.16117C7.68098 7.02865 7.77074 6.99117 7.77122 6.99125C7.77122 6.99125 7.8649 7.02989 7.86562 7.16117H7.68026ZM7.44826 6.80197H8.09806C8.11174 6.80197 8.12298 6.81469 8.12298 6.83017C8.12298 6.84565 8.11178 6.85833 8.09806 6.85833H7.44826C7.43458 6.85833 7.42334 6.84569 7.42334 6.83013C7.42334 6.81465 7.43454 6.80193 7.44826 6.80193V6.80197ZM7.46186 6.85877H8.08338C8.09646 6.85877 8.10718 6.87145 8.10718 6.88693C8.10718 6.90245 8.09646 6.91509 8.08338 6.91509H7.46186C7.44878 6.91509 7.43806 6.90245 7.43806 6.88693C7.43806 6.87145 7.44878 6.85877 7.46186 6.85877ZM7.66266 6.43517L7.71174 6.43525V6.47005H7.74754V6.43445L7.79782 6.43465V6.47013H7.83366V6.43453H7.88398L7.8839 6.51493C7.8839 6.52761 7.87374 6.53573 7.8619 6.53573H7.6855C7.67366 6.53573 7.6627 6.52629 7.6627 6.51473L7.66254 6.43513L7.66266 6.43517Z" stroke="black" stroke-width="0.533335"/>
</g>
<path id="a" d="M7.63754 6.66235L7.64274 6.80147H7.47778L7.48242 6.66235H7.63762H7.63754Z" fill="#FFFF00" stroke="black" stroke-width="0.533335"/>
<path id="a_2" d="M8.06186 6.66235L8.06706 6.80147H7.9021L7.90674 6.66235H8.06194H8.06186Z" fill="#FFFF00" stroke="black" stroke-width="0.533335"/>
<path id="b" d="M7.4519 6.56159L7.4999 6.56171V6.59659H7.53498V6.56091L7.58418 6.56107V6.59667H7.61938V6.56091L7.66858 6.56099L7.66847 6.64147C7.66847 6.65403 7.65846 6.66219 7.64702 6.66219H7.47434C7.46274 6.66219 7.45202 6.65279 7.45202 6.64119L7.4519 6.56159Z" fill="#FFFF00" stroke="black" stroke-width="0.533335"/>
<path id="b_2" d="M7.87622 6.56159L7.92422 6.56171V6.59659H7.9593V6.56091L8.0085 6.56107V6.59667H8.0437V6.56091L8.0929 6.56099L8.09278 6.64147C8.09278 6.65403 8.08278 6.66219 8.07134 6.66219H7.89866C7.88706 6.66219 7.87634 6.65279 7.87634 6.64119L7.87622 6.56159Z" fill="#FFFF00" stroke="black" stroke-width="0.533335"/>
<path id="Vector_25" d="M7.75588 6.62438C7.75484 6.5993 7.79096 6.59902 7.79052 6.62438V6.68582H7.75588V6.62438Z" fill="black"/>
<path id="c" d="M7.54272 6.71355C7.5426 6.68931 7.5762 6.68883 7.57576 6.71355V6.76103H7.54272V6.71355Z" fill="black"/>
<path id="c_2" d="M7.96851 6.71355C7.96839 6.68931 8.00199 6.68883 8.00155 6.71355V6.76103H7.96851V6.71355Z" fill="black"/>
</g>
<g id="d_2">
<path id="Vector_26" d="M7.60767 9.02999C7.61307 8.80919 7.76975 8.75687 7.77087 8.75611C7.77207 8.75531 7.94015 8.81239 7.93959 9.03203L7.60767 9.03003" fill="#FFFF00"/>
<path id="Vector_27" d="M7.47236 8.76035L7.44508 9.01415L7.61068 9.01455C7.61228 8.80455 7.76968 8.76959 7.77348 8.77039C7.77708 8.77023 7.93308 8.81679 7.9372 9.01455H8.10328L8.07328 8.75879L7.4724 8.76031V8.76039L7.47236 8.76035ZM7.43396 9.01515H8.1118C8.12608 9.01515 8.1378 9.02927 8.1378 9.04651C8.1378 9.06371 8.12608 9.07771 8.1118 9.07771H7.43396C7.41968 9.07771 7.40796 9.06371 7.40796 9.04651C7.40796 9.02931 7.41968 9.01515 7.43396 9.01515Z" fill="#FFFF00" stroke="black" stroke-width="0.533335"/>
<g id="Vector_28">
<path d="M7.68026 9.01395C7.68098 8.88143 7.77074 8.84395 7.77122 8.84403C7.77122 8.84403 7.8649 8.88267 7.86562 9.01395H7.68026ZM7.44826 8.65475H8.09806C8.11174 8.65475 8.12298 8.66747 8.12298 8.68295C8.12298 8.69843 8.11178 8.71111 8.09806 8.71111H7.44826C7.43458 8.71111 7.42334 8.69847 7.42334 8.68291C7.42334 8.66743 7.43454 8.65471 7.44826 8.65471V8.65475ZM7.46186 8.71155H8.08338C8.09646 8.71155 8.10718 8.72423 8.10718 8.73971C8.10718 8.75523 8.09646 8.76787 8.08338 8.76787H7.46186C7.44878 8.76787 7.43806 8.75523 7.43806 8.73971C7.43806 8.72423 7.44878 8.71155 7.46186 8.71155ZM7.66266 8.28795L7.71174 8.28803V8.32283H7.74754V8.28723L7.79782 8.28743V8.32291H7.83366V8.28731H7.88398L7.8839 8.36771C7.8839 8.38039 7.87374 8.38851 7.8619 8.38851H7.6855C7.67366 8.38851 7.6627 8.37907 7.6627 8.36751L7.66254 8.28791L7.66266 8.28795ZM7.84746 8.39555L7.85854 8.65355L7.68642 8.65295L7.69782 8.39487L7.84742 8.39555" fill="#FFFF00"/>
<path d="M7.84746 8.39555L7.85854 8.65355L7.68642 8.65295L7.69782 8.39487L7.84742 8.39555M7.68026 9.01395C7.68098 8.88143 7.77074 8.84395 7.77122 8.84403C7.77122 8.84403 7.8649 8.88267 7.86562 9.01395H7.68026ZM7.44826 8.65475H8.09806C8.11174 8.65475 8.12298 8.66747 8.12298 8.68295C8.12298 8.69843 8.11178 8.71111 8.09806 8.71111H7.44826C7.43458 8.71111 7.42334 8.69847 7.42334 8.68291C7.42334 8.66743 7.43454 8.65471 7.44826 8.65471V8.65475ZM7.46186 8.71155H8.08338C8.09646 8.71155 8.10718 8.72423 8.10718 8.73971C8.10718 8.75523 8.09646 8.76787 8.08338 8.76787H7.46186C7.44878 8.76787 7.43806 8.75523 7.43806 8.73971C7.43806 8.72423 7.44878 8.71155 7.46186 8.71155ZM7.66266 8.28795L7.71174 8.28803V8.32283H7.74754V8.28723L7.79782 8.28743V8.32291H7.83366V8.28731H7.88398L7.8839 8.36771C7.8839 8.38039 7.87374 8.38851 7.8619 8.38851H7.6855C7.67366 8.38851 7.6627 8.37907 7.6627 8.36751L7.66254 8.28791L7.66266 8.28795Z" stroke="black" stroke-width="0.533335"/>
</g>
<path id="a_3" d="M7.63754 8.51514L7.64274 8.65426H7.47778L7.48242 8.51514H7.63762H7.63754Z" fill="#FFFF00" stroke="black" stroke-width="0.533335"/>
<path id="a_4" d="M8.06186 8.51514L8.06706 8.65426H7.9021L7.90674 8.51514H8.06194H8.06186Z" fill="#FFFF00" stroke="black" stroke-width="0.533335"/>
<path id="b_3" d="M7.4519 8.41438L7.4999 8.4145V8.44938H7.53498V8.4137L7.58418 8.41386V8.44946H7.61938V8.4137L7.66858 8.41378L7.66847 8.49426C7.66847 8.50682 7.65846 8.51498 7.64702 8.51498H7.47434C7.46274 8.51498 7.45202 8.50558 7.45202 8.49398L7.4519 8.41438Z" fill="#FFFF00" stroke="black" stroke-width="0.533335"/>
<path id="b_4" d="M7.87622 8.41438L7.92422 8.4145V8.44938H7.9593V8.4137L8.0085 8.41386V8.44946H8.0437V8.4137L8.0929 8.41378L8.09278 8.49426C8.09278 8.50682 8.08278 8.51498 8.07134 8.51498H7.89866C7.88706 8.51498 7.87634 8.50558 7.87634 8.49398L7.87622 8.41438Z" fill="#FFFF00" stroke="black" stroke-width="0.533335"/>
<path id="Vector_29" d="M7.75588 8.47717C7.75484 8.45209 7.79096 8.45181 7.79052 8.47717V8.53861H7.75588V8.47717Z" fill="black"/>
<path id="c_3" d="M7.54272 8.56633C7.5426 8.54209 7.5762 8.54161 7.57576 8.56633V8.61381H7.54272V8.56633Z" fill="black"/>
<path id="c_4" d="M7.96851 8.56633C7.96839 8.54209 8.00199 8.54161 8.00155 8.56633V8.61381H7.96851V8.56633Z" fill="black"/>
</g>
<g id="d_3">
<path id="Vector_30" d="M8.33009 10.9585C8.17722 10.7991 8.25049 10.651 8.25074 10.6497C8.25102 10.6483 8.40995 10.5692 8.56542 10.7244L8.33012 10.9585" fill="#FFFF00"/>
<path id="Vector_31" d="M8.04355 10.8645L8.20443 11.0626L8.3214 10.9454C8.17351 10.7963 8.25961 10.66 8.26285 10.6579C8.26527 10.6552 8.40823 10.5773 8.55147 10.7137L8.66849 10.5959L8.46586 10.4369L8.04355 10.8644L8.04361 10.8645L8.04355 10.8645ZM8.1973 11.0712L8.67492 10.5902C8.68498 10.5801 8.70326 10.5817 8.71549 10.5939C8.72769 10.606 8.72937 10.6242 8.71931 10.6343L8.2417 11.1153C8.23163 11.1255 8.21344 11.1239 8.20124 11.1118C8.18903 11.0997 8.18724 11.0814 8.1973 11.0712Z" fill="#FFFF00" stroke="black" stroke-width="0.533335"/>
<g id="Vector_32">
<path d="M8.37005 10.8955C8.27652 10.8017 8.31317 10.7116 8.31356 10.7113C8.31356 10.7113 8.40699 10.672 8.50065 10.764L8.37005 10.8955ZM7.95169 10.8071L8.40955 10.346C8.41919 10.3363 8.43613 10.3373 8.44712 10.3482C8.4581 10.3591 8.45921 10.376 8.44954 10.3857L7.99168 10.8468C7.98204 10.8565 7.96515 10.8556 7.95411 10.8446C7.94313 10.8337 7.94199 10.8168 7.95166 10.807L7.95169 10.8071ZM8.00158 10.8374L8.43951 10.3964C8.44872 10.3871 8.46528 10.3885 8.47626 10.3994C8.48727 10.4103 8.48869 10.4268 8.47947 10.4361L8.04154 10.8771C8.03233 10.8864 8.0158 10.8851 8.00479 10.8742C7.99381 10.8633 7.99236 10.8467 8.00158 10.8374ZM7.84248 10.3965L7.87712 10.3617L7.90181 10.3862L7.92704 10.3608L7.90177 10.3357L7.93734 10.3002L7.96252 10.3252L7.98777 10.2998L7.96251 10.2747L7.99797 10.239L8.05496 10.2957C8.06396 10.3046 8.06256 10.3176 8.05422 10.326L7.92993 10.4511C7.92159 10.4595 7.90717 10.4607 7.89896 10.4525L7.84237 10.3965L7.84248 10.3965ZM8.04904 10.3412L8.23993 10.5151L8.11822 10.6368L7.94312 10.4469L8.04902 10.3412" fill="#FFFF00"/>
<path d="M8.04904 10.3412L8.23993 10.5151L8.11822 10.6368L7.94312 10.4469L8.04902 10.3412M8.37005 10.8955C8.27652 10.8017 8.31317 10.7116 8.31356 10.7113C8.31356 10.7113 8.40699 10.672 8.50065 10.764L8.37005 10.8955ZM7.95169 10.8071L8.40955 10.346C8.41919 10.3363 8.43613 10.3373 8.44712 10.3482C8.4581 10.3591 8.45921 10.376 8.44954 10.3857L7.99168 10.8468C7.98204 10.8565 7.96515 10.8556 7.95411 10.8446C7.94313 10.8337 7.94199 10.8168 7.95166 10.807L7.95169 10.8071ZM8.00158 10.8374L8.43951 10.3964C8.44872 10.3871 8.46528 10.3885 8.47626 10.3994C8.48727 10.4103 8.48869 10.4268 8.47947 10.4361L8.04154 10.8771C8.03233 10.8864 8.0158 10.8851 8.00479 10.8742C7.99381 10.8633 7.99236 10.8467 8.00158 10.8374ZM7.84248 10.3965L7.87712 10.3617L7.90181 10.3862L7.92704 10.3608L7.90177 10.3357L7.93734 10.3002L7.96252 10.3252L7.98777 10.2998L7.96251 10.2747L7.99797 10.239L8.05496 10.2957C8.06396 10.3046 8.06256 10.3176 8.05422 10.326L7.92993 10.4511C7.92159 10.4595 7.90717 10.4607 7.89896 10.4525L7.84237 10.3965L7.84248 10.3965Z" stroke="black" stroke-width="0.533335"/>
</g>
<path id="a_5" d="M7.98586 10.5745L8.08824 10.6688L7.97201 10.7859L7.87656 10.6846L7.98592 10.5744L7.98586 10.5745Z" fill="#FFFF00" stroke="black" stroke-width="0.533335"/>
<path id="a_6" d="M8.28493 10.2734L8.38732 10.3677L8.27108 10.4847L8.17563 10.3834L8.28499 10.2733L8.28493 10.2734Z" fill="#FFFF00" stroke="black" stroke-width="0.533335"/>
<path id="b_5" d="M7.78344 10.6351L7.81735 10.6011L7.8421 10.6257L7.86682 10.6008L7.8415 10.5757L7.87628 10.5409L7.90154 10.566L7.92634 10.541L7.90097 10.5158L7.93569 10.4809L7.99272 10.5377C8.00163 10.5466 8.00037 10.5594 7.99231 10.5676L7.87064 10.6901C7.86246 10.6983 7.84824 10.6993 7.84001 10.6911L7.78344 10.6351Z" fill="#FFFF00" stroke="black" stroke-width="0.533335"/>
<path id="b_6" d="M8.08251 10.334L8.11642 10.3L8.14117 10.3246L8.16589 10.2997L8.14057 10.2745L8.17535 10.2397L8.20061 10.2648L8.22542 10.2399L8.20004 10.2147L8.23476 10.1798L8.29179 10.2366C8.3007 10.2454 8.29944 10.2583 8.29138 10.2664L8.16971 10.3889C8.16154 10.3972 8.14731 10.3982 8.13908 10.39L8.08251 10.334Z" fill="#FFFF00" stroke="black" stroke-width="0.533335"/>
<path id="Vector_33" d="M8.04225 10.4636C8.02372 10.4467 8.04897 10.4209 8.06665 10.439L8.11025 10.4823L8.08584 10.5069L8.04225 10.4636Z" fill="black"/>
<path id="c_5" d="M7.95541 10.6779C7.93813 10.6609 7.96146 10.6367 7.97869 10.6544L8.01238 10.6879L7.9891 10.7113L7.95541 10.6779Z" fill="black"/>
<path id="c_6" d="M8.25522 10.3757C8.23793 10.3587 8.26127 10.3346 8.2785 10.3523L8.31219 10.3857L8.28891 10.4092L8.25522 10.3757Z" fill="black"/>
</g>
</g>
<g id="d_4">
<path id="Vector_34" d="M9.43628 7.17721C9.44168 6.95641 9.59836 6.90409 9.59948 6.90333C9.60068 6.90253 9.76876 6.95961 9.7682 7.17925L9.43628 7.17725" fill="#FFFF00"/>
<path id="Vector_35" d="M9.30097 6.90757L9.27369 7.16137L9.43929 7.16177C9.44089 6.95177 9.59829 6.91681 9.60209 6.91761C9.60569 6.91745 9.76169 6.96401 9.76581 7.16177H9.93189L9.90189 6.90601L9.30101 6.90753V6.90761L9.30097 6.90757ZM9.26257 7.16237H9.94041C9.95469 7.16237 9.96641 7.17649 9.96641 7.19373C9.96641 7.21093 9.95469 7.22493 9.94041 7.22493H9.26257C9.24829 7.22493 9.23657 7.21093 9.23657 7.19373C9.23657 7.17653 9.24829 7.16237 9.26257 7.16237Z" fill="#FFFF00" stroke="black" stroke-width="0.533335"/>
<g id="Vector_36">
<path d="M9.50887 7.16117C9.50959 7.02865 9.59935 6.99117 9.59983 6.99125C9.59983 6.99125 9.69351 7.02989 9.69423 7.16117H9.50887ZM9.27687 6.80197H9.92668C9.94036 6.80197 9.9516 6.81469 9.9516 6.83017C9.9516 6.84565 9.9404 6.85833 9.92668 6.85833H9.27687C9.26319 6.85833 9.25195 6.84569 9.25195 6.83013C9.25195 6.81465 9.26315 6.80193 9.27687 6.80193V6.80197ZM9.29047 6.85877H9.91199C9.92507 6.85877 9.9358 6.87145 9.9358 6.88693C9.9358 6.90245 9.92507 6.91509 9.91199 6.91509H9.29047C9.27739 6.91509 9.26667 6.90245 9.26667 6.88693C9.26667 6.87145 9.27739 6.85877 9.29047 6.85877ZM9.49127 6.43517L9.54035 6.43525V6.47005H9.57615V6.43445L9.62643 6.43465V6.47013H9.66227V6.43453H9.71259L9.71251 6.51493C9.71251 6.52761 9.70235 6.53573 9.69051 6.53573H9.51411C9.50227 6.53573 9.49131 6.52629 9.49131 6.51473L9.49115 6.43513L9.49127 6.43517ZM9.67607 6.54277L9.68715 6.80077L9.51503 6.80017L9.52643 6.54209L9.67603 6.54277" fill="#FFFF00"/>
<path d="M9.67607 6.54277L9.68715 6.80077L9.51503 6.80017L9.52643 6.54209L9.67603 6.54277M9.50887 7.16117C9.50959 7.02865 9.59935 6.99117 9.59983 6.99125C9.59983 6.99125 9.69351 7.02989 9.69423 7.16117H9.50887ZM9.27687 6.80197H9.92668C9.94036 6.80197 9.9516 6.81469 9.9516 6.83017C9.9516 6.84565 9.9404 6.85833 9.92668 6.85833H9.27687C9.26319 6.85833 9.25195 6.84569 9.25195 6.83013C9.25195 6.81465 9.26315 6.80193 9.27687 6.80193V6.80197ZM9.29047 6.85877H9.91199C9.92507 6.85877 9.93579 6.87145 9.93579 6.88693C9.93579 6.90245 9.92507 6.91509 9.91199 6.91509H9.29047C9.27739 6.91509 9.26667 6.90245 9.26667 6.88693C9.26667 6.87145 9.27739 6.85877 9.29047 6.85877ZM9.49127 6.43517L9.54035 6.43525V6.47005H9.57615V6.43445L9.62643 6.43465V6.47013H9.66227V6.43453H9.71259L9.71251 6.51493C9.71251 6.52761 9.70235 6.53573 9.69051 6.53573H9.51411C9.50227 6.53573 9.49131 6.52629 9.49131 6.51473L9.49115 6.43513L9.49127 6.43517Z" stroke="black" stroke-width="0.533335"/>
</g>
<path id="a_7" d="M9.46616 6.66235L9.47136 6.80147H9.3064L9.31104 6.66235H9.46624H9.46616Z" fill="#FFFF00" stroke="black" stroke-width="0.533335"/>
<path id="a_8" d="M9.89047 6.66235L9.89567 6.80147H9.73071L9.73535 6.66235H9.89055H9.89047Z" fill="#FFFF00" stroke="black" stroke-width="0.533335"/>
<path id="b_7" d="M9.28052 6.56159L9.32852 6.56171V6.59659H9.3636V6.56091L9.4128 6.56107V6.59667H9.448V6.56091L9.4972 6.56099L9.49708 6.64147C9.49708 6.65403 9.48708 6.66219 9.47564 6.66219H9.30296C9.29136 6.66219 9.28064 6.65279 9.28064 6.64119L9.28052 6.56159Z" fill="#FFFF00" stroke="black" stroke-width="0.533335"/>
<path id="b_8" d="M9.70483 6.56159L9.75283 6.56171V6.59659H9.78791V6.56091L9.83711 6.56107V6.59667H9.87231V6.56091L9.92151 6.56099L9.92139 6.64147C9.92139 6.65403 9.91139 6.66219 9.89995 6.66219H9.72727C9.71567 6.66219 9.70495 6.65279 9.70495 6.64119L9.70483 6.56159Z" fill="#FFFF00" stroke="black" stroke-width="0.533335"/>
<path id="Vector_37" d="M9.58449 6.62438C9.58345 6.5993 9.61958 6.59902 9.61914 6.62438V6.68582H9.58449V6.62438Z" fill="black"/>
<path id="c_7" d="M9.37134 6.71355C9.37122 6.68931 9.40482 6.68883 9.40438 6.71355V6.76103H9.37134V6.71355Z" fill="black"/>
<path id="c_8" d="M9.79712 6.71355C9.797 6.68931 9.8306 6.68883 9.83016 6.71355V6.76103H9.79712V6.71355Z" fill="black"/>
</g>
<g id="e_2">
<g id="d_5">
<path id="Vector_38" d="M11.584 7.17721C11.5786 6.95641 11.4219 6.90409 11.4208 6.90333C11.4196 6.90253 11.2515 6.95961 11.2521 7.17925L11.584 7.17725" fill="#FFFF00"/>
<path id="Vector_39" d="M11.7193 6.90757L11.7466 7.16137L11.581 7.16177C11.5794 6.95177 11.422 6.91681 11.4182 6.91761C11.4146 6.91745 11.2586 6.96401 11.2544 7.16177H11.0884L11.1184 6.90601L11.7193 6.90753V6.90761L11.7193 6.90757ZM11.7577 7.16237H11.0798C11.0656 7.16237 11.0538 7.17649 11.0538 7.19373C11.0538 7.21093 11.0656 7.22493 11.0798 7.22493H11.7577C11.772 7.22493 11.7837 7.21093 11.7837 7.19373C11.7837 7.17653 11.772 7.16237 11.7577 7.16237Z" fill="#FFFF00" stroke="black" stroke-width="0.533335"/>
<g id="Vector_40">
<path d="M11.5114 7.16117C11.5107 7.02865 11.4209 6.99117 11.4204 6.99125C11.4204 6.99125 11.3267 7.02989 11.326 7.16117H11.5114ZM11.7434 6.80197H11.0936C11.0799 6.80197 11.0687 6.81469 11.0687 6.83017C11.0687 6.84565 11.0799 6.85833 11.0936 6.85833H11.7434C11.7571 6.85833 11.7683 6.84569 11.7683 6.83013C11.7683 6.81465 11.7571 6.80193 11.7434 6.80193V6.80197ZM11.7298 6.85877H11.1083C11.0952 6.85877 11.0845 6.87145 11.0845 6.88693C11.0845 6.90245 11.0952 6.91509 11.1083 6.91509H11.7298C11.7429 6.91509 11.7536 6.90245 11.7536 6.88693C11.7536 6.87145 11.7429 6.85877 11.7298 6.85877ZM11.529 6.43517L11.4799 6.43525V6.47005H11.4441V6.43445L11.3938 6.43465V6.47013H11.358V6.43453H11.3077L11.3077 6.51493C11.3077 6.52761 11.3179 6.53573 11.3297 6.53573H11.5061C11.518 6.53573 11.529 6.52629 11.529 6.51473L11.5291 6.43513L11.529 6.43517ZM11.3442 6.54277L11.3331 6.80077L11.5052 6.80017L11.4938 6.54209L11.3442 6.54277" fill="#FFFF00"/>
<path d="M11.3442 6.54277L11.3331 6.80077L11.5052 6.80017L11.4938 6.54209L11.3442 6.54277M11.5114 7.16117C11.5107 7.02865 11.4209 6.99117 11.4204 6.99125C11.4204 6.99125 11.3267 7.02989 11.326 7.16117H11.5114ZM11.7434 6.80197H11.0936C11.0799 6.80197 11.0687 6.81469 11.0687 6.83017C11.0687 6.84565 11.0799 6.85833 11.0936 6.85833H11.7434C11.7571 6.85833 11.7683 6.84569 11.7683 6.83013C11.7683 6.81465 11.7571 6.80193 11.7434 6.80193V6.80197ZM11.7298 6.85877H11.1083C11.0952 6.85877 11.0845 6.87145 11.0845 6.88693C11.0845 6.90245 11.0952 6.91509 11.1083 6.91509H11.7298C11.7429 6.91509 11.7536 6.90245 11.7536 6.88693C11.7536 6.87145 11.7429 6.85877 11.7298 6.85877ZM11.529 6.43517L11.4799 6.43525V6.47005H11.4441V6.43445L11.3938 6.43465V6.47013H11.358V6.43453H11.3077L11.3077 6.51493C11.3077 6.52761 11.3179 6.53573 11.3297 6.53573H11.5061C11.518 6.53573 11.529 6.52629 11.529 6.51473L11.5291 6.43513L11.529 6.43517Z" stroke="black" stroke-width="0.533335"/>
</g>
<path id="a_9" d="M11.5541 6.66235L11.5489 6.80147H11.7139L11.7092 6.66235H11.554H11.5541Z" fill="#FFFF00" stroke="black" stroke-width="0.533335"/>
<path id="a_10" d="M11.1298 6.66235L11.1246 6.80147H11.2896L11.2849 6.66235H11.1297H11.1298Z" fill="#FFFF00" stroke="black" stroke-width="0.533335"/>
<path id="b_9" d="M11.7397 6.56159L11.6917 6.56171V6.59659H11.6567V6.56091L11.6075 6.56107V6.59667H11.5723V6.56091L11.5231 6.56099L11.5232 6.64147C11.5232 6.65403 11.5332 6.66219 11.5446 6.66219H11.7173C11.7289 6.66219 11.7396 6.65279 11.7396 6.64119L11.7397 6.56159Z" fill="#FFFF00" stroke="black" stroke-width="0.533335"/>
<path id="b_10" d="M11.3154 6.56159L11.2674 6.56171V6.59659H11.2323V6.56091L11.1831 6.56107V6.59667H11.1479V6.56091L11.0987 6.56099L11.0989 6.64147C11.0989 6.65403 11.1089 6.66219 11.1203 6.66219H11.293C11.3046 6.66219 11.3153 6.65279 11.3153 6.64119L11.3154 6.56159Z" fill="#FFFF00" stroke="black" stroke-width="0.533335"/>
<path id="Vector_41" d="M11.4358 6.62438C11.4368 6.5993 11.4007 6.59902 11.4011 6.62438V6.68582H11.4358V6.62438Z" fill="black"/>
<path id="c_9" d="M11.6489 6.71355C11.649 6.68931 11.6154 6.68883 11.6159 6.71355V6.76103H11.6489V6.71355Z" fill="black"/>
<path id="c_10" d="M11.2231 6.71355C11.2233 6.68931 11.1897 6.68883 11.1901 6.71355V6.76103H11.2231V6.71355Z" fill="black"/>
</g>
<g id="d_6">
<path id="Vector_42" d="M11.584 9.02999C11.5786 8.80919 11.4219 8.75687 11.4208 8.75611C11.4196 8.75531 11.2515 8.81239 11.2521 9.03203L11.584 9.03003" fill="#FFFF00"/>
<path id="Vector_43" d="M11.7193 8.76035L11.7466 9.01415L11.581 9.01455C11.5794 8.80455 11.422 8.76959 11.4182 8.77039C11.4146 8.77023 11.2586 8.81679 11.2544 9.01455H11.0884L11.1184 8.75879L11.7193 8.76031V8.76039L11.7193 8.76035ZM11.7577 9.01515H11.0798C11.0656 9.01515 11.0538 9.02927 11.0538 9.04651C11.0538 9.06371 11.0656 9.07771 11.0798 9.07771H11.7577C11.772 9.07771 11.7837 9.06371 11.7837 9.04651C11.7837 9.02931 11.772 9.01515 11.7577 9.01515Z" fill="#FFFF00" stroke="black" stroke-width="0.533335"/>
<g id="Vector_44">
<path d="M11.5114 9.01395C11.5107 8.88143 11.4209 8.84395 11.4204 8.84403C11.4204 8.84403 11.3267 8.88267 11.326 9.01395H11.5114ZM11.7434 8.65475H11.0936C11.0799 8.65475 11.0687 8.66747 11.0687 8.68295C11.0687 8.69843 11.0799 8.71111 11.0936 8.71111H11.7434C11.7571 8.71111 11.7683 8.69847 11.7683 8.68291C11.7683 8.66743 11.7571 8.65471 11.7434 8.65471V8.65475ZM11.7298 8.71155H11.1083C11.0952 8.71155 11.0845 8.72423 11.0845 8.73971C11.0845 8.75523 11.0952 8.76787 11.1083 8.76787H11.7298C11.7429 8.76787 11.7536 8.75523 11.7536 8.73971C11.7536 8.72423 11.7429 8.71155 11.7298 8.71155ZM11.529 8.28795L11.4799 8.28803V8.32283H11.4441V8.28723L11.3938 8.28743V8.32291H11.358V8.28731H11.3077L11.3077 8.36771C11.3077 8.38039 11.3179 8.38851 11.3297 8.38851H11.5061C11.518 8.38851 11.529 8.37907 11.529 8.36751L11.5291 8.28791L11.529 8.28795ZM11.3442 8.39555L11.3331 8.65355L11.5052 8.65295L11.4938 8.39487L11.3442 8.39555" fill="#FFFF00"/>
<path d="M11.3442 8.39555L11.3331 8.65355L11.5052 8.65295L11.4938 8.39487L11.3442 8.39555M11.5114 9.01395C11.5107 8.88143 11.4209 8.84395 11.4204 8.84403C11.4204 8.84403 11.3267 8.88267 11.326 9.01395H11.5114ZM11.7434 8.65475H11.0936C11.0799 8.65475 11.0687 8.66747 11.0687 8.68295C11.0687 8.69843 11.0799 8.71111 11.0936 8.71111H11.7434C11.7571 8.71111 11.7683 8.69847 11.7683 8.68291C11.7683 8.66743 11.7571 8.65471 11.7434 8.65471V8.65475ZM11.7298 8.71155H11.1083C11.0952 8.71155 11.0845 8.72423 11.0845 8.73971C11.0845 8.75523 11.0952 8.76787 11.1083 8.76787H11.7298C11.7429 8.76787 11.7536 8.75523 11.7536 8.73971C11.7536 8.72423 11.7429 8.71155 11.7298 8.71155ZM11.529 8.28795L11.4799 8.28803V8.32283H11.4441V8.28723L11.3938 8.28743V8.32291H11.358V8.28731H11.3077L11.3077 8.36771C11.3077 8.38039 11.3179 8.38851 11.3297 8.38851H11.5061C11.518 8.38851 11.529 8.37907 11.529 8.36751L11.5291 8.28791L11.529 8.28795Z" stroke="black" stroke-width="0.533335"/>
</g>
<path id="a_11" d="M11.5541 8.51514L11.5489 8.65426H11.7139L11.7092 8.51514H11.554H11.5541Z" fill="#FFFF00" stroke="black" stroke-width="0.533335"/>
<path id="a_12" d="M11.1298 8.51514L11.1246 8.65426H11.2896L11.2849 8.51514H11.1297H11.1298Z" fill="#FFFF00" stroke="black" stroke-width="0.533335"/>
<path id="b_11" d="M11.7397 8.41438L11.6917 8.4145V8.44938H11.6567V8.4137L11.6075 8.41386V8.44946H11.5723V8.4137L11.5231 8.41378L11.5232 8.49426C11.5232 8.50682 11.5332 8.51498 11.5446 8.51498H11.7173C11.7289 8.51498 11.7396 8.50558 11.7396 8.49398L11.7397 8.41438Z" fill="#FFFF00" stroke="black" stroke-width="0.533335"/>
<path id="b_12" d="M11.3154 8.41438L11.2674 8.4145V8.44938H11.2323V8.4137L11.1831 8.41386V8.44946H11.1479V8.4137L11.0987 8.41378L11.0989 8.49426C11.0989 8.50682 11.1089 8.51498 11.1203 8.51498H11.293C11.3046 8.51498 11.3153 8.50558 11.3153 8.49398L11.3154 8.41438Z" fill="#FFFF00" stroke="black" stroke-width="0.533335"/>
<path id="Vector_45" d="M11.4358 8.47717C11.4368 8.45209 11.4007 8.45181 11.4011 8.47717V8.53861H11.4358V8.47717Z" fill="black"/>
<path id="c_11" d="M11.6489 8.56633C11.649 8.54209 11.6154 8.54161 11.6159 8.56633V8.61381H11.6489V8.56633Z" fill="black"/>
<path id="c_12" d="M11.2231 8.56633C11.2233 8.54209 11.1897 8.54161 11.1901 8.56633V8.61381H11.2231V8.56633Z" fill="black"/>
</g>
<g id="d_7">
<path id="Vector_46" d="M10.8616 10.9585C11.0144 10.7991 10.9412 10.651 10.9409 10.6497C10.9406 10.6483 10.7817 10.5692 10.6262 10.7244L10.8615 10.9585" fill="#FFFF00"/>
<path id="Vector_47" d="M11.1481 10.8645L10.9872 11.0626L10.8703 10.9454C11.0181 10.7963 10.932 10.66 10.9288 10.6579C10.9264 10.6552 10.7834 10.5773 10.6402 10.7137L10.5232 10.5959L10.7258 10.4369L11.1481 10.8644L11.148 10.8645L11.1481 10.8645ZM10.9943 11.0712L10.5167 10.5902C10.5067 10.5801 10.4884 10.5817 10.4762 10.5939C10.464 10.606 10.4623 10.6242 10.4723 10.6343L10.95 11.1153C10.96 11.1255 10.9782 11.1239 10.9904 11.1118C11.0026 11.0997 11.0044 11.0814 10.9943 11.0712Z" fill="#FFFF00" stroke="black" stroke-width="0.533335"/>
<g id="Vector_48">
<path d="M10.8216 10.8955C10.9151 10.8017 10.8785 10.7116 10.8781 10.7113C10.8781 10.7113 10.7847 10.672 10.691 10.764L10.8216 10.8955ZM11.24 10.8071L10.7821 10.346C10.7725 10.3363 10.7555 10.3373 10.7445 10.3482C10.7335 10.3591 10.7324 10.376 10.7421 10.3857L11.2 10.8468C11.2096 10.8565 11.2265 10.8556 11.2375 10.8446C11.2485 10.8337 11.2497 10.8168 11.24 10.807L11.24 10.8071ZM11.1901 10.8374L10.7521 10.3964C10.7429 10.3871 10.7264 10.3885 10.7154 10.3994C10.7044 10.4103 10.703 10.4268 10.7122 10.4361L11.1501 10.8771C11.1593 10.8864 11.1758 10.8851 11.1869 10.8742C11.1978 10.8633 11.1993 10.8467 11.1901 10.8374ZM11.3492 10.3965L11.3145 10.3617L11.2898 10.3862L11.2646 10.3608L11.2899 10.3357L11.2543 10.3002L11.2291 10.3252L11.2039 10.2998L11.2291 10.2747L11.1937 10.239L11.1367 10.2957C11.1277 10.3046 11.1291 10.3176 11.1374 10.326L11.2617 10.4511C11.2701 10.4595 11.2845 10.4607 11.2927 10.4525L11.3493 10.3965L11.3492 10.3965ZM11.1426 10.3412L10.9517 10.5151L11.0734 10.6368L11.2485 10.4469L11.1426 10.3412" fill="#FFFF00"/>
<path d="M11.1426 10.3412L10.9517 10.5151L11.0734 10.6368L11.2485 10.4469L11.1426 10.3412M10.8216 10.8955C10.9151 10.8017 10.8785 10.7116 10.8781 10.7113C10.8781 10.7113 10.7847 10.672 10.691 10.764L10.8216 10.8955ZM11.24 10.8071L10.7821 10.346C10.7725 10.3363 10.7555 10.3373 10.7445 10.3482C10.7335 10.3591 10.7324 10.376 10.7421 10.3857L11.2 10.8468C11.2096 10.8565 11.2265 10.8556 11.2375 10.8446C11.2485 10.8337 11.2497 10.8168 11.24 10.807L11.24 10.8071ZM11.1901 10.8374L10.7521 10.3964C10.7429 10.3871 10.7264 10.3885 10.7154 10.3994C10.7044 10.4103 10.703 10.4268 10.7122 10.4361L11.1501 10.8771C11.1593 10.8864 11.1758 10.8851 11.1869 10.8742C11.1978 10.8633 11.1993 10.8467 11.1901 10.8374ZM11.3492 10.3965L11.3145 10.3617L11.2898 10.3862L11.2646 10.3608L11.2899 10.3357L11.2543 10.3002L11.2291 10.3252L11.2039 10.2998L11.2291 10.2747L11.1937 10.239L11.1367 10.2957C11.1277 10.3046 11.1291 10.3176 11.1374 10.326L11.2617 10.4511C11.2701 10.4595 11.2845 10.4607 11.2927 10.4525L11.3493 10.3965L11.3492 10.3965Z" stroke="black" stroke-width="0.533335"/>
</g>
<path id="a_13" d="M11.2058 10.5745L11.1034 10.6688L11.2196 10.7859L11.3151 10.6846L11.2057 10.5744L11.2058 10.5745Z" fill="#FFFF00" stroke="black" stroke-width="0.533335"/>
<path id="a_14" d="M10.9067 10.2734L10.8043 10.3677L10.9206 10.4847L11.016 10.3834L10.9067 10.2733L10.9067 10.2734Z" fill="#FFFF00" stroke="black" stroke-width="0.533335"/>
<path id="b_13" d="M11.4082 10.6351L11.3743 10.6011L11.3496 10.6257L11.3248 10.6008L11.3502 10.5757L11.3154 10.5409L11.2901 10.566L11.2653 10.541L11.2907 10.5158L11.256 10.4809L11.1989 10.5377C11.19 10.5466 11.1913 10.5594 11.1993 10.5676L11.321 10.6901C11.3292 10.6983 11.3434 10.6993 11.3516 10.6911L11.4082 10.6351Z" fill="#FFFF00" stroke="black" stroke-width="0.533335"/>
<path id="b_14" d="M11.1091 10.334L11.0752 10.3L11.0505 10.3246L11.0258 10.2997L11.0511 10.2745L11.0163 10.2397L10.991 10.2648L10.9662 10.2399L10.9916 10.2147L10.9569 10.1798L10.8999 10.2366C10.891 10.2454 10.8922 10.2583 10.9003 10.2664L11.0219 10.3889C11.0301 10.3972 11.0443 10.3982 11.0526 10.39L11.1091 10.334Z" fill="#FFFF00" stroke="black" stroke-width="0.533335"/>
<path id="Vector_49" d="M11.1494 10.4636C11.1679 10.4467 11.1427 10.4209 11.125 10.439L11.0814 10.4823L11.1058 10.5069L11.1494 10.4636Z" fill="black"/>
<path id="c_13" d="M11.2362 10.6779C11.2535 10.6609 11.2302 10.6367 11.213 10.6544L11.1793 10.6879L11.2025 10.7113L11.2362 10.6779Z" fill="black"/>
<path id="c_14" d="M10.9364 10.3757C10.9537 10.3587 10.9304 10.3346 10.9132 10.3523L10.8795 10.3857L10.9027 10.4092L10.9364 10.3757Z" fill="black"/>
</g>
</g>
<g id="f">
<path id="Vector_50" d="M9.30546 9.09629V9.09649C9.30513 9.18081 9.33674 9.26213 9.39394 9.32409C9.44854 9.38277 9.52374 9.41921 9.60602 9.41921C9.6887 9.41921 9.76378 9.38301 9.81814 9.32461C9.87246 9.26621 9.90622 9.18573 9.90622 9.09689V8.66617L9.30654 8.66565L9.30542 9.09625" fill="#003399"/>
<path id="Vector_51" d="M9.44299 8.8889C9.47581 8.8889 9.50243 8.86229 9.50243 8.82946C9.50243 8.79663 9.47581 8.77002 9.44299 8.77002C9.41016 8.77002 9.38354 8.79663 9.38354 8.82946C9.38354 8.86229 9.41016 8.8889 9.44299 8.8889Z" fill="#F7F7F7"/>
<path id="Vector_52" d="M9.77575 8.88914C9.80858 8.88914 9.83519 8.86253 9.83519 8.8297C9.83519 8.79688 9.80858 8.77026 9.77575 8.77026C9.74292 8.77026 9.71631 8.79688 9.71631 8.8297C9.71631 8.86253 9.74292 8.88914 9.77575 8.88914Z" fill="#F7F7F7"/>
<path id="Vector_53" d="M9.609 9.04893C9.64183 9.04893 9.66844 9.02232 9.66844 8.98949C9.66844 8.95667 9.64183 8.93005 9.609 8.93005C9.57617 8.93005 9.54956 8.95667 9.54956 8.98949C9.54956 9.02232 9.57617 9.04893 9.609 9.04893Z" fill="#F7F7F7"/>
<path id="Vector_54" d="M9.44299 9.21617C9.47581 9.21617 9.50243 9.18956 9.50243 9.15673C9.50243 9.1239 9.47581 9.09729 9.44299 9.09729C9.41016 9.09729 9.38354 9.1239 9.38354 9.15673C9.38354 9.18956 9.41016 9.21617 9.44299 9.21617Z" fill="#F7F7F7"/>
<path id="Vector_55" d="M9.77526 9.21568C9.80809 9.21568 9.8347 9.18907 9.8347 9.15624C9.8347 9.12341 9.80809 9.0968 9.77526 9.0968C9.74243 9.0968 9.71582 9.12341 9.71582 9.15624C9.71582 9.18907 9.74243 9.21568 9.77526 9.21568Z" fill="#F7F7F7"/>
</g>
<g id="f_2">
<path id="Vector_56" d="M9.30546 8.05564V8.05584C9.30513 8.14016 9.33674 8.22148 9.39394 8.28344C9.44854 8.34212 9.52374 8.37856 9.60602 8.37856C9.6887 8.37856 9.76378 8.34236 9.81814 8.28396C9.87246 8.22556 9.90622 8.14508 9.90622 8.05624V7.62552L9.30654 7.625L9.30542 8.0556" fill="#003399"/>
<path id="Vector_57" d="M9.44299 7.84825C9.47581 7.84825 9.50243 7.82164 9.50243 7.78881C9.50243 7.75598 9.47581 7.72937 9.44299 7.72937C9.41016 7.72937 9.38354 7.75598 9.38354 7.78881C9.38354 7.82164 9.41016 7.84825 9.44299 7.84825Z" fill="#F7F7F7"/>
<path id="Vector_58" d="M9.77575 7.84849C9.80858 7.84849 9.83519 7.82188 9.83519 7.78905C9.83519 7.75623 9.80858 7.72961 9.77575 7.72961C9.74292 7.72961 9.71631 7.75623 9.71631 7.78905C9.71631 7.82188 9.74292 7.84849 9.77575 7.84849Z" fill="#F7F7F7"/>
<path id="Vector_59" d="M9.609 8.00828C9.64183 8.00828 9.66844 7.98167 9.66844 7.94884C9.66844 7.91602 9.64183 7.8894 9.609 7.8894C9.57617 7.8894 9.54956 7.91602 9.54956 7.94884C9.54956 7.98167 9.57617 8.00828 9.609 8.00828Z" fill="#F7F7F7"/>
<path id="Vector_60" d="M9.44299 8.17552C9.47581 8.17552 9.50243 8.14891 9.50243 8.11608C9.50243 8.08325 9.47581 8.05664 9.44299 8.05664C9.41016 8.05664 9.38354 8.08325 9.38354 8.11608C9.38354 8.14891 9.41016 8.17552 9.44299 8.17552Z" fill="#F7F7F7"/>
<path id="Vector_61" d="M9.77526 8.17503C9.80809 8.17503 9.8347 8.14842 9.8347 8.11559C9.8347 8.08276 9.80809 8.05615 9.77526 8.05615C9.74243 8.05615 9.71582 8.08276 9.71582 8.11559C9.71582 8.14842 9.74243 8.17503 9.77526 8.17503Z" fill="#F7F7F7"/>
</g>
<g id="f_3">
<path id="Vector_62" d="M8.47343 9.09629V9.09649C8.4731 9.18081 8.50471 9.26213 8.56191 9.32409C8.61651 9.38277 8.69171 9.41921 8.77399 9.41921C8.85667 9.41921 8.93175 9.38301 8.98611 9.32461C9.04043 9.26621 9.07419 9.18573 9.07419 9.09689V8.66617L8.47451 8.66565L8.47339 9.09625" fill="#003399"/>
<path id="Vector_63" d="M8.61095 8.8889C8.64378 8.8889 8.67039 8.86229 8.67039 8.82946C8.67039 8.79663 8.64378 8.77002 8.61095 8.77002C8.57813 8.77002 8.55151 8.79663 8.55151 8.82946C8.55151 8.86229 8.57813 8.8889 8.61095 8.8889Z" fill="#F7F7F7"/>
<path id="Vector_64" d="M8.94372 8.88914C8.97655 8.88914 9.00316 8.86253 9.00316 8.8297C9.00316 8.79688 8.97655 8.77026 8.94372 8.77026C8.91089 8.77026 8.88428 8.79688 8.88428 8.8297C8.88428 8.86253 8.91089 8.88914 8.94372 8.88914Z" fill="#F7F7F7"/>
<path id="Vector_65" d="M8.77697 9.04893C8.8098 9.04893 8.83641 9.02232 8.83641 8.98949C8.83641 8.95667 8.8098 8.93005 8.77697 8.93005C8.74414 8.93005 8.71753 8.95667 8.71753 8.98949C8.71753 9.02232 8.74414 9.04893 8.77697 9.04893Z" fill="#F7F7F7"/>
<path id="Vector_66" d="M8.61095 9.21617C8.64378 9.21617 8.67039 9.18956 8.67039 9.15673C8.67039 9.1239 8.64378 9.09729 8.61095 9.09729C8.57813 9.09729 8.55151 9.1239 8.55151 9.15673C8.55151 9.18956 8.57813 9.21617 8.61095 9.21617Z" fill="#F7F7F7"/>
<path id="Vector_67" d="M8.94323 9.21568C8.97606 9.21568 9.00267 9.18907 9.00267 9.15624C9.00267 9.12341 8.97606 9.0968 8.94323 9.0968C8.9104 9.0968 8.88379 9.12341 8.88379 9.15624C8.88379 9.18907 8.9104 9.21568 8.94323 9.21568Z" fill="#F7F7F7"/>
</g>
<g id="f_4">
<path id="Vector_68" d="M10.1353 9.09629V9.09649C10.135 9.18081 10.1666 9.26213 10.2238 9.32409C10.2784 9.38277 10.3536 9.41921 10.4359 9.41921C10.5185 9.41921 10.5936 9.38301 10.648 9.32461C10.7023 9.26621 10.7361 9.18573 10.7361 9.09689V8.66617L10.1364 8.66565L10.1353 9.09625" fill="#003399"/>
<path id="Vector_69" d="M10.2728 8.8889C10.3056 8.8889 10.3323 8.86229 10.3323 8.82946C10.3323 8.79663 10.3056 8.77002 10.2728 8.77002C10.24 8.77002 10.2134 8.79663 10.2134 8.82946C10.2134 8.86229 10.24 8.8889 10.2728 8.8889Z" fill="#F7F7F7"/>
<path id="Vector_70" d="M10.6056 8.88914C10.6384 8.88914 10.665 8.86253 10.665 8.8297C10.665 8.79688 10.6384 8.77026 10.6056 8.77026C10.5728 8.77026 10.5461 8.79688 10.5461 8.8297C10.5461 8.86253 10.5728 8.88914 10.6056 8.88914Z" fill="#F7F7F7"/>
<path id="Vector_71" d="M10.4388 9.04893C10.4717 9.04893 10.4983 9.02232 10.4983 8.98949C10.4983 8.95667 10.4717 8.93005 10.4388 8.93005C10.406 8.93005 10.3794 8.95667 10.3794 8.98949C10.3794 9.02232 10.406 9.04893 10.4388 9.04893Z" fill="#F7F7F7"/>
<path id="Vector_72" d="M10.2728 9.21617C10.3056 9.21617 10.3323 9.18956 10.3323 9.15673C10.3323 9.1239 10.3056 9.09729 10.2728 9.09729C10.24 9.09729 10.2134 9.1239 10.2134 9.15673C10.2134 9.18956 10.24 9.21617 10.2728 9.21617Z" fill="#F7F7F7"/>
<path id="Vector_73" d="M10.6051 9.21568C10.6379 9.21568 10.6645 9.18907 10.6645 9.15624C10.6645 9.12341 10.6379 9.0968 10.6051 9.0968C10.5723 9.0968 10.5457 9.12341 10.5457 9.15624C10.5457 9.18907 10.5723 9.21568 10.6051 9.21568Z" fill="#F7F7F7"/>
</g>
<g id="f_5">
<path id="Vector_74" d="M9.30546 10.1277V10.1279C9.30513 10.2122 9.33674 10.2935 9.39394 10.3555C9.44854 10.4141 9.52374 10.4506 9.60602 10.4506C9.6887 10.4506 9.76378 10.4144 9.81814 10.356C9.87246 10.2976 9.90622 10.2171 9.90622 10.1283V9.69754L9.30654 9.69702L9.30542 10.1276" fill="#003399"/>
<path id="Vector_75" d="M9.44299 9.92027C9.47581 9.92027 9.50243 9.89366 9.50243 9.86083C9.50243 9.828 9.47581 9.80139 9.44299 9.80139C9.41016 9.80139 9.38354 9.828 9.38354 9.86083C9.38354 9.89366 9.41016 9.92027 9.44299 9.92027Z" fill="#F7F7F7"/>
<path id="Vector_76" d="M9.77575 9.92052C9.80858 9.92052 9.83519 9.8939 9.83519 9.86108C9.83519 9.82825 9.80858 9.80164 9.77575 9.80164C9.74292 9.80164 9.71631 9.82825 9.71631 9.86108C9.71631 9.8939 9.74292 9.92052 9.77575 9.92052Z" fill="#F7F7F7"/>
<path id="Vector_77" d="M9.609 10.0803C9.64183 10.0803 9.66844 10.0537 9.66844 10.0209C9.66844 9.98804 9.64183 9.96143 9.609 9.96143C9.57617 9.96143 9.54956 9.98804 9.54956 10.0209C9.54956 10.0537 9.57617 10.0803 9.609 10.0803Z" fill="#F7F7F7"/>
<path id="Vector_78" d="M9.44299 10.2475C9.47581 10.2475 9.50243 10.2209 9.50243 10.1881C9.50243 10.1553 9.47581 10.1287 9.44299 10.1287C9.41016 10.1287 9.38354 10.1553 9.38354 10.1881C9.38354 10.2209 9.41016 10.2475 9.44299 10.2475Z" fill="#F7F7F7"/>
<path id="Vector_79" d="M9.77526 10.2471C9.80809 10.2471 9.8347 10.2204 9.8347 10.1876C9.8347 10.1548 9.80809 10.1282 9.77526 10.1282C9.74243 10.1282 9.71582 10.1548 9.71582 10.1876C9.71582 10.2204 9.74243 10.2471 9.77526 10.2471Z" fill="#F7F7F7"/>
</g>
</g>
</g>
</g>
<defs>
<clipPath id="clip0_135_3900">
<rect width="24" height="18" rx="2" fill="white"/>
</clipPath>
</defs>
</svg>
