<svg width="711" height="280" viewBox="0 0 711 280" fill="none" xmlns="http://www.w3.org/2000/svg">
<path d="M129 131.3C132.6 114 126.1 101.6 114.5 93.5C103.9 86.4 90.5 85.4 76.3 92.4L17.3 119C2.49997 125.7 -3.90003 143 2.49997 157.5C9.19997 172.3 26.2 178.7 41 172.3L48.8 168.7L36.1 237.7C32.5 258.5 46 275.5 64.4 279.1C83.9 282.7 102.9 269.9 106.1 250.4L129 131.3Z" fill="url(#paint0_linear_455_478)"/>
<path d="M665.7 88.4C633.2 83.7 600.4 102.7 587.9 129.5L590 117.8C595.3 94.1 585.4 87.8 568.5 87.8H546.6C525.8 87.8 521.1 99.1 518.6 112.2L493.1 253.6C491 263.2 492.4 279.8 511.1 279.8H541.5C559.5 279.8 563 265.7 565.5 252.2L577.8 184.3C580.7 168.8 583.1 161.3 588.4 155.6C596.5 146.4 612.8 142.2 624.1 151.4C630.8 157 633.3 166.6 631.5 180.1L619.2 253.6C616.5 269.9 623.4 279.8 636.9 279.8H667.3C684.6 279.8 688.1 266.4 690.6 252.2L708.4 160.1C716.7 126.9 705 94.1 665.7 88.4Z" fill="url(#paint1_linear_455_478)"/>
<path d="M470.8 69.4C490.13 69.4 505.8 53.8643 505.8 34.7C505.8 15.5357 490.13 0 470.8 0C451.47 0 435.8 15.5357 435.8 34.7C435.8 53.8643 451.47 69.4 470.8 69.4Z" fill="#1985E0"/>
<path d="M473 252C470.5 266.8 466.3 279.6 449 279.6H418.3C403.5 279.6 398.1 268.6 401 254.1L426.2 112C428.7 96.8 435.4 87.6 454.2 87.6H477.5C497.3 87.6 502.2 97.2 498 117.6L473 252Z" fill="url(#paint2_linear_455_478)"/>
<path d="M135.2 87.6C143 96.8 152.2 108.1 147.5 135.7L135.5 200.5L137.6 252.5C138 271.3 147.2 279.4 162.7 279.4H202.3C214.6 279.4 220 269.8 224.9 257.9L254.9 184L258.1 254.7C258.5 270.2 266.2 279.8 280.7 279.8H325.6C338.3 279.8 343.6 272 349.3 258.3L406.9 116.9C413.2 102.4 409.4 87.9 393.8 87.9H365.1C354.5 87.9 347.1 91.5 342.8 101.7L303.9 196.3L300.3 111.8C299.6 93.8 291.1 87.8 280.8 87.8H251.5C239.8 87.8 233.1 92.4 229.6 101.2L190.7 196.7L187.1 109.7C186.7 93.4 181.1 87.8 168 87.8H143H135.2V87.6Z" fill="url(#paint3_linear_455_478)"/>
<defs>
<linearGradient id="paint0_linear_455_478" x1="65.0095" y1="87.6333" x2="65.0095" y2="279.706" gradientUnits="userSpaceOnUse">
<stop stop-color="#218CE6"/>
<stop offset="1" stop-color="#108DF6"/>
</linearGradient>
<linearGradient id="paint1_linear_455_478" x1="601.644" y1="87.6846" x2="601.644" y2="279.8" gradientUnits="userSpaceOnUse">
<stop stop-color="white"/>
<stop offset="1" stop-color="#EDEDED"/>
</linearGradient>
<linearGradient id="paint2_linear_455_478" x1="449.818" y1="87.6" x2="449.818" y2="279.6" gradientUnits="userSpaceOnUse">
<stop stop-color="white"/>
<stop offset="1" stop-color="#EDEDED"/>
</linearGradient>
<linearGradient id="paint3_linear_455_478" x1="272.499" y1="87.6" x2="272.499" y2="279.8" gradientUnits="userSpaceOnUse">
<stop stop-color="white"/>
<stop offset="1" stop-color="#EDEDED"/>
</linearGradient>
</defs>
</svg>
