<svg width="121" height="48" viewBox="0 0 121 48" fill="none" xmlns="http://www.w3.org/2000/svg">
<g id="1win_logo">
<path id="Path_89_" d="M22.3463 22.1132C22.9469 19.1944 21.8659 17.1164 19.908 15.7471C18.1182 14.5579 15.8601 14.3777 13.4818 15.5669L3.53613 20.0352C1.03771 21.1643 -0.0313222 24.0831 1.03771 26.5215C2.16681 29.0199 5.02557 30.089 7.52399 29.0199L8.83326 28.4193L6.69519 40.0346C6.09461 43.542 8.36481 46.4008 11.4638 47.0013C14.743 47.6019 17.9501 45.4518 18.4906 42.1727L22.3463 22.1132Z" fill="url(#paint0_linear_181_24801)"/>
<path id="Path_87_" d="M112.745 14.8829C107.28 14.0902 101.754 17.2852 99.6402 21.8016L100.001 19.8317C100.889 15.8439 99.2318 14.7748 96.373 14.7748H92.6854C89.1781 14.7748 88.3973 16.6847 87.9769 18.8828L83.6887 42.7019C83.3284 44.3114 83.5686 47.1101 86.7277 47.1101H91.8446C94.8836 47.1101 95.4721 44.7318 95.8926 42.4616L97.9706 31.0266C98.451 28.408 98.8594 27.1588 99.7603 26.1979C101.13 24.6484 103.868 23.9397 105.778 25.4892C106.907 26.4381 107.328 28.0477 107.027 30.3179L104.949 42.7019C104.493 45.4405 105.658 47.1101 107.928 47.1101H113.045C115.964 47.1101 116.553 44.8519 116.973 42.4616L119.976 26.9546C121.321 21.3692 119.351 15.8439 112.745 14.8829Z" fill="black"/>
<ellipse id="Oval_21_" cx="79.9193" cy="5.83765" rx="5.89771" ry="5.83765" fill="url(#paint1_linear_181_24801)"/>
<path id="Path_86_" d="M80.2782 42.4495C79.8578 44.9479 79.1491 47.098 76.2303 47.098H71.0533C68.5549 47.098 67.654 45.2482 68.1345 42.8099L72.4106 18.8707C72.831 16.3122 73.9601 14.7627 77.1192 14.7627H81.047C84.3862 14.7627 85.215 16.3723 84.5063 19.8196L80.2782 42.4495Z" fill="black"/>
<path id="Path_85_" d="M23.4042 14.7627C24.7134 16.3122 26.2629 18.222 25.4822 22.8585L23.4642 33.7651L23.8246 42.5216C23.8846 45.6806 25.4341 47.05 28.0527 47.05H34.7191C36.7971 47.05 37.698 45.4404 38.5268 43.4225L43.5837 30.9784L44.1242 42.8819C44.1843 45.5005 45.4936 47.11 47.9319 47.11H55.4992C57.6373 47.11 58.5382 45.8008 59.4871 43.4825L69.1925 19.6634C70.2615 17.2251 69.6129 14.7867 66.9944 14.7867H62.1657C60.376 14.7867 59.1267 15.3873 58.4181 17.105L51.8597 33.0444L51.2591 18.8106C51.139 15.7717 49.7096 14.7627 47.98 14.7627H43.0432C41.0733 14.7627 39.9442 15.5314 39.3556 17.0209L32.8093 33.1045L32.2087 18.4503C32.1486 15.7116 31.1997 14.7627 28.9896 14.7627H24.7014H23.4042Z" fill="black"/>
</g>
<defs>
<linearGradient id="paint0_linear_181_24801" x1="24.2736" y1="51.5632" x2="24.2736" y2="14.0029" gradientUnits="userSpaceOnUse">
<stop stop-color="#0167CA"/>
<stop offset="1" stop-color="#38A8FA"/>
</linearGradient>
<linearGradient id="paint1_linear_181_24801" x1="88.3486" y1="14.6649" x2="88.3486" y2="-2.02759" gradientUnits="userSpaceOnUse">
<stop stop-color="#0167CA"/>
<stop offset="1" stop-color="#38A8FA"/>
</linearGradient>
</defs>
</svg>
