<svg width="173" height="41" viewBox="0 0 173 41" fill="none" xmlns="http://www.w3.org/2000/svg">
<g clip-path="url(#clip0_202_667)">
<path d="M17.625 40.7993C17.625 40.591 17.4479 40.4764 17.2708 40.4452C14.7188 39.8827 13.1563 38.216 12.0938 35.9452C12.0208 35.7993 11.9167 35.6639 11.6354 35.5597C11.6354 37.0493 11.6354 38.4972 11.6354 40.0597C7.84375 40.0597 4.22917 40.0597 0.5 40.0597C0.5 26.7577 0.5 13.5077 0.5 0.174316C4.46875 0.174316 8.40625 0.174316 12.4063 0.174316C12.4063 5.27848 12.4063 10.3827 12.4063 15.4556C12.6875 15.4868 12.7604 15.3514 12.8333 15.2472C16.1354 10.1431 25.9167 10.1743 29.0729 17.6222C30.5625 21.1327 30.7708 24.7785 30.4583 28.5077C30.25 30.9556 29.75 33.3618 28.5417 35.5285C27.1563 38.0806 25.1042 39.8514 22.1562 40.4556C21.9479 40.4868 21.625 40.4556 21.5208 40.7785C20.25 40.7993 18.9375 40.7993 17.625 40.7993ZM18.0521 25.7368C18.0521 24.4243 18.0208 23.1118 17.5208 21.841C17.0625 20.6743 16.1042 19.966 15.0417 19.9972C13.875 20.0702 12.9896 20.6743 12.6667 21.8097C11.8854 24.5077 11.8542 27.1952 12.6354 29.8931C12.9583 30.9972 13.7396 31.7056 14.9375 31.7368C16.1458 31.7368 16.8854 31.1014 17.3438 30.0389C17.9792 28.6431 18.0521 27.1847 18.0521 25.7368Z" fill="white"/>
<path d="M128.583 40.7995C128.26 40.3724 127.771 40.5912 127.375 40.5183C121.062 39.3829 117.062 35.5183 115.073 29.6329C113.125 23.8516 113.406 18.0079 115.75 12.3724C118.406 6.10161 123.406 2.87245 130.146 2.41411C133.833 2.16411 137.521 2.38286 141.167 3.22661C141.417 3.29953 141.667 3.37245 141.948 3.47661C141.948 6.23703 141.948 8.97661 141.948 11.7683C140.958 11.8724 140.135 11.4454 139.25 11.2683C136.594 10.737 133.896 10.3829 131.198 10.9454C127.865 11.6224 125.844 14.3099 126.021 17.8204C127.406 17.0079 128.823 16.4037 130.344 16.0808C136.083 14.8724 141.615 17.2891 143.812 22.2162C146.396 28.0704 145.052 36.7162 136.302 39.7683C134.844 40.2683 133.365 40.3724 131.906 40.8308C130.781 40.7995 129.677 40.7995 128.583 40.7995ZM125.958 27.862C125.885 29.0287 126.167 30.0912 126.812 31.0912C128.375 33.4349 131.844 33.2891 133.198 30.8412C134.187 29.0287 134.333 27.1537 133.552 25.237C132.917 23.6016 131.354 22.6849 129.656 22.7891C127.917 22.8933 126.677 23.9974 126.219 25.7995C125.99 26.4766 125.927 27.1537 125.958 27.862Z" fill="#F9DC16"/>
<path d="M155.167 40.7993C154.531 40.4139 153.781 40.4764 153.073 40.3722C151.083 40.1222 149.135 39.6326 147.115 39.1326C147.115 36.3306 147.115 33.5701 147.115 30.7264C148.75 31.0076 150.375 31.466 152.01 31.6431C153.75 31.8514 155.417 31.7889 157.115 31.3618C158.708 30.9764 159.635 29.9035 159.917 28.3514C160.198 26.6535 159.812 25.1222 158.219 24.1327C156.375 22.9972 154.281 22.8514 152.156 23.0702C150.594 23.216 149.042 23.3931 147.479 23.9243C147.479 16.9764 147.479 10.0597 147.479 3.08057C155.24 3.08057 163.042 3.08057 170.875 3.08057C170.875 5.88265 170.875 8.68473 170.875 11.5493C166.76 11.5493 162.646 11.5493 158.5 11.5493C158.5 13.466 158.5 15.3097 158.5 17.2264C160.021 17.4035 161.552 17.0806 163.073 17.2264C167.854 17.6847 171.583 21.2368 172.292 26.0493C172.323 26.2993 172.219 26.5806 172.5 26.7264C172.5 28.0389 172.5 29.3514 172.5 30.6952C172.177 31.6535 171.937 32.6118 171.583 33.5285C169.948 37.4243 166.656 39.1639 162.792 40.1535C161.656 40.4347 160.448 40.3306 159.312 40.7889C157.969 40.7993 156.583 40.7993 155.167 40.7993Z" fill="#F9DC16"/>
<path d="M94.9792 40.7991C93.5208 40.2991 91.9687 40.4449 90.4792 40.1637C89.0625 39.8824 87.6042 39.6324 86.2292 39.2053C86.2292 36.372 86.2292 33.6012 86.2292 30.6949C87.2917 30.9762 88.2812 31.2262 89.2812 31.4762C91.9375 32.1532 94.5937 32.2887 97.3333 31.8303C98.7187 31.5803 99.6354 30.6949 99.8125 29.4241C100.021 27.8616 99.4583 26.5491 98.1458 25.9137C96.1979 24.9553 94.1042 25.1324 92.0104 25.3095C91.5104 25.3407 91.0208 25.4137 90.4167 25.4866C90.4167 22.7574 90.4167 20.1324 90.4167 17.4032C92.3646 17.5491 94.25 17.6116 96.125 17.2991C97.3646 17.0907 98.5729 16.7366 99.1354 15.4241C99.6354 14.2887 99.4167 13.1532 98.7083 12.1949C97.8958 11.1324 96.7187 10.7782 95.4062 10.7053C92.6771 10.5595 90.0208 10.8824 87.4271 11.7678C87.1458 11.872 86.8958 11.9137 86.5104 12.0178C86.5104 9.28866 86.5104 6.63241 86.5104 3.86157C88.0312 3.18449 89.7708 2.87199 91.5104 2.69491C95.3021 2.26782 99.0937 2.05949 102.854 3.01782C105.198 3.62199 107.323 4.61157 109.125 6.24699C113.062 9.78866 113.344 17.9449 106.573 20.7782C106.323 20.8824 106.042 20.9866 105.687 21.1637C107.458 21.872 109.094 22.622 110.292 24.0387C113.979 28.3303 112.635 35.2782 107.635 38.2574C105.26 39.6741 102.677 40.3824 99.9792 40.6012C99.7708 40.6012 99.5208 40.5699 99.4167 40.8095C97.9167 40.7991 96.4271 40.7991 94.9792 40.7991Z" fill="#F9DC16"/>
<path d="M45.3125 40.7992C44.8542 40.2992 44.1771 40.4451 43.6146 40.2992C37.0937 38.8826 33.3646 34.6638 32.8333 27.9659C32.6562 25.7367 32.6875 23.4971 33.1875 21.2992C34.1771 17.0492 36.7292 14.1742 40.8854 12.7888C44.2187 11.6534 47.625 11.4451 51.0625 11.9763C54.9583 12.5805 57.7604 14.6742 59.4271 18.2888C61.0208 21.7992 61.2396 25.518 61.125 29.4555C58.3229 29.4555 55.5937 29.4555 52.8646 29.4555C50.1354 29.4555 47.4062 29.4555 44.6042 29.4555C44.5729 30.9451 45.1042 31.9763 46.2708 32.6846C47.1562 33.2159 48.1458 33.4659 49.1771 33.5388C52.6562 33.8201 56.0208 33.5388 59.3125 31.9451C59.3125 34.393 59.3125 36.6951 59.3125 39.1013C57.1875 39.9555 54.9167 40.268 52.6458 40.5596C52.3958 40.5909 52.0417 40.4138 51.9062 40.8096C49.7083 40.7992 47.5104 40.7992 45.3125 40.7992ZM50.6979 23.5701C50.6979 22.1534 50.625 20.9138 50.0625 19.7055C49.6354 18.8201 48.9583 18.2471 47.9375 18.2159C46.875 18.143 46.0208 18.5388 45.4583 19.4971C44.7187 20.7784 44.5417 22.1221 44.6458 23.6117C46.6562 23.5701 48.6042 23.5701 50.6979 23.5701Z" fill="white"/>
<path d="M73.2083 40.7993C73.1771 40.5181 72.8854 40.5181 72.7083 40.4764C68.8437 39.591 67 36.9347 66.3958 33.2472C65.8958 30.2681 66.2187 27.2577 66.1458 24.2472C66.1146 23.0077 66.1458 21.7681 66.1458 20.4556C64.7604 20.2056 63.4166 20.4556 62 20.3514C62 17.7264 62 15.1431 62 12.4452C63.3125 12.4452 64.625 12.4452 66.1146 12.4452C66.1146 10.216 66.1146 8.12223 66.1146 5.99723C70.1562 4.61182 74.052 3.29932 78.1666 1.92432C78.1666 5.50765 78.1666 8.90348 78.1666 12.4556C80.0416 12.4556 81.7812 12.4556 83.552 12.4556C83.552 15.1535 83.552 17.7368 83.552 20.4347C81.7395 20.4347 80.0104 20.4347 78.1666 20.4347C78.2395 23.5181 77.9895 26.5285 78.3437 29.5077C78.552 31.1431 79.7604 31.9556 81.3958 31.8097C82.0729 31.7368 82.7396 31.6014 83.5208 31.4556C83.5208 34.0806 83.5208 36.6639 83.5208 39.3618C81.8541 39.9972 80.0416 40.3202 78.2708 40.6431C78.0625 40.6743 77.7396 40.5389 77.6354 40.8931C76.1562 40.7993 74.6979 40.7993 73.2083 40.7993Z" fill="white"/>
</g>
<defs>
<clipPath id="clip0_202_667">
<rect width="172" height="40.6979" fill="white" transform="translate(0.5 0.174316)"/>
</clipPath>
</defs>
</svg>
