<svg width="153" height="37" viewBox="0 0 153 37" fill="none" xmlns="http://www.w3.org/2000/svg">
<g id="pinup 1" clip-path="url(#clip0_202_251)">
<path id="Vector" d="M31.2604 11.895H41.15V36.9346H31.2604V11.895ZM74.3958 13.9992H91.2292V22.6263H74.3958V13.9992Z" fill="#E03D22"/>
<path id="Vector_2" d="M36.2052 10.0014C38.9361 10.0014 41.15 7.78754 41.15 5.05661C41.15 2.32567 38.9361 0.111816 36.2052 0.111816C33.4743 0.111816 31.2604 2.32567 31.2604 5.05661C31.2604 7.78754 33.4743 10.0014 36.2052 10.0014Z" fill="#E03D22"/>
<path id="Vector_3" fill-rule="evenodd" clip-rule="evenodd" d="M71.6604 13.568C71.6181 6.12889 65.4037 0.111816 57.794 0.111816C50.1844 0.111816 44.0333 6.06724 43.9277 13.4649L43.8863 35.6722H43.8854V36.9347H54.1958V13.8527H54.1971C54.1962 13.8183 54.1958 13.7839 54.1958 13.7496C54.1958 11.6479 55.8916 9.94396 57.9833 9.94396C60.0751 9.94396 61.7708 11.6479 61.7708 13.7498C61.7708 13.7841 61.7704 13.8184 61.7696 13.8527H61.7708V36.9347H71.6604V13.568ZM0.75 36.9347H10.7269V15.2332C10.7269 11.7112 11.9953 9.93975 14.5529 9.93975C15.6311 9.93975 16.5399 10.2983 17.301 11.0364C18.0618 11.7746 18.4423 12.6602 18.4423 13.7148C18.4423 14.7482 18.0831 15.6549 17.3432 16.4145C16.6034 17.1734 15.7367 17.5533 14.7008 17.5533C13.9715 17.5533 13.2588 17.289 12.5333 16.7753V27.5167C13.5572 27.6232 14.3503 27.6762 14.9123 27.6762C18.5904 27.6762 21.782 26.3055 24.4877 23.5848C27.1722 20.8642 28.525 17.6164 28.525 13.8623C28.525 10.0029 27.1722 6.75509 24.4454 4.09774C21.7187 1.44039 18.3789 0.111816 14.4262 0.111816C12.4393 0.111816 10.4944 0.554743 8.61327 1.41935C6.73215 2.28416 5.1677 3.44397 3.94181 4.92026C1.80692 7.47219 0.75 10.7833 0.75 14.8326V36.9347ZM124.475 36.9347H134.452V15.2332C134.452 11.7112 135.72 9.93975 138.278 9.93975C139.356 9.93975 140.265 10.2983 141.026 11.0364C141.787 11.7746 142.167 12.6602 142.167 13.7148C142.167 14.7482 141.808 15.6549 141.068 16.4145C140.328 17.1734 139.462 17.5533 138.426 17.5533C137.697 17.5533 136.984 17.289 136.258 16.7753V27.5167C137.282 27.6232 138.075 27.6762 138.637 27.6762C142.315 27.6762 145.507 26.3055 148.213 23.5848C150.897 20.8642 152.25 17.6164 152.25 13.8623C152.25 10.0029 150.897 6.75509 148.17 4.09774C145.444 1.44039 142.104 0.111816 138.151 0.111816C136.164 0.111816 134.22 0.554743 132.338 1.41935C130.457 2.28416 128.893 3.44397 127.667 4.92026C125.532 7.47219 124.475 10.7833 124.475 14.8326V36.9347ZM93.9654 1.37432L94.0069 23.5815C94.1125 30.9793 100.264 36.9347 107.873 36.9347C115.483 36.9347 121.697 30.9177 121.74 23.4786V0.953483H111.85V23.1939H111.849C111.85 23.2282 111.85 23.2625 111.85 23.2968C111.85 25.3986 110.154 27.1026 108.062 27.1026C105.971 27.1026 104.275 25.3986 104.275 23.2968C104.275 23.2625 104.275 23.2282 104.276 23.1939H104.275V0.953483H93.9646V1.37432H93.9654Z" fill="#E03D22"/>
</g>
<defs>
<clipPath id="clip0_202_251">
<rect width="151.5" height="36.8229" fill="white" transform="translate(0.75 0.111816)"/>
</clipPath>
</defs>
</svg>
