<svg width="151" height="20" viewBox="0 0 151 20" fill="none" xmlns="http://www.w3.org/2000/svg">
<g id="begambleaware 1" clip-path="url(#clip0_133_578)">
<path id="Vector" d="M0.5 10.3829C0.5 3.54041 3.48427 0.0917969 8.1919 0.0917969C11.4499 0.0917969 13.9132 1.67925 14.5965 5.26566L14.7059 5.84137L11.9142 6.44351L11.8047 5.92443C11.2838 3.51587 9.94358 2.58529 8.13716 2.58529C5.59081 2.58529 3.56543 4.8032 3.56543 10.1941C3.56543 15.285 5.40017 17.4198 7.97294 17.4198C9.80767 17.4198 11.9425 16.4628 11.9425 13.0954V12.5215H7.9182V10.1394H14.7343V19.583H12.2974L12.1332 17.2556C11.229 19.1432 9.45092 19.9114 7.3708 19.9114C3.21057 19.9076 0.5 16.5968 0.5 10.3829Z" fill="white"/>
<path id="Vector_2" d="M25.2425 18.266C24.3931 19.1683 23.2719 19.8818 21.4655 19.9082C18.8927 19.9082 17.2222 18.1829 17.2222 15.9669C17.2222 13.5584 19.2211 12.3805 20.9728 11.8879L25.2161 10.6836V10.1909C25.2161 8.6582 24.2572 7.89184 22.7528 7.89184C21.356 7.89184 20.2348 8.76768 19.7421 9.753L19.659 9.91722L17.4959 8.76768L17.6337 8.49398C18.2358 7.26139 19.9063 5.56445 22.9982 5.56445C26.09 5.56445 28.0626 7.12548 28.0626 9.94365V17.1429C28.0626 17.8262 28.0909 18.7303 28.2268 19.3325L28.2815 19.5798H25.435L25.4067 19.442C25.3237 19.0588 25.2689 18.6756 25.2425 18.266ZM22.2035 17.745C23.4625 17.745 24.5856 17.0051 25.2142 16.2123V12.7637L22.2582 13.6678C21.137 14.0227 20.1498 14.5984 20.1498 15.7763C20.1498 16.9541 20.9445 17.7469 22.2035 17.7469V17.745Z" fill="white"/>
<path id="Vector_3" d="M44.5922 8.02873C43.471 8.02873 42.2931 8.79508 41.6362 9.45196V19.5788H38.7898V10.1353C38.7898 8.73846 38.0782 8.02684 36.7097 8.02684C35.5884 8.02684 34.4106 8.7932 33.7537 9.45008V19.577H30.9072V5.89387H33.6178V7.40016C34.6579 6.30536 36.1358 5.56543 37.6686 5.56543C39.5844 5.56543 40.734 6.44127 41.2814 7.64555C42.3214 6.41295 43.9089 5.56543 45.5511 5.56543C48.3711 5.56543 49.5207 7.4549 49.5207 9.5067V19.5788H46.6742V10.1353C46.6742 8.73846 45.9626 8.02684 44.5941 8.02684L44.5922 8.02873Z" fill="white"/>
<path id="Vector_4" d="M55.3497 18.3199L55.076 19.5789H52.6675V0.419922H55.514V7.01702C56.3351 6.08645 57.5941 5.56547 58.9078 5.56547C62.028 5.56547 64.1364 7.89286 64.1364 12.5458C64.1364 17.1986 61.9185 19.9092 58.7984 19.9092C57.4015 19.9092 56.1161 19.3335 55.3497 18.3218V18.3199ZM58.251 17.6083C59.8667 17.6083 61.2352 16.1303 61.2352 12.6269C61.2352 9.12357 59.812 7.89097 58.1962 7.89097C57.1014 7.89097 56.1973 8.43837 55.514 9.14999V16.2945C56.2256 17.0344 57.1562 17.6083 58.251 17.6083Z" fill="white"/>
<path id="Vector_5" d="M66.4883 0.419922H69.3348V19.5789H66.4883V0.419922Z" fill="white"/>
<path id="Vector_6" d="M71.8525 12.9289C71.8525 8.60444 74.0157 5.56543 77.7928 5.56543C80.4486 5.56543 83.2384 7.15289 83.2384 12.0795V13.3649H74.6443V13.5291C74.6443 16.185 76.0411 17.6629 77.9004 17.6629C79.1046 17.6629 80.1183 17.1703 80.8016 15.9377L80.9658 15.6357L83.2101 16.5946L83.0742 16.8683C82.0606 18.8937 80.2542 19.9073 77.8192 19.9073C74.3706 19.9073 71.8525 17.4704 71.8525 12.927V12.9289ZM80.5562 11.4773V11.2848C80.5562 8.7932 79.2424 7.86262 77.7928 7.86262C76.3431 7.86262 74.918 8.95742 74.6726 11.4755H80.5581L80.5562 11.4773Z" fill="white"/>
<path id="Vector_7" d="M90.7927 0.419922H94.9265L100.346 19.5789H97.3067L95.9646 14.5428H89.6148L88.2727 19.5789H85.3979L90.7927 0.419922ZM95.3096 12.189L92.7916 2.77374L90.2736 12.189H95.3096Z" fill="#EF681C"/>
<path id="Vector_8" d="M99.6322 5.89453H102.479L104.723 15.6665L107.215 5.89453H109.897L112.334 15.6665L114.661 5.89453H117.262L113.731 19.5795H110.911L108.447 9.8358L105.956 19.5795H103.164L99.6322 5.89453Z" fill="#EF681C"/>
<path id="Vector_9" d="M125.662 18.266C124.813 19.1683 123.691 19.8818 121.885 19.9082C119.312 19.9082 117.642 18.1829 117.642 15.9669C117.642 13.5584 119.639 12.3805 121.392 11.8879L125.636 10.6836V10.1909C125.636 8.6582 124.677 7.89184 123.172 7.89184C121.777 7.89184 120.654 8.76768 120.162 9.753L120.08 9.91722L117.917 8.76768L118.055 8.49398C118.657 7.26139 120.328 5.56445 123.419 5.56445C126.511 5.56445 128.484 7.12548 128.484 9.94365V17.1429C128.484 17.8262 128.512 18.7303 128.648 19.3325L128.703 19.5798H125.856L125.828 19.442C125.747 19.0588 125.692 18.6756 125.664 18.266H125.662ZM122.625 17.745C123.884 17.745 125.007 17.0051 125.636 16.2123V12.7637L122.68 13.6678C121.556 14.0227 120.571 14.5984 120.571 15.7763C120.571 16.9541 121.366 17.7469 122.625 17.7469V17.745Z" fill="#EF681C"/>
<path id="Vector_10" d="M131.245 5.89468H133.901V8.46746C135.707 6.35903 137.323 5.73046 138.692 5.70215V8.35798C136.776 8.35798 135.269 9.42635 134.093 10.4928V19.5797H131.247V5.89468H131.245Z" fill="#EF681C"/>
<path id="Vector_11" d="M138.99 12.9289C138.99 8.60444 141.153 5.56543 144.93 5.56543C147.586 5.56543 150.378 7.15289 150.378 12.0795V13.3649H141.783V13.5291C141.783 16.185 143.18 17.6629 145.041 17.6629C146.246 17.6629 147.259 17.1703 147.943 15.9377L148.107 15.6357L150.351 16.5946L150.215 16.8683C149.202 18.8937 147.395 19.9073 144.96 19.9073C141.512 19.9073 138.994 17.4704 138.994 12.927L138.99 12.9289ZM147.693 11.4773V11.2848C147.693 8.7932 146.38 7.86262 144.928 7.86262C143.477 7.86262 142.053 8.95742 141.808 11.4755H147.693V11.4773Z" fill="#EF681C"/>
</g>
<defs>
<clipPath id="clip0_133_578">
<rect width="149.876" height="19.8158" fill="white" transform="translate(0.5 0.0917969)"/>
</clipPath>
</defs>
</svg>
