<svg width="150" height="32" viewBox="0 0 150 32" fill="none" xmlns="http://www.w3.org/2000/svg">
<g clip-path="url(#clip0_133_565)">
<rect x="0.5" width="149" height="32" rx="2" fill="white"/>
<g filter="url(#filter0_d_133_565)">
<rect x="3.38672" y="3" width="51" height="26" rx="3" fill="url(#paint0_linear_133_565)"/>
<path d="M9.36672 21.5V11.42H12.6287C12.7081 11.42 12.8714 11.4223 13.1187 11.427C13.3661 11.4317 13.6041 11.448 13.8327 11.476C14.6447 11.574 15.3331 11.8563 15.8977 12.323C16.4624 12.7897 16.8917 13.3823 17.1857 14.101C17.4797 14.8197 17.6267 15.606 17.6267 16.46C17.6267 17.314 17.4797 18.1003 17.1857 18.819C16.8917 19.5377 16.4624 20.1303 15.8977 20.597C15.3331 21.0637 14.6447 21.346 13.8327 21.444C13.6041 21.472 13.3661 21.4883 13.1187 21.493C12.8714 21.4977 12.7081 21.5 12.6287 21.5H9.36672ZM11.2987 19.708H12.6287C12.7547 19.708 12.9251 19.7057 13.1397 19.701C13.3544 19.6917 13.5481 19.6707 13.7207 19.638C14.1594 19.5493 14.5164 19.344 14.7917 19.022C15.0717 18.7 15.2771 18.3127 15.4077 17.86C15.5431 17.4073 15.6107 16.9407 15.6107 16.46C15.6107 15.956 15.5407 15.4777 15.4007 15.025C15.2654 14.5723 15.0577 14.1897 14.7777 13.877C14.4977 13.5643 14.1454 13.366 13.7207 13.282C13.5481 13.2447 13.3544 13.2237 13.1397 13.219C12.9251 13.2143 12.7547 13.212 12.6287 13.212H11.2987V19.708ZM19.0262 21.5V11.42H20.7342L24.0662 18.112L27.3982 11.42H29.1062V21.5H27.3282V15.48L24.4022 21.5H23.7302L20.8042 15.48V21.5H19.0262ZM35.1171 21.71C34.1091 21.71 33.2388 21.4907 32.5061 21.052C31.7781 20.6133 31.2158 19.9997 30.8191 19.211C30.4271 18.4223 30.2311 17.5053 30.2311 16.46C30.2311 15.4147 30.4271 14.4977 30.8191 13.709C31.2158 12.9203 31.7781 12.3067 32.5061 11.868C33.2388 11.4293 34.1091 11.21 35.1171 11.21C36.2744 11.21 37.2451 11.497 38.0291 12.071C38.8178 12.645 39.3731 13.422 39.6951 14.402L37.7771 14.934C37.5904 14.3227 37.2754 13.849 36.8321 13.513C36.3888 13.1723 35.8171 13.002 35.1171 13.002C34.4778 13.002 33.9434 13.1443 33.5141 13.429C33.0894 13.7137 32.7698 14.115 32.5551 14.633C32.3404 15.151 32.2331 15.76 32.2331 16.46C32.2331 17.16 32.3404 17.769 32.5551 18.287C32.7698 18.805 33.0894 19.2063 33.5141 19.491C33.9434 19.7757 34.4778 19.918 35.1171 19.918C35.8171 19.918 36.3888 19.7477 36.8321 19.407C37.2754 19.0663 37.5904 18.5927 37.7771 17.986L39.6951 18.518C39.3731 19.498 38.8178 20.275 38.0291 20.849C37.2451 21.423 36.2744 21.71 35.1171 21.71ZM39.983 21.5L43.063 11.42H45.905L48.985 21.5H47.025L44.281 12.61H44.645L41.943 21.5H39.983ZM41.831 19.4V17.622H47.151V19.4H41.831Z" fill="white"/>
</g>
<rect x="56.8867" y="3.5" width="89" height="25" rx="2.5" fill="#2C2E33"/>
<path d="M62.3667 21.5V11.42H66.6227C66.7207 11.42 66.8514 11.4247 67.0147 11.434C67.1827 11.4387 67.3321 11.4527 67.4627 11.476C68.0647 11.5693 68.5571 11.7677 68.9397 12.071C69.3271 12.3743 69.6117 12.757 69.7937 13.219C69.9757 13.6763 70.0667 14.1873 70.0667 14.752C70.0667 15.3167 69.9734 15.83 69.7867 16.292C69.6047 16.7493 69.3201 17.1297 68.9327 17.433C68.5501 17.7363 68.0601 17.9347 67.4627 18.028C67.3321 18.0467 67.1827 18.0607 67.0147 18.07C66.8467 18.0793 66.7161 18.084 66.6227 18.084H64.2707V21.5H62.3667ZM64.2707 16.306H66.5387C66.6367 16.306 66.7441 16.3013 66.8607 16.292C66.9774 16.2827 67.0847 16.264 67.1827 16.236C67.4394 16.166 67.6377 16.0493 67.7777 15.886C67.9177 15.718 68.0134 15.5337 68.0647 15.333C68.1207 15.1277 68.1487 14.934 68.1487 14.752C68.1487 14.57 68.1207 14.3787 68.0647 14.178C68.0134 13.9727 67.9177 13.7883 67.7777 13.625C67.6377 13.457 67.4394 13.338 67.1827 13.268C67.0847 13.24 66.9774 13.2213 66.8607 13.212C66.7441 13.2027 66.6367 13.198 66.5387 13.198H64.2707V16.306ZM71.1922 21.5V11.42H75.4482C75.5462 11.42 75.6769 11.4247 75.8402 11.434C76.0082 11.4387 76.1575 11.4527 76.2882 11.476C76.8902 11.5693 77.3825 11.7677 77.7652 12.071C78.1525 12.3743 78.4372 12.757 78.6192 13.219C78.8012 13.6763 78.8922 14.1873 78.8922 14.752C78.8922 15.5967 78.6822 16.32 78.2622 16.922C77.8422 17.5193 77.1842 17.888 76.2882 18.028L75.4482 18.084H73.0962V21.5H71.1922ZM76.8762 21.5L74.8882 17.398L76.8482 17.02L79.0322 21.5H76.8762ZM73.0962 16.306H75.3642C75.4622 16.306 75.5695 16.3013 75.6862 16.292C75.8029 16.2827 75.9102 16.264 76.0082 16.236C76.2649 16.166 76.4632 16.0493 76.6032 15.886C76.7432 15.718 76.8389 15.5337 76.8902 15.333C76.9462 15.1277 76.9742 14.934 76.9742 14.752C76.9742 14.57 76.9462 14.3787 76.8902 14.178C76.8389 13.9727 76.7432 13.7883 76.6032 13.625C76.4632 13.457 76.2649 13.338 76.0082 13.268C75.9102 13.24 75.8029 13.2213 75.6862 13.212C75.5695 13.2027 75.4622 13.198 75.3642 13.198H73.0962V16.306ZM84.6171 21.71C83.6091 21.71 82.7388 21.4907 82.0061 21.052C81.2781 20.6133 80.7158 19.9997 80.3191 19.211C79.9271 18.4223 79.7311 17.5053 79.7311 16.46C79.7311 15.4147 79.9271 14.4977 80.3191 13.709C80.7158 12.9203 81.2781 12.3067 82.0061 11.868C82.7388 11.4293 83.6091 11.21 84.6171 11.21C85.6251 11.21 86.4931 11.4293 87.2211 11.868C87.9538 12.3067 88.5161 12.9203 88.9081 13.709C89.3048 14.4977 89.5031 15.4147 89.5031 16.46C89.5031 17.5053 89.3048 18.4223 88.9081 19.211C88.5161 19.9997 87.9538 20.6133 87.2211 21.052C86.4931 21.4907 85.6251 21.71 84.6171 21.71ZM84.6171 19.918C85.2564 19.9273 85.7884 19.7897 86.2131 19.505C86.6378 19.2203 86.9551 18.8167 87.1651 18.294C87.3798 17.7713 87.4871 17.16 87.4871 16.46C87.4871 15.76 87.3798 15.1533 87.1651 14.64C86.9551 14.1267 86.6378 13.7277 86.2131 13.443C85.7884 13.1583 85.2564 13.0113 84.6171 13.002C83.9778 12.9927 83.4458 13.1303 83.0211 13.415C82.5964 13.6997 82.2768 14.1033 82.0621 14.626C81.8521 15.1487 81.7471 15.76 81.7471 16.46C81.7471 17.16 81.8521 17.7667 82.0621 18.28C82.2768 18.7933 82.5964 19.1923 83.0211 19.477C83.4458 19.7617 83.9778 19.9087 84.6171 19.918ZM92.685 21.5V13.198H89.507V11.42H97.767V13.198H94.589V21.5H92.685ZM98.612 21.5V11.42H105.192V13.198H100.516V15.354H104.352V17.132H100.516V19.722H105.192V21.5H98.612ZM110.56 21.71C109.552 21.71 108.682 21.4907 107.949 21.052C107.221 20.6133 106.659 19.9997 106.262 19.211C105.87 18.4223 105.674 17.5053 105.674 16.46C105.674 15.4147 105.87 14.4977 106.262 13.709C106.659 12.9203 107.221 12.3067 107.949 11.868C108.682 11.4293 109.552 11.21 110.56 11.21C111.718 11.21 112.688 11.497 113.472 12.071C114.261 12.645 114.816 13.422 115.138 14.402L113.22 14.934C113.034 14.3227 112.719 13.849 112.275 13.513C111.832 13.1723 111.26 13.002 110.56 13.002C109.921 13.002 109.387 13.1443 108.957 13.429C108.533 13.7137 108.213 14.115 107.998 14.633C107.784 15.151 107.676 15.76 107.676 16.46C107.676 17.16 107.784 17.769 107.998 18.287C108.213 18.805 108.533 19.2063 108.957 19.491C109.387 19.7757 109.921 19.918 110.56 19.918C111.26 19.918 111.832 19.7477 112.275 19.407C112.719 19.0663 113.034 18.5927 113.22 17.986L115.138 18.518C114.816 19.498 114.261 20.275 113.472 20.849C112.688 21.423 111.718 21.71 110.56 21.71ZM118.738 21.5V13.198H115.56V11.42H123.82V13.198H120.642V21.5H118.738ZM124.665 21.5V11.42H131.245V13.198H126.569V15.354H130.405V17.132H126.569V19.722H131.245V21.5H124.665ZM132.642 21.5V11.42H135.904C135.984 11.42 136.147 11.4223 136.394 11.427C136.642 11.4317 136.88 11.448 137.108 11.476C137.92 11.574 138.609 11.8563 139.173 12.323C139.738 12.7897 140.167 13.3823 140.461 14.101C140.755 14.8197 140.902 15.606 140.902 16.46C140.902 17.314 140.755 18.1003 140.461 18.819C140.167 19.5377 139.738 20.1303 139.173 20.597C138.609 21.0637 137.92 21.346 137.108 21.444C136.88 21.472 136.642 21.4883 136.394 21.493C136.147 21.4977 135.984 21.5 135.904 21.5H132.642ZM134.574 19.708H135.904C136.03 19.708 136.201 19.7057 136.415 19.701C136.63 19.6917 136.824 19.6707 136.996 19.638C137.435 19.5493 137.792 19.344 138.067 19.022C138.347 18.7 138.553 18.3127 138.683 17.86C138.819 17.4073 138.886 16.9407 138.886 16.46C138.886 15.956 138.816 15.4777 138.676 15.025C138.541 14.5723 138.333 14.1897 138.053 13.877C137.773 13.5643 137.421 13.366 136.996 13.282C136.824 13.2447 136.63 13.2237 136.415 13.219C136.201 13.2143 136.03 13.212 135.904 13.212H134.574V19.708Z" fill="white"/>
<rect x="56.8867" y="3.5" width="89" height="25" rx="2.5" stroke="#2F2456"/>
</g>
<defs>
<filter id="filter0_d_133_565" x="-4.61328" y="-1" width="67" height="42" filterUnits="userSpaceOnUse" color-interpolation-filters="sRGB">
<feFlood flood-opacity="0" result="BackgroundImageFix"/>
<feColorMatrix in="SourceAlpha" type="matrix" values="0 0 0 0 0 0 0 0 0 0 0 0 0 0 0 0 0 0 127 0" result="hardAlpha"/>
<feOffset dy="4"/>
<feGaussianBlur stdDeviation="4"/>
<feComposite in2="hardAlpha" operator="out"/>
<feColorMatrix type="matrix" values="0 0 0 0 0.270588 0 0 0 0 0.764706 0 0 0 0 0.407843 0 0 0 0.3 0"/>
<feBlend mode="normal" in2="BackgroundImageFix" result="effect1_dropShadow_133_565"/>
<feBlend mode="normal" in="SourceGraphic" in2="effect1_dropShadow_133_565" result="shape"/>
</filter>
<linearGradient id="paint0_linear_133_565" x1="28.8867" y1="3" x2="28.8867" y2="29" gradientUnits="userSpaceOnUse">
<stop stop-color="#59D069"/>
<stop offset="1" stop-color="#23902F"/>
</linearGradient>
<clipPath id="clip0_133_565">
<rect x="0.5" width="149" height="32" rx="2" fill="white"/>
</clipPath>
</defs>
</svg>
