<svg width="125" height="36" viewBox="0 0 125 36" fill="none" xmlns="http://www.w3.org/2000/svg">
<g id="GamCare 1" clip-path="url(#clip0_133_591)">
<g id="Clip path group">
<mask id="mask0_133_591" style="mask-type:luminance" maskUnits="userSpaceOnUse" x="0" y="0" width="125" height="36">
<g id="clip-path">
<path id="Path 990" d="M0.204346 0.201172H124.796V35.7995H0.204346V0.201172Z" fill="white"/>
</g>
</mask>
<g mask="url(#mask0_133_591)">
<g id="logo-gamcare-desktop_29390597">
<path id="Path 987" d="M47.9417 9.30632C47.9166 9.35879 47.8805 9.40531 47.836 9.44281C47.7915 9.48031 47.7396 9.50791 47.6836 9.5238L45.3252 10.223C45.0365 10.3064 44.8869 10.223 44.769 9.93429C44.6335 9.36204 44.2951 8.85832 43.8165 8.51651C43.338 8.1747 42.7517 8.01798 42.1664 8.07539C39.9465 8.07539 39.1867 9.39031 39.1867 11.1608V15.234C39.1867 17.0045 39.936 18.3194 42.1664 18.3194C44.002 18.3194 44.9409 17.465 44.9409 15.6056V15.0493H42.5435C42.4976 15.0532 42.4514 15.0466 42.4083 15.0301C42.3652 15.0135 42.3265 14.9874 42.295 14.9538C42.2635 14.9201 42.24 14.8797 42.2263 14.8357C42.2126 14.7916 42.209 14.7451 42.2159 14.6995V12.4924C42.2101 12.4469 42.2144 12.4008 42.2285 12.3572C42.2426 12.3137 42.2661 12.2737 42.2974 12.2403C42.3287 12.2069 42.367 12.1808 42.4095 12.1639C42.4521 12.147 42.4978 12.1397 42.5435 12.1425H47.8833C47.9289 12.1356 47.9755 12.1392 48.0195 12.1528C48.0636 12.1665 48.1039 12.19 48.1376 12.2215C48.1713 12.2531 48.1974 12.2918 48.2139 12.3349C48.2305 12.3779 48.237 12.4242 48.2332 12.4701V15.8364C48.2332 19.0547 45.8692 21.4798 42.1954 21.4798C37.839 21.4798 35.8027 18.8995 35.8027 15.3758V11.0718C35.8027 7.52585 37.839 4.96777 42.1954 4.96777C45.719 4.96777 47.3126 6.97685 47.95 8.99094M59.9367 12.9957V20.8941C59.9391 20.9378 59.9323 20.9815 59.9166 21.0223C59.901 21.0631 59.877 21.1002 59.8461 21.1311C59.8151 21.1621 59.7781 21.1861 59.7372 21.2017C59.6964 21.2173 59.6527 21.2242 59.609 21.2217H57.2006C57.1554 21.2266 57.1096 21.2216 57.0665 21.2072C57.0234 21.1927 56.9838 21.1692 56.9506 21.1381C56.9174 21.107 56.8913 21.0691 56.8741 21.027C56.8568 20.9849 56.8489 20.9396 56.8507 20.8941V19.6009C56.5087 20.1766 56.0206 20.6516 55.4359 20.9781C54.8512 21.3045 54.1907 21.4707 53.5212 21.4598C51.2462 21.4598 49.7756 19.9947 49.7756 17.742C49.7756 15.4893 51.1572 14.2378 54.5257 14.002C55.2535 13.9465 55.9845 13.9465 56.7122 14.002V13.1031C56.7122 11.9211 56.1004 11.4383 55.0475 11.4383C54.6817 11.3866 54.3097 11.4714 54.0026 11.6766C53.6955 11.8819 53.4748 12.1931 53.3827 12.5508C53.2714 12.8116 53.1886 12.8561 52.9444 12.7894L50.5359 12.1775C50.2973 12.1108 50.2751 11.9779 50.3196 11.806C50.6472 10.0745 52.2897 8.80238 55.1754 8.80238C58.2163 8.80238 59.9255 10.2486 59.9255 12.964M56.7072 17.0985V15.9943C56.0646 15.9711 55.4211 15.9934 54.7816 16.0611C53.5607 16.2107 52.9004 16.5828 52.9004 17.5262C52.9004 18.375 53.4567 18.8355 54.41 18.8355C54.9276 18.8462 55.434 18.6847 55.8498 18.3763C56.2656 18.0679 56.5672 17.6302 56.7072 17.1318M68.6271 8.83575C69.301 8.82359 69.9601 9.03434 70.5019 9.43526C71.0438 9.83619 71.438 10.4048 71.6235 11.0529C72.5223 9.73795 73.6159 8.83297 75.1472 8.83297C77.2669 8.83297 78.4767 10.4977 78.4767 13.0336V20.8941C78.4733 20.9418 78.4602 20.9884 78.4384 21.0309C78.4165 21.0734 78.3863 21.1111 78.3495 21.1417C78.3127 21.1723 78.2702 21.1952 78.2244 21.2089C78.1786 21.2227 78.1304 21.227 78.0829 21.2217H75.5693C75.5218 21.2271 75.4736 21.2228 75.4278 21.2091C75.3819 21.1954 75.3393 21.1725 75.3026 21.1419C75.2658 21.1113 75.2355 21.0736 75.2137 21.031C75.1919 20.9884 75.1789 20.9419 75.1755 20.8941V13.6076C75.1755 12.4951 74.6927 11.8538 73.8406 11.8538C72.9884 11.8538 72.2871 12.6031 71.9594 13.7405V20.8936C71.9625 20.9355 71.9569 20.9776 71.9429 21.0173C71.9289 21.0569 71.9069 21.0933 71.8783 21.124C71.8496 21.1548 71.8149 21.1793 71.7763 21.196C71.7377 21.2127 71.6961 21.2213 71.6541 21.2212H68.9314C68.7372 21.2212 68.6482 21.0882 68.6482 20.8936V13.607C68.6482 12.4946 68.1654 11.8533 67.3133 11.8533C66.4612 11.8533 65.7375 12.6414 65.4322 13.7622V20.893C65.4365 20.9371 65.431 20.9816 65.416 21.0233C65.4011 21.065 65.3771 21.1029 65.3458 21.1342C65.3144 21.1656 65.2766 21.1896 65.2348 21.2045C65.1931 21.2194 65.1486 21.2249 65.1045 21.2206H62.4347C62.3906 21.2249 62.3461 21.2194 62.3043 21.2045C62.2626 21.1896 62.2248 21.1656 62.1934 21.1342C62.1621 21.1029 62.1381 21.065 62.1232 21.0233C62.1082 20.9816 62.1027 20.9371 62.107 20.893V9.40699C62.1069 9.36495 62.1155 9.32334 62.1322 9.28476C62.1489 9.24618 62.1734 9.21147 62.2042 9.1828C62.235 9.15414 62.2713 9.13213 62.311 9.11816C62.3506 9.10419 62.3927 9.09856 62.4347 9.10163H64.9933C65.0354 9.09769 65.0779 9.10271 65.1179 9.11636C65.158 9.13001 65.1947 9.15198 65.2256 9.18082C65.2565 9.20966 65.281 9.24473 65.2975 9.28371C65.3139 9.32269 65.3219 9.3647 65.3209 9.40699V10.7831C65.6734 10.2102 66.1615 9.73287 66.7422 9.39334C67.3229 9.05381 67.9783 8.8625 68.6505 8.83631M92.2405 9.10274C92.3072 9.38586 92.2405 9.60334 91.9573 9.65896L89.6379 10.3359C89.5857 10.361 89.5282 10.3734 89.4703 10.372C89.4123 10.3706 89.3555 10.3554 89.3046 10.3278C89.2537 10.3001 89.21 10.2608 89.1772 10.213C89.1445 10.1652 89.1235 10.1103 89.1162 10.0528C88.7824 8.94032 88.2173 8.08262 86.597 8.08262C84.6046 8.08262 83.9722 9.39754 83.9722 11.168V15.2412C83.9722 17.0117 84.6953 18.3266 86.597 18.3266C88.3063 18.3266 88.961 17.361 89.2218 16.1573C89.2277 16.0985 89.2479 16.042 89.2807 15.9928C89.3135 15.9436 89.3579 15.9032 89.41 15.8752C89.4621 15.8472 89.5203 15.8325 89.5795 15.8323C89.6386 15.8322 89.6969 15.8465 89.7491 15.8742L92.0742 16.629C92.1304 16.6452 92.1827 16.6728 92.2278 16.7101C92.2729 16.7474 92.3099 16.7935 92.3364 16.8457C92.363 16.8978 92.3785 16.9549 92.3821 17.0133C92.3857 17.0717 92.3772 17.1302 92.3573 17.1852C91.801 19.5492 90.104 21.4681 86.5581 21.4681C82.5794 21.4681 80.5648 18.8878 80.5648 15.3641V11.0718C80.5648 7.52585 82.6178 4.96777 86.5581 4.96777C90.015 4.96777 91.6358 6.80331 92.246 9.12388M103.884 12.9996V20.898C103.887 20.9417 103.88 20.9853 103.864 21.0262C103.849 21.067 103.825 21.1041 103.794 21.135C103.763 21.166 103.726 21.19 103.685 21.2056C103.644 21.2212 103.6 21.228 103.557 21.2256H101.148C101.103 21.2305 101.057 21.2255 101.014 21.2111C100.971 21.1966 100.932 21.173 100.898 21.142C100.865 21.1109 100.839 21.073 100.822 21.0309C100.805 20.9888 100.797 20.9435 100.799 20.898V19.6009C100.456 20.1766 99.9684 20.6516 99.3837 20.9781C98.799 21.3045 98.1385 21.4707 97.469 21.4598C95.194 21.4598 93.7289 19.9947 93.7289 17.742C93.7289 15.4893 95.105 14.2378 98.4735 14.002C99.2031 13.9464 99.9359 13.9464 100.666 14.002V13.1031C100.666 11.9211 100.05 11.4383 99.0008 11.4383C98.6355 11.3895 98.2649 11.4756 97.9585 11.6804C97.652 11.8851 97.4307 12.1946 97.336 12.5508C97.2303 12.8116 97.1419 12.8561 96.8977 12.7894L94.4948 12.1775C94.2507 12.1108 94.2284 11.9779 94.2723 11.806C94.6 10.0745 96.2425 8.80238 99.1332 8.80238C102.174 8.80238 103.878 10.2486 103.878 12.964M100.665 17.0985V15.9943C100.022 15.9709 99.3789 15.9933 98.7394 16.0611C97.5157 16.2107 96.8582 16.5828 96.8582 17.5262C96.8582 18.375 97.4145 18.8355 98.3678 18.8355C98.8852 18.8453 99.3911 18.6834 99.8067 18.3751C100.222 18.0669 100.524 17.6297 100.665 17.1318M113.256 9.31855V11.6603C113.256 11.9434 113.145 12.0541 112.862 12.0541H112.508C110.759 12.0541 109.733 12.8422 109.383 14.1571V20.8941C109.386 20.9347 109.381 20.9754 109.368 21.014C109.355 21.0526 109.335 21.0881 109.308 21.1187C109.281 21.1492 109.248 21.174 109.212 21.1917C109.175 21.2094 109.135 21.2196 109.095 21.2217H106.32C106.28 21.2196 106.24 21.2094 106.203 21.1917C106.166 21.174 106.134 21.1492 106.107 21.1187C106.08 21.0881 106.059 21.0526 106.047 21.014C106.034 20.9754 106.028 20.9347 106.031 20.8941V9.40699C106.03 9.36445 106.037 9.32201 106.053 9.28259C106.069 9.24318 106.094 9.20773 106.125 9.1787C106.156 9.14966 106.193 9.12774 106.233 9.11443C106.274 9.10112 106.317 9.09676 106.359 9.10163H108.856C109.117 9.10163 109.184 9.2735 109.184 9.45149V11.0718C109.504 10.41 110.01 9.85546 110.639 9.47527C111.268 9.09508 111.995 8.90559 112.73 8.92975C113.168 8.92975 113.286 8.9965 113.286 9.30131M117.553 16.1429V16.6034C117.553 17.8744 118.213 18.7677 119.773 18.7677C121.333 18.7677 121.699 18.2115 122.092 17.48C122.287 17.1524 122.376 17.1085 122.725 17.2575L124.449 18.1341C124.805 18.3116 124.826 18.484 124.672 18.8111C123.928 20.4758 122.069 21.4581 119.75 21.4581C116.245 21.4581 114.41 19.3829 114.41 16.5361V13.7633C114.41 10.9889 116.134 8.83575 119.726 8.83575C123.139 8.83575 124.804 11.005 124.804 13.6971V15.6228C124.804 15.9504 124.693 16.179 124.248 16.179L117.553 16.1429ZM117.553 13.5842V14.0008H121.776V13.5848C121.802 13.3025 121.766 13.0179 121.67 12.7511C121.574 12.4843 121.421 12.242 121.22 12.0412C121.02 11.8405 120.778 11.6863 120.512 11.5896C120.245 11.4929 119.961 11.4561 119.678 11.4817C119.395 11.4557 119.109 11.4921 118.841 11.5883C118.572 11.6844 118.329 11.8381 118.126 12.0385C117.924 12.2388 117.767 12.4811 117.668 12.7482C117.569 13.0153 117.53 13.3003 117.553 13.5842Z" fill="white"/>
<path id="Path 988" d="M15.337 0.201194H0.653774C0.594965 0.200606 0.536623 0.211682 0.482121 0.23378C0.427619 0.255879 0.378039 0.288563 0.336246 0.329942C0.294454 0.37132 0.261278 0.420573 0.238638 0.474853C0.215998 0.529132 0.204343 0.587361 0.204346 0.646173V21.9996C0.206115 25.6587 1.66093 29.1673 4.24893 31.7541C6.83693 34.3408 10.3463 35.7939 14.0054 35.7939H15.337C18.9955 35.7939 22.5041 34.3406 25.091 31.7537C27.678 29.1667 29.1313 25.6581 29.1313 21.9996V13.9967C29.1313 12.1852 28.7745 10.3914 28.0813 8.71778C27.388 7.04418 26.372 5.5235 25.091 4.24258C23.8101 2.96165 22.2894 1.94557 20.6158 1.25234C18.9422 0.559108 17.1485 0.202307 15.337 0.202307M24.6988 22.2315C24.6988 27.4256 20.8864 31.3492 14.9487 31.3492C7.91805 31.3492 4.63244 27.1775 4.63244 21.4829V14.5295C4.63244 8.80041 7.9175 4.63541 14.9376 4.63541C20.6255 4.63541 23.2059 7.88709 24.2326 11.1393C24.2722 11.2256 24.2927 11.3195 24.2927 11.4144C24.2928 11.5094 24.2723 11.6032 24.2328 11.6895C24.1932 11.7758 24.1355 11.8526 24.0636 11.9146C23.9917 11.9766 23.9072 12.0224 23.816 12.0488L19.9981 13.1612C19.5431 13.2997 19.2934 13.1612 19.1549 12.7007C18.5503 10.7583 17.2793 9.69704 14.9487 9.69704C11.3416 9.69704 10.1429 11.8168 10.1429 14.6914V21.2771C10.1429 24.1405 11.3416 26.2714 14.9487 26.2714C17.9173 26.2714 19.4714 24.8897 19.4714 21.8872V21.0273H15.4927C15.4172 21.0376 15.3404 21.0303 15.2682 21.006C15.196 20.9817 15.1305 20.9411 15.0766 20.8872C15.0228 20.8333 14.9821 20.7678 14.9578 20.6956C14.9335 20.6234 14.9262 20.5466 14.9365 20.4711V16.8267C14.9304 16.7521 14.9407 16.6771 14.9665 16.6069C14.9923 16.5367 15.0331 16.4729 15.086 16.42C15.1389 16.3671 15.2027 16.3263 15.2729 16.3005C15.3431 16.2747 15.4181 16.2644 15.4927 16.2705H24.1325C24.2053 16.261 24.2793 16.2679 24.3491 16.2906C24.4189 16.3133 24.4828 16.3513 24.5361 16.4018C24.5893 16.4523 24.6307 16.5141 24.6571 16.5826C24.6835 16.6511 24.6943 16.7246 24.6888 16.7978L24.6988 22.2315Z" fill="#734BC3"/>
<path id="Path 989" d="M39.0597 25.9436C39.066 25.9546 39.0697 25.9669 39.0705 25.9796C39.0713 25.9923 39.0693 26.005 39.0644 26.0167C39.0596 26.0285 39.0522 26.0389 39.0427 26.0474C39.0332 26.0558 39.0219 26.062 39.0096 26.0654L38.6203 26.1872C38.5591 26.1872 38.5257 26.1872 38.4984 26.1371C38.4425 25.9214 38.3121 25.7324 38.1303 25.6035C37.9486 25.4746 37.7271 25.414 37.505 25.4324C37.3541 25.4118 37.2004 25.4263 37.0561 25.475C36.9117 25.5236 36.7806 25.6049 36.6728 25.7126C36.5651 25.8203 36.4838 25.9515 36.4352 26.0959C36.3865 26.2402 36.372 26.3939 36.3926 26.5448V28.0155C36.372 28.1664 36.3865 28.3201 36.4352 28.4644C36.4838 28.6088 36.5651 28.74 36.6728 28.8477C36.7806 28.9554 36.9117 29.0367 37.0561 29.0854C37.2004 29.134 37.3541 29.1486 37.505 29.1279C38.1319 29.1279 38.5429 28.8393 38.5429 28.1901V27.6339H37.6335C37.5835 27.6339 37.5556 27.6339 37.5556 27.5505V27.2423C37.5556 27.1867 37.5556 27.1589 37.6335 27.1589H39.043C39.0546 27.1572 39.0664 27.1581 39.0776 27.1616C39.0888 27.1651 39.0991 27.1711 39.1076 27.1791C39.1162 27.1871 39.1228 27.197 39.127 27.2079C39.1313 27.2189 39.133 27.2306 39.132 27.2423V28.2636C39.1339 28.4709 39.092 28.6764 39.0089 28.8664C38.9259 29.0564 38.8035 29.2267 38.65 29.3661C38.4965 29.5056 38.3152 29.6109 38.118 29.6753C37.9209 29.7397 37.7124 29.7617 37.5061 29.7398C37.2793 29.7664 37.0494 29.742 36.8332 29.6683C36.617 29.5946 36.4201 29.4735 36.2567 29.3138C36.0934 29.1542 35.9678 28.96 35.8892 28.7456C35.8106 28.5311 35.781 28.3018 35.8024 28.0744V26.517C35.7811 26.2897 35.8108 26.0604 35.8894 25.8461C35.9681 25.6317 36.0936 25.4376 36.257 25.278C36.4203 25.1184 36.6172 24.9974 36.8334 24.9237C37.0495 24.85 37.2794 24.8256 37.5061 24.8522C37.8495 24.8249 38.1918 24.9171 38.4749 25.1133C38.758 25.3094 38.9646 25.5975 39.0597 25.9285M42.0561 28.5812V28.0249C41.7936 28.0084 41.5303 28.0084 41.2679 28.0249C40.7795 28.0806 40.4853 28.2524 40.4853 28.6574C40.479 28.7423 40.4923 28.8276 40.5241 28.9066C40.556 28.9856 40.6056 29.0562 40.669 29.113C40.7325 29.1698 40.8082 29.2113 40.8902 29.2342C40.9722 29.2572 41.0584 29.261 41.1422 29.2453C41.3444 29.2432 41.541 29.1783 41.7048 29.0596C41.8686 28.9409 41.9915 28.7743 42.0566 28.5828M42.6128 27.1622V29.5874C42.6128 29.6374 42.6128 29.6597 42.5294 29.6597H42.14C42.0844 29.6597 42.0566 29.6597 42.0566 29.5874V29.1268C41.9499 29.3073 41.7981 29.4569 41.6162 29.5611C41.4342 29.6652 41.2283 29.7203 41.0187 29.7209C40.8753 29.7355 40.7305 29.7194 40.5939 29.6735C40.4573 29.6275 40.3321 29.5529 40.2267 29.4546C40.1214 29.3563 40.0382 29.2366 39.983 29.1035C39.9277 28.9704 39.9015 28.827 39.9062 28.683C39.9062 28.0338 40.3446 27.6784 41.1995 27.6122C41.4784 27.5929 41.7583 27.5929 42.0371 27.6122V27.2034C42.0371 26.7373 41.7651 26.5432 41.3268 26.5432C41.1709 26.5173 41.0108 26.5508 40.8783 26.6371C40.7458 26.7234 40.6504 26.8562 40.611 27.0093C40.611 27.0705 40.5665 27.076 40.4997 27.0649L40.1226 26.9592C40.0614 26.9592 40.0448 26.9147 40.0614 26.8647C40.1777 26.3763 40.6177 26.0598 41.3408 26.0598C42.0638 26.0598 42.6062 26.4152 42.6062 27.1723M45.1587 26.0515C45.3511 26.0474 45.5394 26.1081 45.6933 26.2238C45.8472 26.3395 45.9578 26.5034 46.0075 26.6895C46.1103 26.5034 46.2593 26.347 46.4401 26.2352C46.6209 26.1235 46.8274 26.0602 47.0398 26.0515C47.1753 26.0526 47.309 26.0824 47.4321 26.1389C47.5552 26.1954 47.665 26.2774 47.7541 26.3794C47.8433 26.4814 47.9099 26.6011 47.9494 26.7306C47.989 26.8602 48.0007 26.9967 47.9837 27.1311V29.5785C47.9837 29.6341 47.9504 29.6563 47.8947 29.6563H47.5121C47.4509 29.6563 47.4231 29.6563 47.4231 29.5785V27.2423C47.4231 26.8096 47.2289 26.5749 46.8668 26.5749C46.686 26.5956 46.5156 26.6704 46.378 26.7895C46.2404 26.9085 46.1419 27.0664 46.0954 27.2423V29.5896C46.0954 29.6452 46.0953 29.6675 46.0175 29.6675H45.592C45.5308 29.6675 45.5141 29.6675 45.5141 29.5896V27.2423C45.5141 26.8096 45.3255 26.5749 44.9579 26.5749C44.7789 26.6007 44.6111 26.6773 44.4744 26.7956C44.3377 26.9139 44.2377 27.069 44.1864 27.2423V29.5618C44.1864 29.6174 44.1864 29.6397 44.1085 29.6397H43.6869C43.6257 29.6397 43.609 29.6397 43.609 29.5618V26.1877C43.609 26.1432 43.609 26.1154 43.6869 26.1154H44.0974C44.1586 26.1154 44.1753 26.1432 44.1753 26.1877V26.6539C44.2754 26.4778 44.4186 26.33 44.5913 26.2243C44.7641 26.1186 44.9608 26.0584 45.1631 26.0492M49.569 27.4865V28.3081C49.5609 28.4265 49.5781 28.5453 49.6194 28.6566C49.6608 28.7679 49.7253 28.8691 49.8087 28.9536C49.8921 29.038 49.9925 29.1038 50.1033 29.1465C50.214 29.1892 50.3326 29.2079 50.4511 29.2014C50.9618 29.2014 51.2671 28.9016 51.2671 28.3081V27.481C51.2671 26.8925 50.9618 26.5765 50.4511 26.5765C50.3329 26.5739 50.2155 26.596 50.1063 26.6414C49.9972 26.6868 49.8987 26.7545 49.8172 26.8402C49.7357 26.9258 49.673 27.0276 49.6332 27.1389C49.5933 27.2502 49.5771 27.3686 49.5857 27.4865M49.5857 24.8339V26.6043C49.6944 26.4272 49.8484 26.2822 50.0318 26.1844C50.2152 26.0867 50.4214 26.0396 50.6291 26.0481C50.8013 26.0454 50.972 26.0795 51.13 26.148C51.2879 26.2166 51.4294 26.3181 51.545 26.4457C51.6606 26.5734 51.7476 26.7242 51.8002 26.8881C51.8528 27.0521 51.8698 27.2254 51.85 27.3964V28.3787C51.8692 28.5512 51.851 28.7258 51.7967 28.8907C51.7424 29.0556 51.6533 29.2069 51.5354 29.3342C51.4175 29.4616 51.2735 29.5621 51.1133 29.6289C50.9531 29.6957 50.7804 29.7273 50.6069 29.7214C50.401 29.7279 50.1971 29.6799 50.0158 29.5823C49.8346 29.4846 49.6823 29.3407 49.5745 29.1652V29.5757C49.5745 29.6258 49.5356 29.6424 49.4967 29.6424H49.0862C49.0361 29.6424 49.0083 29.6424 49.0083 29.5757V24.8339C49.0074 24.8242 49.0087 24.8144 49.0121 24.8052C49.0154 24.7961 49.0207 24.7878 49.0276 24.7809C49.0345 24.774 49.0428 24.7687 49.052 24.7654C49.0611 24.762 49.0709 24.7607 49.0806 24.7616H49.5189C49.569 24.7616 49.5857 24.7616 49.5857 24.8339ZM53.3368 24.8339V29.5785C53.3368 29.6341 53.3368 29.6563 53.259 29.6563H52.8373C52.7706 29.6563 52.7539 29.6563 52.7539 29.5785V24.8339C52.7539 24.7838 52.7539 24.756 52.8373 24.756H53.259C53.2696 24.754 53.2806 24.7547 53.291 24.7579C53.3013 24.7611 53.3107 24.7668 53.3184 24.7744C53.3261 24.7821 53.3318 24.7915 53.335 24.8019C53.3382 24.8122 53.3388 24.8232 53.3368 24.8339ZM54.892 26.1911V29.584C54.892 29.6341 54.892 29.6563 54.8197 29.6563H54.3981C54.3314 29.6563 54.3147 29.6563 54.3147 29.584V26.1911C54.3147 26.141 54.3147 26.1188 54.3981 26.1188H54.8197C54.8753 26.1188 54.892 26.1188 54.892 26.1911ZM54.892 24.8561V25.4774C54.892 25.5386 54.892 25.572 54.7975 25.572H54.4081C54.3953 25.5739 54.3822 25.5727 54.3698 25.5686C54.3575 25.5645 54.3463 25.5576 54.3371 25.5484C54.3279 25.5392 54.321 25.528 54.3169 25.5157C54.3128 25.5034 54.3117 25.4903 54.3136 25.4774V24.8561C54.3117 24.8433 54.3128 24.8302 54.3169 24.8179C54.321 24.8055 54.3279 24.7943 54.3371 24.7852C54.3463 24.776 54.3575 24.7691 54.3698 24.765C54.3822 24.7609 54.3953 24.7597 54.4081 24.7616H54.7975C54.8698 24.7616 54.892 24.795 54.892 24.8561ZM56.4734 27.2701V29.584C56.4734 29.6341 56.4734 29.6563 56.4011 29.6563H56.0017C55.9349 29.6563 55.9183 29.6563 55.9183 29.584V26.1877C55.9183 26.1432 55.9183 26.1154 55.9961 26.1154H56.4066C56.4678 26.1154 56.4845 26.1432 56.4845 26.1877V26.6539C56.6063 26.4697 56.7714 26.3183 56.9653 26.2128C57.1593 26.1074 57.3762 26.0512 57.5969 26.0492C57.7457 26.0453 57.8936 26.0738 58.0302 26.133C58.1668 26.1922 58.2888 26.2805 58.3877 26.3918C58.4866 26.503 58.5599 26.6346 58.6026 26.7772C58.6453 26.9198 58.6563 27.07 58.6349 27.2173V29.584C58.6349 29.6341 58.6349 29.6563 58.5514 29.6563H58.1298C58.0742 29.6563 58.0464 29.6563 58.0464 29.584V27.3091C58.0464 26.8541 57.8411 26.586 57.3973 26.586C57.1975 26.5985 57.0059 26.67 56.8469 26.7915C56.6879 26.913 56.5685 27.079 56.504 27.2685M59.9998 27.3241C59.9908 27.4294 60.0053 27.5354 60.0424 27.6343C60.0795 27.7333 60.1382 27.8227 60.2143 27.8961C60.2903 27.9695 60.3818 28.025 60.482 28.0585C60.5822 28.0921 60.6887 28.1028 60.7936 28.09C60.8956 28.1034 60.9994 28.0933 61.0969 28.0606C61.1945 28.0278 61.2833 27.9732 61.3566 27.901C61.4299 27.8288 61.4858 27.7408 61.52 27.6437C61.5542 27.5466 61.5658 27.443 61.5539 27.3408C61.5615 27.2342 61.547 27.1271 61.5114 27.0263C61.4758 26.9255 61.4198 26.8332 61.3469 26.7549C61.274 26.6767 61.1859 26.6144 61.0878 26.5717C60.9898 26.5291 60.8841 26.507 60.7772 26.507C60.6703 26.507 60.5645 26.5291 60.4665 26.5717C60.3685 26.6144 60.2803 26.6767 60.2074 26.7549C60.1345 26.8332 60.0785 26.9255 60.0429 27.0263C60.0073 27.1271 59.9928 27.2342 60.0004 27.3408M61.8593 30.0045C61.8593 29.7492 61.7152 29.5106 61.1918 29.5106H60.5427C60.0543 29.5106 59.9047 29.7604 59.9047 30.0157C59.9047 30.3705 60.1828 30.6042 60.8648 30.6042C61.5467 30.6042 61.8582 30.36 61.8582 30.0051M62.4144 29.9662C62.4144 30.5224 61.9817 31.0263 60.8331 31.0263C59.7729 31.0263 59.3568 30.627 59.3568 30.0718C59.3592 29.9024 59.414 29.7378 59.5136 29.6007C59.6131 29.4636 59.7527 29.3606 59.9131 29.3059C59.8401 29.2548 59.7797 29.1878 59.7365 29.11C59.6932 29.0321 59.6682 28.9454 59.6633 28.8565C59.6673 28.7468 59.7036 28.6407 59.7678 28.5517C59.8319 28.4626 59.921 28.3945 60.0238 28.3559C59.8476 28.2544 59.7026 28.1066 59.6045 27.9285C59.5065 27.7505 59.4591 27.5489 59.4675 27.3458C59.4591 27.1748 59.4884 27.004 59.5533 26.8455C59.6182 26.6871 59.7172 26.5448 59.8431 26.4289C59.9691 26.3129 60.1191 26.2261 60.2824 26.1745C60.4456 26.1229 60.6183 26.1079 60.788 26.1304H62.3343C62.3788 26.1304 62.401 26.1583 62.401 26.2083V26.5248C62.401 26.586 62.3677 26.6082 62.3232 26.6082H61.7074C61.827 26.7067 61.9218 26.8318 61.9844 26.9735C62.047 27.1152 62.0756 27.2695 62.0679 27.4242C62.0679 28.0789 61.6296 28.5367 60.7886 28.5367H60.4988C60.2546 28.5367 60.1489 28.6479 60.1489 28.7809C60.1489 28.9138 60.2601 29.025 60.4988 29.025H61.2591C62.0935 29.025 62.4188 29.4411 62.4188 29.9573M67.713 25.8507C67.7186 25.8615 67.7214 25.8735 67.7212 25.8857C67.7209 25.8979 67.7175 25.9098 67.7114 25.9203C67.7053 25.9309 67.6967 25.9397 67.6863 25.946C67.6758 25.9523 67.664 25.9559 67.6518 25.9563L67.2914 26.0948C67.2801 26.0992 67.268 26.1012 67.2559 26.1008C67.2438 26.1003 67.2319 26.0974 67.221 26.0922C67.21 26.087 67.2003 26.0796 67.1923 26.0705C67.1843 26.0614 67.1783 26.0508 67.1746 26.0392C67.1131 25.8484 66.9896 25.6836 66.8237 25.571C66.6578 25.4584 66.4591 25.4045 66.259 25.4179C65.7028 25.4179 65.388 25.6788 65.388 26.106C65.388 26.5332 65.621 26.6622 66.5004 27.016C67.3798 27.3697 67.7547 27.7485 67.7547 28.4065C67.7498 28.5964 67.7054 28.7832 67.6242 28.955C67.543 29.1267 67.4269 29.2796 67.2832 29.4039C67.1396 29.5282 66.9716 29.6211 66.7899 29.6768C66.6083 29.7324 66.417 29.7495 66.2284 29.727C65.8837 29.7621 65.5378 29.673 65.2529 29.4757C64.9681 29.2784 64.7631 28.9858 64.6749 28.6507C64.6749 28.5839 64.6749 28.5561 64.7305 28.5344L65.1076 28.4126C65.1799 28.4126 65.2078 28.4126 65.2244 28.4794C65.2783 28.6981 65.41 28.8897 65.5949 29.0184C65.7797 29.1471 66.0052 29.204 66.229 29.1786C66.7852 29.1786 67.1445 28.9004 67.1445 28.4516C67.1445 28.0027 66.9337 27.8397 66.1289 27.5305C65.1633 27.1478 64.7973 26.7701 64.7973 26.1154C64.8043 25.9342 64.8488 25.7564 64.9282 25.5932C65.0075 25.4301 65.1199 25.2853 65.2582 25.1679C65.3964 25.0505 65.5576 24.9631 65.7314 24.9112C65.9052 24.8594 66.0879 24.8442 66.2679 24.8667C66.5858 24.8447 66.902 24.9293 67.1664 25.1072C67.4307 25.2852 67.6282 25.5462 67.7274 25.849M68.6096 28.5628V26.1911C68.6096 26.141 68.6374 26.1132 68.6931 26.1132H69.1147C69.1703 26.1132 69.1981 26.141 69.1981 26.1911V28.4605C69.1981 28.921 69.4033 29.1875 69.8417 29.1875C70.0424 29.1758 70.235 29.1039 70.3944 28.9811C70.5537 28.8584 70.6724 28.6905 70.7349 28.4994V26.1911C70.7349 26.141 70.7349 26.1132 70.8184 26.1132H71.2344C71.3012 26.1132 71.3179 26.141 71.3179 26.1911V29.5785C71.3179 29.6285 71.3179 29.6563 71.24 29.6563H70.8295C70.8188 29.6583 70.8079 29.6577 70.7975 29.6545C70.7871 29.6513 70.7777 29.6456 70.7701 29.6379C70.7624 29.6303 70.7567 29.6208 70.7535 29.6105C70.7503 29.6001 70.7496 29.5891 70.7516 29.5785V29.1179C70.6316 29.3042 70.467 29.4577 70.2728 29.5646C70.0786 29.6714 69.8608 29.7282 69.6392 29.7298C69.4907 29.7328 69.3432 29.7036 69.2071 29.6441C69.071 29.5846 68.9494 29.4963 68.8507 29.3852C68.752 29.2742 68.6786 29.143 68.6356 29.0008C68.5925 28.8587 68.5808 28.7088 68.6013 28.5617M74.5712 28.3047V27.4587C74.5893 27.3441 74.5813 27.2269 74.5479 27.1157C74.5144 27.0046 74.4563 26.9025 74.3778 26.817C74.2994 26.7314 74.2027 26.6647 74.0949 26.6217C73.9871 26.5787 73.871 26.5606 73.7552 26.5688C73.6385 26.5654 73.5224 26.5865 73.4143 26.6306C73.3063 26.6748 73.2086 26.741 73.1276 26.8251C73.0467 26.9092 72.9842 27.0094 72.9442 27.119C72.9042 27.2287 72.8875 27.3456 72.8953 27.462V28.2964C72.8867 28.4141 72.9029 28.5322 72.9428 28.6432C72.9827 28.7543 73.0455 28.8557 73.1271 28.9409C73.2086 29.0262 73.3072 29.0933 73.4164 29.1381C73.5255 29.1829 73.6429 29.2042 73.7608 29.2008C74.2714 29.2008 74.5768 28.8899 74.5768 28.3019M72.3903 30.949C72.3806 30.9499 72.3708 30.9486 72.3616 30.9452C72.3525 30.9419 72.3441 30.9366 72.3373 30.9297C72.3304 30.9228 72.3251 30.9145 72.3217 30.9053C72.3184 30.8962 72.3171 30.8864 72.318 30.8767V26.1877C72.318 26.1377 72.3458 26.1154 72.3958 26.1154H72.8063C72.8165 26.1137 72.8269 26.1143 72.8367 26.1172C72.8466 26.1201 72.8556 26.1253 72.8632 26.1323C72.8707 26.1393 72.8765 26.1479 72.8802 26.1575C72.8838 26.1672 72.8852 26.1775 72.8842 26.1877V26.5871C72.9938 26.4134 73.1465 26.2709 73.3273 26.1734C73.5082 26.076 73.7111 26.0269 73.9165 26.0309C74.0893 26.0252 74.2613 26.0566 74.4209 26.1229C74.5805 26.1893 74.724 26.289 74.8418 26.4155C74.9596 26.542 75.0489 26.6923 75.1038 26.8562C75.1586 27.0201 75.1777 27.1939 75.1597 27.3658V28.3603C75.1785 28.5312 75.1609 28.7041 75.1079 28.8677C75.055 29.0312 74.9679 29.1817 74.8525 29.3091C74.7371 29.4366 74.596 29.5381 74.4385 29.6069C74.281 29.6758 74.1107 29.7105 73.9388 29.7086C73.7316 29.7188 73.5255 29.6724 73.3427 29.5745C73.1599 29.4765 73.0071 29.3306 72.9009 29.1524V30.8506C72.9017 30.8603 72.9004 30.87 72.8971 30.8792C72.8938 30.8884 72.8885 30.8967 72.8816 30.9036C72.8747 30.9105 72.8664 30.9158 72.8572 30.9191C72.8481 30.9224 72.8383 30.9237 72.8286 30.9229L72.3903 30.949ZM78.3318 28.3047V27.4587C78.35 27.3441 78.342 27.2269 78.3085 27.1157C78.275 27.0046 78.2169 26.9025 78.1385 26.817C78.06 26.7314 77.9633 26.6647 77.8555 26.6217C77.7477 26.5787 77.6316 26.5606 77.5159 26.5688C77.3992 26.5654 77.283 26.5865 77.175 26.6306C77.0669 26.6748 76.9692 26.741 76.8883 26.8251C76.8073 26.9092 76.7448 27.0094 76.7048 27.119C76.6648 27.2287 76.6481 27.3456 76.6559 27.462V28.2964C76.6474 28.4136 76.6634 28.5313 76.703 28.6419C76.7426 28.7525 76.8049 28.8537 76.8858 28.9388C76.9668 29.024 77.0647 29.0913 77.1732 29.1364C77.2817 29.1815 77.3984 29.2034 77.5159 29.2008C78.0265 29.2008 78.3318 28.8899 78.3318 28.3019M76.1453 30.949C76.1356 30.9499 76.1259 30.9486 76.1167 30.9452C76.1075 30.9419 76.0992 30.9366 76.0923 30.9297C76.0854 30.9228 76.0801 30.9145 76.0768 30.9053C76.0735 30.8962 76.0722 30.8864 76.073 30.8767V26.1877C76.073 26.1377 76.1008 26.1154 76.1509 26.1154H76.5614C76.5715 26.1137 76.5819 26.1143 76.5918 26.1172C76.6017 26.1201 76.6107 26.1253 76.6183 26.1323C76.6258 26.1393 76.6316 26.1479 76.6353 26.1575C76.6389 26.1672 76.6403 26.1775 76.6393 26.1877V26.5871C76.7489 26.4134 76.9015 26.2709 77.0824 26.1734C77.2632 26.076 77.4662 26.0269 77.6716 26.0309C77.8448 26.0244 78.0174 26.0551 78.1777 26.1211C78.338 26.1871 78.4822 26.2868 78.6006 26.4134C78.719 26.54 78.8089 26.6905 78.864 26.8548C78.9192 27.0192 78.9384 27.1934 78.9203 27.3658V28.3603C78.9392 28.5315 78.9215 28.7046 78.8683 28.8684C78.8152 29.0321 78.7279 29.1827 78.6122 29.3102C78.4966 29.4376 78.3551 29.5391 78.1973 29.6078C78.0394 29.6765 77.8688 29.7108 77.6966 29.7086C77.4896 29.7176 77.284 29.6707 77.1014 29.5728C76.9188 29.475 76.7659 29.3298 76.6587 29.1524V30.8506C76.6596 30.8603 76.6583 30.87 76.655 30.8792C76.6516 30.8884 76.6463 30.8967 76.6394 30.9036C76.6325 30.9105 76.6242 30.9158 76.6151 30.9191C76.6059 30.9224 76.5961 30.9237 76.5864 30.9229L76.1453 30.949ZM80.3292 27.4531V28.352C80.3292 28.5772 80.4187 28.7932 80.5779 28.9524C80.7372 29.1116 80.9531 29.2011 81.1783 29.2011C81.4035 29.2011 81.6195 29.1116 81.7787 28.9524C81.9379 28.7932 82.0274 28.5772 82.0274 28.352V27.4531C82.0274 27.228 81.9379 27.012 81.7787 26.8528C81.6195 26.6935 81.4035 26.6041 81.1783 26.6041C80.9531 26.6041 80.7372 26.6935 80.5779 26.8528C80.4187 27.012 80.3292 27.228 80.3292 27.4531ZM82.6098 27.4253V28.352C82.6098 28.7317 82.4589 29.0959 82.1904 29.3644C81.9219 29.6329 81.5578 29.7837 81.178 29.7837C80.7983 29.7837 80.4342 29.6329 80.1657 29.3644C79.8972 29.0959 79.7463 28.7317 79.7463 28.352V27.442C79.7463 27.0623 79.8972 26.6981 80.1657 26.4296C80.4342 26.1611 80.7983 26.0103 81.178 26.0103C81.5578 26.0103 81.9219 26.1611 82.1904 26.4296C82.4589 26.6981 82.6098 27.0623 82.6098 27.442M85.268 26.1327V26.5248C85.268 26.586 85.268 26.6082 85.179 26.6082H85.1067C84.8847 26.6007 84.6663 26.6653 84.4842 26.7923C84.3021 26.9194 84.1661 27.1021 84.0965 27.313V29.5674C84.0965 29.6174 84.0632 29.6341 84.0242 29.6341H83.5859C83.577 29.635 83.5679 29.6338 83.5594 29.6308C83.5509 29.6277 83.5432 29.6228 83.5368 29.6165C83.5305 29.6101 83.5256 29.6024 83.5225 29.5939C83.5195 29.5854 83.5183 29.5763 83.5192 29.5674V26.1877C83.5192 26.1321 83.5192 26.1154 83.5971 26.1154H83.9964C84.052 26.1154 84.0799 26.1432 84.0799 26.1933V26.7495C84.1816 26.5437 84.3409 26.3718 84.5383 26.2546C84.7357 26.1375 84.9629 26.08 85.1923 26.0893C85.2757 26.0893 85.298 26.0893 85.298 26.1727M86.9628 25.2828V26.1316H87.7176C87.7732 26.1316 87.7954 26.1594 87.7954 26.2206V26.537C87.7954 26.5982 87.7954 26.6205 87.7176 26.6205H86.9628V28.6679C86.9628 28.9844 87.1346 29.1285 87.4567 29.1285H87.712C87.7676 29.1285 87.7954 29.1285 87.7954 29.2064V29.5668C87.7954 29.628 87.7954 29.6502 87.712 29.6502H87.3733C87.2472 29.6686 87.1186 29.6586 86.9968 29.6212C86.875 29.5837 86.763 29.5197 86.669 29.4337C86.575 29.3476 86.5013 29.2418 86.4532 29.1238C86.4051 29.0058 86.3839 28.8786 86.391 28.7514V26.626H85.9082C85.8637 26.626 85.8359 26.626 85.8359 26.5426V26.2261C85.8359 26.1649 85.8637 26.1371 85.9082 26.1371H86.3965V25.2833C86.3965 25.2388 86.3965 25.211 86.48 25.211H86.8793C86.9461 25.211 86.9628 25.2105 86.9628 25.2828ZM93.3221 25.8879C93.3221 25.9547 93.3221 26.0047 93.2275 26.032L92.6062 26.2595C92.5908 26.2676 92.5737 26.2721 92.5563 26.2728C92.5388 26.2734 92.5215 26.2702 92.5055 26.2632C92.4895 26.2563 92.4752 26.2459 92.4638 26.2327C92.4523 26.2196 92.444 26.204 92.4393 26.1872C92.3872 26.0463 92.2896 25.9267 92.162 25.8474C92.0344 25.768 91.8841 25.7334 91.7346 25.7489C91.3519 25.7489 91.1022 25.9319 91.1022 26.2094C91.1022 26.487 91.2963 26.6032 92.159 26.903C93.0217 27.2028 93.3688 27.6133 93.3688 28.2936C93.3688 29.1096 92.6696 29.7309 91.6595 29.7309C91.2864 29.7761 90.9094 29.6855 90.5976 29.4756C90.2858 29.2657 90.0599 28.9506 89.9614 28.5878C89.9563 28.5737 89.9541 28.5586 89.955 28.5435C89.9559 28.5285 89.9599 28.5138 89.9666 28.5003C89.9734 28.4868 89.9828 28.4749 89.9944 28.4652C90.0059 28.4554 90.0193 28.4482 90.0337 28.4438L90.705 28.2213C90.794 28.1935 90.838 28.2213 90.8602 28.3103C90.8969 28.4866 90.9994 28.6423 91.1469 28.7457C91.2944 28.849 91.4757 28.8922 91.654 28.8665C92.1089 28.8665 92.3476 28.6724 92.3476 28.3837C92.3476 28.095 92.1757 27.9944 91.4765 27.7513C90.472 27.3908 90.0893 26.9909 90.0893 26.2495C90.1039 26.0522 90.1579 25.8598 90.2481 25.6836C90.3382 25.5075 90.4627 25.3512 90.6143 25.224C90.7658 25.0968 90.9413 25.0012 91.1304 24.9429C91.3194 24.8846 91.5183 24.8647 91.7151 24.8845C92.0597 24.8502 92.4058 24.9328 92.6976 25.1191C92.9895 25.3053 93.2103 25.5844 93.3243 25.9113M95.3223 25.3339V26.1332H95.9897C96.004 26.1314 96.0186 26.1329 96.0322 26.1376C96.0459 26.1422 96.0583 26.15 96.0685 26.1602C96.0787 26.1704 96.0864 26.1828 96.0911 26.1964C96.0957 26.2101 96.0972 26.2246 96.0954 26.2389V26.8218C96.0963 26.8357 96.0942 26.8496 96.0891 26.8625C96.084 26.8755 96.0762 26.8872 96.0661 26.8967C96.056 26.9063 96.0439 26.9135 96.0307 26.9179C96.0175 26.9222 96.0035 26.9236 95.9897 26.922H95.3223V28.5033C95.3223 28.7085 95.4335 28.8253 95.6994 28.8253H95.9881C96.0548 28.8253 96.0937 28.8587 96.0937 28.9199V29.5785C96.0937 29.6452 96.0548 29.673 95.9881 29.673H95.5409C94.7416 29.673 94.3644 29.2514 94.3644 28.6296V26.9053H93.9539C93.9401 26.9069 93.9261 26.9055 93.9129 26.9012C93.8997 26.8968 93.8877 26.8896 93.8776 26.88C93.8675 26.8705 93.8596 26.8588 93.8546 26.8459C93.8495 26.8329 93.8473 26.819 93.8483 26.8051V26.2211C93.8465 26.2068 93.8479 26.1923 93.8526 26.1786C93.8573 26.165 93.865 26.1526 93.8752 26.1424C93.8854 26.1322 93.8978 26.1244 93.9114 26.1198C93.9251 26.1151 93.9396 26.1136 93.9539 26.1154H94.3811V25.3334C94.3794 25.3203 94.3807 25.307 94.3848 25.2945C94.3888 25.282 94.3956 25.2705 94.4047 25.2609C94.4137 25.2513 94.4248 25.2439 94.4371 25.2391C94.4494 25.2343 94.4625 25.2323 94.4757 25.2333H95.2305C95.2917 25.2333 95.3195 25.2722 95.3195 25.3334M98.6602 28.4521V28.1184C98.4749 28.1073 98.2892 28.1073 98.1039 28.1184C97.7435 28.1629 97.5477 28.2736 97.5477 28.5511C97.5477 28.8287 97.7146 28.9405 97.9927 28.9405C98.1454 28.9426 98.2945 28.8942 98.4169 28.8029C98.5393 28.7116 98.6281 28.5824 98.6696 28.4354M99.6185 27.2145V29.5451C99.6185 29.558 99.6159 29.5708 99.6108 29.5826C99.6057 29.5945 99.5983 29.6052 99.5889 29.614C99.5795 29.6229 99.5684 29.6297 99.5563 29.6341C99.5442 29.6385 99.5313 29.6404 99.5184 29.6397H98.8081C98.7952 29.6404 98.7823 29.6385 98.7702 29.6341C98.7581 29.6297 98.747 29.6229 98.7376 29.614C98.7282 29.6052 98.7208 29.5945 98.7157 29.5826C98.7106 29.5708 98.708 29.558 98.708 29.5451V29.1624C98.6088 29.3343 98.4654 29.4766 98.2926 29.5744C98.1199 29.6722 97.9242 29.722 97.7257 29.7186C97.5765 29.7307 97.4265 29.7103 97.2861 29.6586C97.1456 29.607 97.0181 29.5255 96.9122 29.4197C96.8064 29.3138 96.7249 29.1863 96.6733 29.0458C96.6216 28.9054 96.6011 28.7554 96.6132 28.6062C96.6132 27.9571 97.0237 27.5738 98.0172 27.4938C98.2312 27.4743 98.4466 27.4743 98.6607 27.4938V27.2423C98.6702 27.1762 98.6641 27.1088 98.6428 27.0455C98.6215 26.9822 98.5857 26.9248 98.5382 26.8779C98.4907 26.8309 98.4329 26.7958 98.3693 26.7752C98.3058 26.7547 98.2383 26.7493 98.1723 26.7595C98.0643 26.7449 97.9546 26.7701 97.8637 26.8304C97.7729 26.8907 97.707 26.9819 97.6784 27.0872C97.645 27.165 97.6228 27.1817 97.551 27.1595L96.8407 26.982C96.7684 26.982 96.7629 26.9208 96.7796 26.8708C96.8741 26.3602 97.3358 25.9886 98.2057 25.9886C99.0757 25.9886 99.6096 26.4102 99.6096 27.2095M102.506 26.1332V26.8268C102.506 26.9103 102.473 26.9381 102.39 26.9381H102.285C102.082 26.9124 101.877 26.9613 101.707 27.0756C101.538 27.1899 101.416 27.3618 101.363 27.5594V29.5451C101.365 29.557 101.364 29.569 101.361 29.5805C101.357 29.5919 101.351 29.6025 101.343 29.6114C101.335 29.6204 101.326 29.6276 101.315 29.6324C101.304 29.6373 101.292 29.6398 101.28 29.6397H100.47C100.458 29.6398 100.446 29.6373 100.435 29.6324C100.424 29.6276 100.414 29.6204 100.406 29.6114C100.398 29.6025 100.392 29.5919 100.389 29.5805C100.385 29.569 100.385 29.557 100.386 29.5451V26.1599C100.385 26.1475 100.387 26.135 100.392 26.1234C100.396 26.1118 100.403 26.1014 100.412 26.0928C100.421 26.0843 100.432 26.0779 100.444 26.0741C100.456 26.0703 100.468 26.0692 100.481 26.0709H101.219C101.232 26.07 101.245 26.072 101.257 26.0768C101.27 26.0816 101.281 26.089 101.29 26.0986C101.299 26.1082 101.306 26.1196 101.31 26.1322C101.314 26.1447 101.315 26.158 101.313 26.1711V26.6872C101.407 26.4935 101.555 26.3312 101.739 26.22C101.924 26.1087 102.136 26.0533 102.351 26.0604C102.479 26.0604 102.506 26.0604 102.506 26.1716M104.404 25.3339V26.1332H105.072C105.086 26.1323 105.1 26.1345 105.112 26.1395C105.125 26.1446 105.137 26.1525 105.147 26.1625C105.156 26.1726 105.163 26.1847 105.168 26.1979C105.172 26.2111 105.174 26.2251 105.172 26.2389V26.8218C105.174 26.8354 105.172 26.8492 105.168 26.8622C105.164 26.8752 105.156 26.887 105.147 26.8967C105.137 26.9064 105.125 26.9137 105.112 26.9181C105.099 26.9225 105.085 26.9238 105.072 26.922H104.404V28.5033C104.404 28.7085 104.516 28.8253 104.776 28.8253H105.07C105.083 28.8237 105.096 28.8249 105.109 28.829C105.121 28.8331 105.133 28.8399 105.143 28.8489C105.152 28.858 105.16 28.869 105.164 28.8813C105.169 28.8936 105.171 28.9068 105.17 28.9199V29.5785C105.17 29.6452 105.131 29.673 105.07 29.673H104.621C103.821 29.673 103.45 29.2514 103.45 28.6296V26.9053H103.034C103.02 26.9071 103.006 26.9058 102.993 26.9014C102.98 26.897 102.969 26.8897 102.959 26.88C102.949 26.8703 102.942 26.8585 102.937 26.8455C102.933 26.8325 102.932 26.8187 102.934 26.8051V26.2211C102.932 26.2073 102.933 26.1933 102.938 26.1801C102.942 26.1669 102.949 26.1548 102.959 26.1447C102.968 26.1347 102.98 26.1268 102.993 26.1217C103.006 26.1167 103.02 26.1145 103.034 26.1154H103.461V25.3334C103.459 25.3198 103.46 25.306 103.465 25.293C103.469 25.28 103.476 25.2682 103.486 25.2585C103.496 25.2488 103.508 25.2415 103.521 25.2371C103.534 25.2327 103.547 25.2314 103.561 25.2333H104.316C104.329 25.2332 104.341 25.2358 104.353 25.2409C104.364 25.2461 104.375 25.2536 104.383 25.2631C104.391 25.2726 104.398 25.2838 104.402 25.2959C104.405 25.308 104.406 25.3208 104.405 25.3334M108.622 26.8813C108.622 26.937 108.622 26.987 108.544 27.0087L107.951 27.2195C107.884 27.2195 107.851 27.2195 107.823 27.1472C107.778 27.0246 107.694 26.9204 107.583 26.8511C107.472 26.7818 107.342 26.7514 107.212 26.7645C106.906 26.7645 106.729 26.8813 106.729 27.0588C106.729 27.2362 106.856 27.303 107.539 27.486C108.333 27.6968 108.652 28.0422 108.652 28.5984C108.652 29.2865 108.095 29.7109 107.209 29.7109C106.322 29.7109 105.855 29.3944 105.671 28.8509C105.671 28.7731 105.671 28.7347 105.766 28.6958L106.288 28.4404C106.366 28.4015 106.409 28.4404 106.448 28.5183C106.506 28.6592 106.607 28.7779 106.738 28.8568C106.868 28.9357 107.02 28.9707 107.171 28.9566C107.532 28.9566 107.728 28.8398 107.728 28.6457C107.728 28.4516 107.528 28.357 106.89 28.1796C106.107 27.9743 105.778 27.6234 105.778 27.0671C105.778 26.3902 106.334 25.9547 107.165 25.9547C107.467 25.9241 107.771 25.9925 108.031 26.1496C108.292 26.3067 108.494 26.5439 108.608 26.8257M114.602 25.023V29.5507C114.602 29.6063 114.602 29.6452 114.501 29.6452H113.713C113.7 29.646 113.687 29.6441 113.675 29.6397C113.663 29.6353 113.652 29.6284 113.643 29.6196C113.633 29.6107 113.626 29.6 113.621 29.5882C113.616 29.5763 113.613 29.5636 113.613 29.5507V27.7635H111.987V29.5618C111.988 29.5749 111.986 29.5881 111.981 29.6004C111.977 29.6127 111.969 29.6237 111.96 29.6328C111.95 29.6418 111.939 29.6486 111.926 29.6527C111.913 29.6568 111.9 29.658 111.887 29.6563H111.077C111.064 29.6571 111.051 29.6552 111.039 29.6508C111.027 29.6464 111.016 29.6396 111.006 29.6307C110.997 29.6218 110.989 29.6112 110.984 29.5993C110.979 29.5875 110.977 29.5747 110.977 29.5618V25.023C110.977 25.0096 110.979 24.9963 110.985 24.9841C110.99 24.9718 110.998 24.9608 111.008 24.9519C111.018 24.9429 111.03 24.9362 111.043 24.9322C111.055 24.9281 111.069 24.9269 111.082 24.9284H111.887C111.9 24.9268 111.913 24.928 111.926 24.9321C111.939 24.9362 111.95 24.943 111.96 24.952C111.969 24.9611 111.977 24.9721 111.981 24.9844C111.986 24.9967 111.988 25.0099 111.987 25.023V26.8207H113.613V25.023C113.613 25.0101 113.616 24.9973 113.621 24.9855C113.626 24.9736 113.633 24.963 113.643 24.9541C113.652 24.9452 113.663 24.9384 113.675 24.934C113.687 24.9296 113.7 24.9277 113.713 24.9284H114.518C114.59 24.9284 114.618 24.9674 114.618 25.023M116.316 27.4148V27.5366H117.56V27.4148C117.566 27.329 117.555 27.2428 117.527 27.1615C117.499 27.0802 117.454 27.0056 117.396 26.9424C117.338 26.8792 117.267 26.8288 117.188 26.7943C117.109 26.7598 117.024 26.742 116.938 26.742C116.852 26.742 116.767 26.7598 116.688 26.7943C116.609 26.8288 116.538 26.8792 116.48 26.9424C116.422 27.0056 116.377 27.0802 116.349 27.1615C116.321 27.2428 116.31 27.329 116.316 27.4148ZM116.316 28.1696V28.3047C116.302 28.3928 116.309 28.4831 116.336 28.5679C116.364 28.6528 116.412 28.7297 116.475 28.7923C116.539 28.8549 116.617 28.9012 116.702 28.9274C116.787 28.9536 116.878 28.9588 116.965 28.9427C117.105 28.9642 117.248 28.9388 117.371 28.8706C117.495 28.8023 117.592 28.6951 117.648 28.5656C117.709 28.4655 117.737 28.4543 117.837 28.4988L118.347 28.7597C118.453 28.8098 118.458 28.8598 118.414 28.9594C118.274 29.2169 118.062 29.4279 117.803 29.5662C117.545 29.7046 117.252 29.7643 116.96 29.7381C116.757 29.765 116.552 29.7473 116.357 29.6861C116.162 29.6249 115.983 29.5217 115.832 29.3839C115.681 29.246 115.562 29.0768 115.484 28.8882C115.406 28.6995 115.37 28.496 115.379 28.2919V27.4587C115.369 27.2559 115.404 27.0533 115.481 26.8654C115.557 26.6774 115.675 26.5086 115.824 26.3708C115.973 26.2329 116.15 26.1294 116.344 26.0675C116.537 26.0056 116.742 25.9869 116.943 26.0125C117.139 25.993 117.337 26.0161 117.523 26.0801C117.709 26.1442 117.879 26.2478 118.022 26.3838C118.164 26.5199 118.275 26.685 118.348 26.8681C118.42 27.0511 118.452 27.2477 118.442 27.4442V28.0005C118.442 28.095 118.408 28.1612 118.27 28.1612L116.316 28.1696ZM121.255 26.1332V26.8268C121.255 26.9103 121.227 26.9381 121.138 26.9381H121.038C120.835 26.9124 120.63 26.9613 120.461 27.0756C120.291 27.1899 120.169 27.3618 120.117 27.5594V29.5451C120.118 29.5568 120.116 29.5685 120.112 29.5796C120.109 29.5907 120.103 29.6009 120.095 29.6097C120.087 29.6185 120.078 29.6257 120.067 29.6308C120.057 29.6359 120.045 29.639 120.034 29.6397H119.218C119.206 29.6398 119.194 29.6373 119.183 29.6324C119.172 29.6276 119.162 29.6204 119.154 29.6114C119.146 29.6025 119.141 29.5919 119.137 29.5805C119.134 29.569 119.133 29.557 119.134 29.5451V26.1599C119.133 26.1475 119.135 26.135 119.14 26.1234C119.144 26.1118 119.151 26.1014 119.16 26.0928C119.169 26.0843 119.18 26.0779 119.192 26.0741C119.204 26.0703 119.216 26.0692 119.229 26.0709H119.967C120.045 26.0709 120.061 26.121 120.061 26.1711V26.6872C120.155 26.4935 120.303 26.3312 120.487 26.22C120.672 26.1087 120.884 26.0533 121.099 26.0604C121.232 26.0604 121.255 26.0604 121.255 26.1716M122.664 27.4148V27.5366H123.908V27.4148C123.915 27.329 123.904 27.2428 123.876 27.1615C123.848 27.0802 123.803 27.0056 123.745 26.9424C123.686 26.8792 123.615 26.8288 123.537 26.7943C123.458 26.7598 123.373 26.742 123.287 26.742C123.201 26.742 123.116 26.7598 123.037 26.7943C122.958 26.8288 122.887 26.8792 122.829 26.9424C122.77 27.0056 122.726 27.0802 122.697 27.1615C122.669 27.2428 122.658 27.329 122.665 27.4148M122.665 28.1696V28.3047C122.651 28.3928 122.657 28.4831 122.685 28.5679C122.713 28.6528 122.76 28.7297 122.824 28.7923C122.888 28.8549 122.965 28.9012 123.051 28.9274C123.136 28.9536 123.226 28.9588 123.314 28.9427C123.454 28.9645 123.598 28.9393 123.722 28.8711C123.847 28.8029 123.945 28.6955 124.002 28.5656C124.058 28.4655 124.086 28.4543 124.185 28.4988L124.696 28.7597C124.802 28.8098 124.807 28.8598 124.763 28.9594C124.623 29.2169 124.41 29.4279 124.152 29.5662C123.894 29.7046 123.601 29.7643 123.309 29.7381C123.107 29.7633 122.902 29.7442 122.709 29.6822C122.515 29.6202 122.338 29.5167 122.188 29.3791C122.039 29.2414 121.921 29.0729 121.843 28.8851C121.766 28.6974 121.73 28.4949 121.738 28.2919V27.4587C121.729 27.2559 121.763 27.0533 121.84 26.8654C121.917 26.6774 122.034 26.5086 122.184 26.3708C122.333 26.2329 122.51 26.1294 122.704 26.0675C122.897 26.0056 123.102 25.9869 123.303 26.0125C123.499 25.993 123.697 26.0161 123.883 26.0801C124.069 26.1442 124.239 26.2478 124.382 26.3838C124.524 26.5199 124.635 26.685 124.708 26.8681C124.78 27.0511 124.812 27.2477 124.802 27.4442V28.0005C124.802 28.095 124.768 28.1612 124.63 28.1612L122.665 28.1696Z" fill="white"/>
</g>
</g>
</g>
</g>
<defs>
<clipPath id="clip0_133_591">
<rect width="124.591" height="35.5983" fill="white" transform="translate(0.204346 0.201172)"/>
</clipPath>
</defs>
</svg>
