<svg width="101" height="32" viewBox="0 0 101 32" fill="none" xmlns="http://www.w3.org/2000/svg">
<g id="mga-logo">
<g id="Group">
<path id="Vector" d="M3.83331 16.2577V29.166L4.64998 28.3327C5.09165 27.8743 6.78331 26.1327 8.40831 24.4577C12.7416 19.991 15.1333 17.7077 15.8916 17.3077C16.2 17.141 16.4083 17.191 16.5166 17.4327C16.5916 17.5994 16.6333 19.2827 16.6583 23.3744L16.7083 29.0827L23.1916 29.1077L29.6666 29.1243V16.241C29.6666 8.73269 29.6333 3.37436 29.5916 3.39103C29.55 3.39936 26.8083 6.07436 23.5 9.3327C20.1916 12.5827 17.35 15.3327 17.1833 15.4327C16.8166 15.6577 16.7416 15.666 16.35 15.4827C16.1583 15.391 13.7583 13.0827 10.25 9.61603C7.06665 6.47436 4.31665 3.77436 4.14998 3.6327L3.83331 3.3577V16.2577Z" fill="#8251F5"/>
<path id="Vector_2" d="M69.5833 6.50774C66.725 6.84941 64.7833 7.72441 63.1916 9.39941C61.75 10.9161 60.9916 12.8744 60.8666 15.3744C60.6083 20.6411 63.4416 24.3411 68.45 25.2661C69.5166 25.4661 72.125 25.4661 73.375 25.2577C74.975 24.9994 76.35 24.6077 77.6916 24.0327L78.3333 23.7577V19.3577V14.9577H74.6666H71V16.5411V18.1244H72.4583H73.9166V19.8744C73.9166 21.9077 74.0166 21.7161 72.8166 21.9244C71.8916 22.0827 70.3166 22.0411 69.55 21.8327C68.1666 21.4494 66.9583 20.4827 66.3916 19.2911C65.8666 18.1911 65.7916 17.7744 65.7916 15.9994C65.7916 14.1911 65.875 13.7661 66.4166 12.6661C66.825 11.8244 67.2666 11.3161 67.9833 10.8494C69.0833 10.1244 70.3916 9.81607 72.075 9.89941C73.6916 9.97441 75.3333 10.4077 76.825 11.1577C77.2416 11.3661 77.6 11.5411 77.625 11.5411C77.65 11.5411 77.6666 10.6994 77.6666 9.67441V7.79941L77.0083 7.54941C75.1666 6.84108 73.575 6.54108 71.4166 6.49941C70.5666 6.48274 69.7416 6.49108 69.5833 6.50774Z" fill="white"/>
<path id="Vector_3" d="M36.9168 15.9574V25.124H39.1251H41.3335V18.4407C41.3335 14.7657 41.3668 11.7907 41.4001 11.8324C41.4418 11.8824 42.4001 14.099 43.5418 16.7657L45.6085 21.624H47.0835H48.5585L50.5251 17.0157C51.6085 14.4907 52.5585 12.2657 52.6418 12.0824C52.7835 11.7574 52.7918 11.9407 52.8168 18.4324L52.8335 25.124H55.0418H57.2501V15.9574V6.7907H54.2668H51.2751L49.2001 11.6657C48.0585 14.3407 47.1085 16.5407 47.0835 16.5407C47.0585 16.5407 46.1001 14.349 44.9668 11.6657L42.8918 6.7907H39.9001H36.9168V15.9574Z" fill="white"/>
<path id="Vector_4" d="M87.0417 6.8907C87.0167 6.94904 85.525 10.9907 83.7167 15.874C81.9167 20.7574 80.4167 24.8324 80.3833 24.9324L80.325 25.124H82.6833H85.0417L85.6167 23.4574L86.1833 21.7907L89.9 21.8074L93.6083 21.8324L94.175 23.4574L94.7333 25.0824L97.1083 25.1074L99.4833 25.124L99.1333 24.1907C98.9417 23.674 97.4167 19.549 95.75 15.024L92.7083 6.7907H89.8917C87.7167 6.7907 87.0667 6.8157 87.0417 6.8907ZM91.1667 14.774L92.3917 18.3324L89.9333 18.3574C88.5833 18.3657 87.4583 18.3574 87.4333 18.3407C87.4167 18.3157 87.9583 16.6907 88.6333 14.7157C89.3167 12.749 89.8917 11.1574 89.9083 11.174C89.9333 11.199 90.5 12.8157 91.1667 14.774Z" fill="white"/>
</g>
</g>
</svg>
