<?xml version="1.0" encoding="UTF-8" standalone="no"?>
<!DOCTYPE svg PUBLIC "-//W3C//DTD SVG 1.1//EN" "http://www.w3.org/Graphics/SVG/1.1/DTD/svg11.dtd">
<svg xmlns="http://www.w3.org/2000/svg" version="1.1" viewBox="0.00 0.00 303.00 330.00">
<path fill="#393a3b" d="
  M 46.85 76.20
  C 46.77 75.54 47.22 74.23 46.91 73.78
  Q 46.84 73.66 46.84 73.57
  Q 47.21 31.46 46.97 7.75
  Q 46.94 5.22 46.83 3.91
  Q 46.77 3.24 47.45 3.24
  C 56.60 3.28 68.86 2.30 76.35 4.19
  C 86.66 6.80 94.45 15.60 94.73 26.68
  Q 95.08 40.51 94.91 63.00
  Q 94.86 70.56 91.32 76.30
  Q 91.05 76.75 90.52 76.75
  L 47.47 76.75
  Q 46.91 76.75 46.85 76.20
  Z
  M 63.21 20.80
  L 63.29 70.76
  A 0.92 0.92 0.0 0 0 64.22 71.68
  L 69.39 71.67
  A 9.17 8.97 89.9 0 0 78.34 62.49
  L 78.28 29.03
  A 9.17 8.97 89.9 0 0 69.29 19.87
  L 64.12 19.88
  A 0.92 0.92 0.0 0 0 63.21 20.80
  Z"
/>
<path fill="#393a3b" d="
  M 151.50 72.14
  L 151.50 75.86
  A 0.60 0.60 0.0 0 1 150.90 76.46
  L 109.04 76.79
  A 0.60 0.60 0.0 0 1 108.43 76.18
  L 108.66 3.81
  A 0.60 0.60 0.0 0 1 109.26 3.21
  L 150.93 3.33
  A 0.60 0.60 0.0 0 1 151.53 3.93
  L 151.49 19.40
  A 0.60 0.60 0.0 0 1 150.89 20.00
  L 125.60 20.00
  A 0.60 0.60 0.0 0 0 125.00 20.60
  L 125.00 70.93
  A 0.60 0.60 0.0 0 0 125.60 71.53
  L 150.90 71.54
  A 0.60 0.60 0.0 0 1 151.50 72.14
  Z"
/>
<path fill="#393a3b" d="
  M 179.10 20.00
  L 163.88 20.00
  A 0.68 0.68 0.0 0 1 163.20 19.31
  L 163.38 4.15
  A 0.68 0.68 0.0 0 1 164.06 3.48
  L 210.57 3.29
  A 0.68 0.68 0.0 0 1 211.25 3.97
  L 211.25 19.34
  A 0.68 0.68 0.0 0 1 210.57 20.02
  L 197.16 19.95
  A 0.68 0.68 0.0 0 0 196.48 20.63
  L 196.51 76.07
  A 0.68 0.68 0.0 0 1 195.83 76.75
  L 180.42 76.75
  A 0.68 0.68 0.0 0 1 179.74 76.07
  L 179.78 20.68
  A 0.68 0.68 0.0 0 0 179.10 20.00
  Z"
/>
<path fill="#393a3b" d="
  M 2.88 51.28
  L 31.20 79.42
  A 0.34 0.34 0.0 0 1 31.20 79.91
  L 2.78 107.95
  A 0.34 0.34 0.0 0 1 2.20 107.71
  L 2.30 51.52
  A 0.34 0.34 0.0 0 1 2.88 51.28
  Z"
/>
<path fill="#393a3b" d="
  M 96.50 127.25
  C 96.49 131.87 96.77 135.56 95.29 139.67
  C 91.07 151.42 81.96 156.46 69.93 156.54
  Q 58.66 156.61 47.53 156.79
  A 0.52 0.52 0.0 0 1 47.00 156.27
  L 47.00 83.71
  Q 47.00 83.24 47.47 83.24
  L 92.22 83.26
  Q 92.64 83.26 92.87 83.60
  Q 96.31 88.61 96.39 92.68
  Q 96.54 100.97 96.50 127.25
  Z
  M 63.54 88.74
  L 63.46 139.70
  A 0.43 0.43 0.0 0 0 63.88 140.13
  L 71.03 140.14
  A 9.13 8.98 -89.9 0 0 80.03 131.02
  L 80.09 97.46
  A 9.13 8.98 -89.9 0 0 71.13 88.32
  L 63.98 88.31
  A 0.43 0.43 0.0 0 0 63.54 88.74
  Z"
/>
<path fill="#393a3b" d="
  M 125.49 140.00
  L 150.97 140.00
  A 0.53 0.53 0.0 0 1 151.50 140.53
  L 151.50 155.92
  A 0.53 0.53 0.0 0 1 150.97 156.45
  L 109.03 156.66
  A 0.53 0.53 0.0 0 1 108.50 156.13
  L 108.50 83.53
  A 0.53 0.53 0.0 0 1 109.03 83.00
  L 150.97 83.00
  A 0.53 0.53 0.0 0 1 151.50 83.53
  L 151.50 87.75
  A 0.53 0.53 0.0 0 1 150.97 88.28
  L 125.62 88.24
  A 0.53 0.53 0.0 0 0 125.09 88.77
  L 124.96 139.47
  A 0.53 0.53 0.0 0 0 125.49 140.00
  Z"
/>
<path fill="#393a3b" d="
  M 179.75 156.09
  L 179.75 83.60
  A 0.60 0.60 0.0 0 1 180.35 83.00
  L 195.80 83.00
  A 0.60 0.60 0.0 0 1 196.40 83.60
  L 196.19 155.94
  A 0.60 0.60 0.0 0 1 195.60 156.54
  L 180.36 156.69
  A 0.60 0.60 0.0 0 1 179.75 156.09
  Z"
/>
<path fill="#393a3b" d="
  M 79.16 192.73
  C 76.02 188.66 68.47 189.33 65.95 193.84
  C 63.16 198.85 64.57 222.43 66.14 227.24
  C 69.01 236.02 75.25 240.60 82.24 246.08
  A 0.37 0.37 0.0 0 1 82.01 246.75
  L 56.51 246.75
  A 1.68 1.68 0.0 0 1 55.13 246.03
  C 45.89 232.78 48.33 217.18 48.21 201.80
  Q 48.16 195.24 49.38 191.35
  C 56.73 167.81 88.84 167.22 96.59 190.85
  C 98.39 196.34 97.76 203.29 97.74 209.39
  Q 97.74 209.90 97.23 209.91
  L 82.01 210.03
  A 0.86 0.86 0.0 0 1 81.14 209.10
  C 81.50 204.33 82.09 196.53 79.16 192.73
  Z"
/>
<path fill="#393a3b" d="
  M 138.99 194.23
  C 136.11 188.76 127.44 188.65 124.71 194.10
  Q 123.67 196.19 123.72 201.04
  Q 123.95 223.66 123.46 246.25
  Q 123.45 246.75 122.95 246.75
  L 107.75 246.75
  A 0.74 0.74 0.0 0 1 107.01 246.00
  Q 107.26 223.58 107.28 201.20
  Q 107.28 193.98 108.61 190.10
  C 116.18 168.01 147.73 167.65 155.27 190.03
  Q 156.76 194.44 156.75 204.66
  Q 156.74 225.31 156.75 246.02
  A 0.73 0.73 0.0 0 1 156.02 246.75
  L 140.77 246.75
  A 0.66 0.66 0.0 0 1 140.11 246.09
  Q 140.28 223.87 140.28 201.75
  C 140.28 199.16 140.17 196.48 138.99 194.23
  Z"
/>
<path fill="#393a3b" d="
  M 185.08 241.76
  L 210.38 241.42
  A 0.58 0.58 0.0 0 1 210.97 241.98
  L 211.09 246.15
  A 0.58 0.58 0.0 0 1 210.51 246.75
  L 168.33 246.75
  A 0.58 0.58 0.0 0 1 167.75 246.17
  L 167.75 173.83
  A 0.58 0.58 0.0 0 1 168.33 173.25
  L 210.45 173.25
  A 0.58 0.58 0.0 0 1 211.03 173.83
  L 211.01 189.43
  A 0.58 0.58 0.0 0 1 210.43 190.01
  L 185.07 189.98
  A 0.58 0.58 0.0 0 0 184.49 190.56
  L 184.49 241.18
  A 0.58 0.58 0.0 0 0 185.08 241.76
  Z"
/>
<path fill="#393a3b" d="
  M 250.75 190.51
  L 250.75 246.17
  A 0.58 0.58 0.0 0 1 250.17 246.75
  L 234.58 246.75
  A 0.58 0.58 0.0 0 1 234.00 246.17
  L 234.00 190.58
  A 0.58 0.58 0.0 0 0 233.42 190.00
  L 217.83 190.00
  A 0.58 0.58 0.0 0 1 217.25 189.42
  L 217.25 173.83
  A 0.58 0.58 0.0 0 1 217.83 173.25
  L 265.17 173.25
  A 0.58 0.58 0.0 0 1 265.75 173.83
  L 265.75 189.46
  A 0.58 0.58 0.0 0 1 265.17 190.04
  L 251.33 189.93
  A 0.58 0.58 0.0 0 0 250.75 190.51
  Z"
/>
<path fill="#393a3b" d="
  M 300.47 278.02
  L 272.10 250.06
  A 0.31 0.31 0.0 0 1 272.10 249.62
  L 300.47 221.66
  A 0.31 0.31 0.0 0 1 301.00 221.89
  L 301.00 277.79
  A 0.31 0.31 0.0 0 1 300.47 278.02
  Z"
/>
<path fill="#393a3b" d="
  M 65.29 305.64
  C 69.52 314.02 80.88 309.76 80.95 300.74
  Q 81.09 282.80 80.62 278.31
  C 79.35 266.00 71.82 260.52 63.02 253.40
  A 0.24 0.24 0.0 0 1 63.17 252.97
  L 89.08 253.01
  Q 89.63 253.01 89.97 253.44
  C 99.26 265.00 97.70 280.93 97.38 294.72
  Q 97.16 304.38 96.95 305.75
  C 93.17 330.42 59.05 333.95 49.65 310.89
  C 47.25 305.00 47.88 296.98 48.04 290.48
  Q 48.05 290.00 48.54 290.00
  L 63.74 290.00
  Q 64.24 290.00 64.25 290.51
  C 64.25 294.88 63.45 301.98 65.29 305.64
  Z"
/>
<path fill="#393a3b" d="
  M 125.11 306.61
  C 128.11 311.37 136.49 311.04 139.03 305.77
  Q 139.92 303.92 139.98 299.58
  Q 140.31 276.57 140.04 253.54
  A 0.54 0.53 90.0 0 1 140.57 253.00
  L 156.01 253.00
  A 0.75 0.74 -0.0 0 1 156.76 253.74
  Q 156.73 274.82 156.77 295.83
  Q 156.78 304.45 155.41 308.89
  C 146.91 336.52 107.26 330.43 107.25 300.55
  Q 107.25 276.97 107.25 253.35
  A 0.35 0.34 -90.0 0 1 107.59 253.00
  L 123.21 253.00
  Q 123.76 253.00 123.75 253.54
  C 123.65 269.22 123.40 284.81 123.71 300.45
  Q 123.80 304.54 125.11 306.61
  Z"
/>
<path fill="#393a3b" d="
  M 184.50 258.82
  L 184.50 326.17
  A 0.58 0.58 0.0 0 1 183.92 326.75
  L 168.33 326.75
  A 0.58 0.58 0.0 0 1 167.75 326.17
  L 167.75 253.58
  A 0.58 0.58 0.0 0 1 168.33 253.00
  L 210.67 253.00
  A 0.58 0.58 0.0 0 1 211.25 253.58
  L 211.25 257.69
  A 0.58 0.58 0.0 0 1 210.67 258.27
  L 185.08 258.24
  A 0.58 0.58 0.0 0 0 184.50 258.82
  Z"
/>
<rect fill="#393a3b" x="234.00" y="252.99" width="16.74" height="73.76" rx="0.78"/>
</svg>
