<?xml version="1.0" encoding="UTF-8" standalone="no"?>
<!DOCTYPE svg PUBLIC "-//W3C//DTD SVG 1.1//EN" "http://www.w3.org/Graphics/SVG/1.1/DTD/svg11.dtd">
<svg xmlns="http://www.w3.org/2000/svg" version="1.1" viewBox="0.00 0.00 20.00 21.00">
<path fill="#393a3b" d="
  M 17.7337 19.3335
  A 0.45 0.45 0.0 0 1 17.2830 19.7827
  L 2.6830 19.7572
  A 0.45 0.45 0.0 0 1 2.2338 19.3065
  L 2.2663 0.6865
  A 0.45 0.45 0.0 0 1 2.7170 0.2373
  L 17.3170 0.2628
  A 0.45 0.45 0.0 0 1 17.7662 0.7135
  L 17.7337 19.3335
  Z
  M 13.04 9.58
  L 13.43 9.19
  Q 13.79 8.83 13.89 8.33
  C 14.79 3.57 9.52 3.35 6.35 3.86
  Q 5.95 3.92 5.95 4.32
  L 6.02 16.31
  Q 6.03 16.96 6.68 16.94
  Q 8.94 16.88 11.18 16.71
  C 14.58 16.45 15.37 12.37 13.08 10.47
  Q 12.57 10.05 13.04 9.58
  Z"
/>
<path fill="#393a3b" d="
  M 8.26 6.36
  A 0.55 0.55 0.0 0 1 8.80 5.80
  L 9.52 5.80
  A 1.73 1.54 -0.2 0 1 11.26 7.33
  L 11.26 7.75
  A 1.73 1.54 -0.2 0 1 9.54 9.30
  L 8.82 9.30
  A 0.55 0.55 0.0 0 1 8.26 8.76
  L 8.26 6.36
  Z"
/>
<path fill="#393a3b" d="
  M 8.25 11.72
  A 0.64 0.64 0.0 0 1 8.89 11.08
  L 10.02 11.08
  A 1.75 1.51 0.0 0 1 11.77 12.59
  L 11.77 13.29
  A 1.75 1.51 -0.0 0 1 10.02 14.80
  L 8.89 14.80
  A 0.64 0.64 0.0 0 1 8.25 14.16
  L 8.25 11.72
  Z"
/>
</svg>
