<?xml version="1.0" encoding="UTF-8" standalone="no"?>
<!DOCTYPE svg PUBLIC "-//W3C//DTD SVG 1.1//EN" "http://www.w3.org/Graphics/SVG/1.1/DTD/svg11.dtd">
<svg xmlns="http://www.w3.org/2000/svg" version="1.1" viewBox="0.00 0.00 20.00 21.00">
<path fill="#393a3b" d="
  M 8.56 2.93
  Q 8.70 2.39 9.13 1.97
  Q 9.59 1.52 9.50 2.16
  L 9.16 4.66
  Q 9.10 5.11 8.71 5.33
  Q 5.65 7.05 4.29 3.98
  Q 3.73 2.72 4.75 3.64
  L 5.38 4.21
  Q 6.18 4.93 6.05 3.86
  L 5.70 1.04
  Q 5.47 -0.78 6.38 0.81
  L 7.68 3.05
  Q 8.26 4.06 8.56 2.93
  Z"
/>
<path fill="#393a3b" d="
  M 17.6181 12.8928
  A 7.37 6.90 -1.3 0 1 10.4065 19.9582
  A 7.37 6.90 -1.3 0 1 2.8819 13.2272
  A 7.37 6.90 -1.3 0 1 10.0935 6.1618
  A 7.37 6.90 -1.3 0 1 17.6181 12.8928
  Z
  M 13.5883 10.1655
  A 2.00 1.26 26.6 0 0 12.3642 8.1434
  A 2.00 1.26 26.6 0 0 10.0117 8.3745
  A 2.00 1.26 26.6 0 0 11.2358 10.3966
  A 2.00 1.26 26.6 0 0 13.5883 10.1655
  Z"
/>
</svg>
